<svg xmlns="http://www.w3.org/2000/svg" width="54.229" height="42.123" viewBox="0 0 54.229 42.123">
  <g id="drug" transform="translate(0 -12.083)">
    <path id="Path_2131" data-name="Path 2131" d="M17.831,117.136a10.44,10.44,0,1,0,0,14.772A10.457,10.457,0,0,0,17.831,117.136Zm0,0" transform="translate(0 -101.999)" fill="#79c9a6"/>
    <path id="Path_2132" data-name="Path 2132" d="M17.831,200.641A10.448,10.448,0,0,1,.164,195.113,10.561,10.561,0,0,0,0,196.971a10.443,10.443,0,1,0,20.717-1.858A10.382,10.382,0,0,1,17.831,200.641Zm0,0" transform="translate(0 -174.449)" opacity="0.057"/>
    <path id="Path_2135" data-name="Path 2135" d="M268.643,158.566l10.1-10.088a10.062,10.062,0,0,0-7.1-17.181h-.007a10,10,0,0,0-7.11,2.942l-10.1,10.088-.009.01Zm0,0" transform="translate(-227.468 -117.391)" fill="#fb4f3d"/>
    <path id="Path_2136" data-name="Path 2136" d="M144.3,254.334l.009-.01-10.1,10.088a10.062,10.062,0,0,0,7.1,17.182h.007a10,10,0,0,0,7.11-2.942l3.085-3.081,7.016-7.007h0Zm0,0" transform="translate(-117.352 -227.388)" fill="#83c5e7"/>
    <path id="Path_2137" data-name="Path 2137" d="M380.51,156.53a10,10,0,0,0-2.942-7.117,10.222,10.222,0,0,0-1.378-1.156,10.067,10.067,0,0,1-1.156,12.861l-10.1,10.088,2.524,2.524,10.1-10.088A10,10,0,0,0,380.51,156.53Zm0,0" transform="translate(-326.282 -132.556)" fill="#bf161c" opacity="0.348"/>
    <path id="Path_2138" data-name="Path 2138" d="M173.689,367.454l-2.524-2.524h0l-10.1,10.088a10,10,0,0,1-7.11,2.942h-.007a9.987,9.987,0,0,1-5.736-1.8,10.19,10.19,0,0,0,1.146,1.369,10,10,0,0,0,7.113,2.952h.007a9.995,9.995,0,0,0,7.11-2.942l10.1-10.088Zm0,0" transform="translate(-132.513 -326.279)" opacity="0.142"/>
    <path id="Path_2139" data-name="Path 2139" d="M39.09,138.378c-.189-.189-.386-.367-.585-.538L23.777,152.567q.258.3.541.583c.189.189.386.367.585.538l14.725-14.725C39.456,138.764,39.279,138.567,39.09,138.378Zm0,0" transform="translate(-21.259 -123.241)" fill="#99e5c3"/>
  </g>
</svg>
