<svg xmlns="http://www.w3.org/2000/svg" width="45.768" height="53" viewBox="0 0 45.768 53">
  <g id="drug_1_" data-name="drug (1)" transform="translate(-34.937 0)">
    <circle id="Ellipse_199" data-name="Ellipse 199" cx="1.634" cy="1.634" r="1.634" transform="translate(56.419 42.59)" fill="#fcd86e"/>
    <g id="Group_1614" data-name="Group 1614" transform="translate(58.521 35.544)">
      <circle id="Ellipse_200" data-name="Ellipse 200" cx="1.555" cy="1.555" r="1.555" transform="translate(4.821 9)" fill="#6138b7"/>
      <circle id="Ellipse_201" data-name="Ellipse 201" cx="1.555" cy="1.555" r="1.555" fill="#6138b7"/>
    </g>
    <circle id="Ellipse_202" data-name="Ellipse 202" cx="1.96" cy="1.96" r="1.96" transform="translate(64.115 38.04)" fill="#fcd86e"/>
    <circle id="Ellipse_203" data-name="Ellipse 203" cx="2.099" cy="2.099" r="2.099" transform="translate(57.977 48.802)" fill="#f28b74"/>
    <path id="Path_2122" data-name="Path 2122" d="M132.669,69.2l-7.112,6.333,9.01,10.117,7.112-6.333a6.774,6.774,0,0,0,.554-9.564h0A6.774,6.774,0,0,0,132.669,69.2Z" transform="translate(-81.239 -60.497)" fill="#79c9a6"/>
    <path id="Path_2123" data-name="Path 2123" d="M37.206,151.565l7.112-6.333,9.01,10.117-7.112,6.333a6.774,6.774,0,0,1-9.564-.554h0A6.774,6.774,0,0,1,37.206,151.565Z" transform="translate(0 -130.198)" fill="#2aa2e0"/>
    <path id="Path_2124" data-name="Path 2124" d="M61.2,69.759A6.76,6.76,0,0,0,55.836,67.5a6.756,6.756,0,0,0,.727,5.576l2.243,3.593a1.464,1.464,0,0,1-.3,1.9c-4.2,3.506-9.563,7.29-12.37,8.44-4.293,1.759-8.043-2.691-7.438-6.281L37.484,81.8a6.774,6.774,0,1,0,8.934,10.185L60.642,79.322a6.774,6.774,0,0,0,.554-9.564Z" transform="translate(-0.203 -60.505)" opacity="0.1"/>
    <path id="Path_2125" data-name="Path 2125" d="M249.769,10.361l5.043,8.078L266.3,11.265,261.26,3.187a6.774,6.774,0,0,0-9.333-2.159h0A6.774,6.774,0,0,0,249.769,10.361Z" transform="translate(-191.671 0)" fill="#fb4f3d"/>
    <path id="Path_2126" data-name="Path 2126" d="M312.437,124.081,307.394,116l11.492-7.174,5.043,8.078a6.774,6.774,0,0,1-2.159,9.333h0A6.774,6.774,0,0,1,312.437,124.081Z" transform="translate(-244.253 -97.564)" fill="#e0f1f9"/>
    <path id="Path_2127" data-name="Path 2127" d="M269.188,37.4a6.83,6.83,0,0,0,.853-.629c-8.053-1.183-18.551-20.407-18.078-27.039l-.035.021h0a6.774,6.774,0,0,0-2.159,9.333l10.086,16.156a6.774,6.774,0,0,0,9.333,2.159Z" transform="translate(-191.671 -8.728)" opacity="0.1"/>
    <path id="Path_2128" data-name="Path 2128" d="M131.864,243.352l8.247,3.416a.6.6,0,0,0,.779-.323l4.728-11.415a.6.6,0,0,0-.323-.779l-8.247-3.416a6.774,6.774,0,0,0-8.85,3.666h0A6.774,6.774,0,0,0,131.864,243.352Z" transform="translate(-83.143 -206.477)" fill="#fb4f3d"/>
    <path id="Path_2129" data-name="Path 2129" d="M140.891,262.477l1.164-2.811c-9.741-1.854-13.011-7.611-12.249-11.465a6.746,6.746,0,0,0-1.607,2.332h0a6.774,6.774,0,0,0,3.666,8.85l8.247,3.416A.6.6,0,0,0,140.891,262.477Z" transform="translate(-83.144 -222.508)" opacity="0.1"/>
    <path id="Path_2130" data-name="Path 2130" d="M315.32,243.352l-8.247,3.416a.6.6,0,0,1-.779-.323l-4.728-11.415a.6.6,0,0,1,.323-.779l8.247-3.416a6.774,6.774,0,0,1,8.85,3.666h0A6.774,6.774,0,0,1,315.32,243.352Z" transform="translate(-238.987 -206.477)" fill="#2aa2e0"/>
  </g>
</svg>
