<svg xmlns="http://www.w3.org/2000/svg" width="53.213" height="52.63" viewBox="0 0 53.213 52.63">
  <g id="icon" transform="translate(-391.521 -124.157)">
    <path id="Path_1725" data-name="Path 1725" d="M29.5,6.157c16.292,0,26.234,11.084,26.234,27.376S50.662,58.787,34.369,58.787,2.521,57.439,2.521,41.146,13.208,6.157,29.5,6.157Z" transform="translate(389 118)" fill="#2aa2e0"/>
    <g id="prescription" transform="translate(347.098 138)">
      <path id="Path_1538" data-name="Path 1538" d="M151.762,307H151v1.523h.762a.762.762,0,1,0,0-1.523Z" transform="translate(-85.43 -291.41)" fill="#fff"/>
      <path id="Path_1539" data-name="Path 1539" d="M361,8.787v4.124h4.124Z" transform="translate(-284.766 -8.341)" fill="#fff"/>
      <path id="Path_1540" data-name="Path 1540" d="M75.473,6.094a.762.762,0,0,1-.762-.762V0H61.762A.762.762,0,0,0,61,.762V25.238a.762.762,0,0,0,.762.762H80.043a.762.762,0,0,0,.762-.762V6.094ZM64.809,4.57h7.617a.762.762,0,0,1,0,1.523H64.809a.762.762,0,1,1,0-1.523Zm5.867,16.977A.762.762,0,1,1,69.6,22.625l-.8-.8-.809.809a.762.762,0,0,1-1.077-1.077l.809-.809L65.61,18.637h-.04v1.93a.762.762,0,1,1-1.523,0V14.828a.762.762,0,0,1,.762-.762h1.523a2.284,2.284,0,0,1,1.132,4.269l1.331,1.331.807-.807a.762.762,0,0,1,1.077,1.077l-.807.807ZM77,18.281h-4.57a.762.762,0,1,1,0-1.523H77a.762.762,0,1,1,0,1.523Zm0-3.047h-4.57a.762.762,0,1,1,0-1.523H77a.762.762,0,1,1,0,1.523Zm0-3.047H64.809a.762.762,0,0,1,0-1.523H77a.762.762,0,0,1,0,1.523Zm0-3.047H64.809a.762.762,0,0,1,0-1.523H77a.762.762,0,0,1,0,1.523Z" fill="#fff"/>
    </g>
  </g>
</svg>
