<svg xmlns="http://www.w3.org/2000/svg" width="54.468" height="52.042" viewBox="0 0 54.468 52.042">
  <g id="medicine" transform="translate(8.807 -4.746)">
    <path id="Path_2157" data-name="Path 2157" d="M52.721,7.518A9.464,9.464,0,1,0,39.336,20.9l8.62,8.62L61.341,16.139Z" transform="translate(-27.073 0)" fill="#2aa2e0"/>
    <path id="Path_2158" data-name="Path 2158" d="M50.744,17.6a.706.706,0,0,1-.5-1.205,5.414,5.414,0,0,1,7.648,0,.706.706,0,1,1-1,1,4,4,0,0,0-5.652,0,.7.7,0,0,1-.5.207Z" transform="translate(-35.113 -6.005)" fill="#b4d2d7"/>
    <path id="Path_2159" data-name="Path 2159" d="M86.818,41.616,78.2,32.995,64.813,46.379,73.434,55A9.464,9.464,0,0,0,86.818,41.616Z" transform="translate(-43.929 -16.856)" fill="#fcd86e"/>
    <circle id="Ellipse_204" data-name="Ellipse 204" cx="11.229" cy="11.229" r="11.229" transform="translate(-8.807 44.816) rotate(-57.788)" fill="#fb4f3d"/>
    <path id="Path_2160" data-name="Path 2160" d="M16.738,92.787a.706.706,0,0,1-.5-1.205l9.528-9.528a.706.706,0,1,1,1,1L17.237,92.58a.7.7,0,0,1-.5.207Z" transform="translate(-14.821 -46.007)" fill="#f79595"/>
  </g>
</svg>
