<svg xmlns="http://www.w3.org/2000/svg" width="55.002" height="55.001" viewBox="0 0 55.002 55.001">
  <g id="pill" transform="translate(0 0)">
    <path id="Path_2173" data-name="Path 2173" d="M308.824,143.611a8.891,8.891,0,0,1-12.574,0l-8.961-9.06,1.581-10.993,10.993-1.581,8.961,9.06A8.891,8.891,0,0,1,308.824,143.611Z" transform="translate(-256.427 -108.873)" fill="#fb4f3d"/>
    <path id="Path_2174" data-name="Path 2174" d="M177.595,25.678,167,15.179A8.891,8.891,0,0,1,179.571,2.6l10.6,10.5Z" transform="translate(-146.733 0)" fill="#79c9a6"/>
    <path id="Path_2175" data-name="Path 2175" d="M249.556,27.406h0l-10.6-10.5q-.091-.091-.184-.179c-3.844-3.632,1.274-9.566,5.343-6.188q.325.269.632.576l10.6,10.5h0l-5.791,5.791Z" transform="translate(-211.911 -8.511)" opacity="0.146"/>
    <path id="Path_2176" data-name="Path 2176" d="M365.186,131.037a8.89,8.89,0,0,1-3.6,14.762,8.888,8.888,0,0,0-2.188-8.972l-8.961-9.06,5.791-5.791h0Z" transform="translate(-312.789 -108.873)" opacity="0.147"/>
    <path id="Path_2177" data-name="Path 2177" d="M2.6,308.824a8.891,8.891,0,0,1,0-12.574l9.06-8.961,10.993,1.581,1.581,10.993-5.1,5.041-3.964,3.921A8.891,8.891,0,0,1,2.6,308.824Z" transform="translate(0 -256.427)" fill="#fcd86e"/>
    <path id="Path_2178" data-name="Path 2178" d="M108.582,177.594l10.5-10.6a8.891,8.891,0,0,1,12.574,12.574l-10.5,10.6Z" transform="translate(-96.918 -146.731)" fill="#2aa2e0"/>
    <path id="Path_2179" data-name="Path 2179" d="M171.726,187.831h0l10.5-10.6a8.888,8.888,0,0,0,2.188-8.972,8.89,8.89,0,0,1,3.6,14.763l-10.5,10.6h0l-5.791-5.791Z" transform="translate(-153.279 -150.185)" fill="#096b92"/>
    <path id="Path_2180" data-name="Path 2180" d="M18.632,365.186a8.89,8.89,0,0,1-14.762-3.6,8.888,8.888,0,0,0,8.972-2.188l9.06-8.961,5.791,5.791h0Z" transform="translate(-3.455 -312.788)" fill="#e2b73b"/>
  </g>
</svg>
