<svg id="pills" xmlns="http://www.w3.org/2000/svg" width="50.08" height="50.08" viewBox="0 0 50.08 50.08">
  <path id="Path_2181" data-name="Path 2181" d="M139.5,218v28.114a14.057,14.057,0,0,0,0-28.114Z" transform="translate(-125.443 -196.033)" fill="#242548"/>
  <path id="Path_2182" data-name="Path 2182" d="M25.091,232.057c0-7.763-4.94-14.057-11.034-14.057a14.057,14.057,0,1,0,0,28.114C20.151,246.114,25.091,239.82,25.091,232.057Z" transform="translate(0 -196.033)" fill="#484b89"/>
  <path id="Path_2183" data-name="Path 2183" d="M207.023,342.5H204v3.023h3.023a1.511,1.511,0,0,0,0-3.023Z" transform="translate(-183.444 -307.988)" fill="#fff"/>
  <path id="Path_2184" data-name="Path 2184" d="M49.045,344.011a1.512,1.512,0,0,0-1.511-1.511H31.511a1.511,1.511,0,1,0,0,3.023H47.533A1.512,1.512,0,0,0,49.045,344.011Z" transform="translate(-26.977 -307.988)" fill="#f4f4f4"/>
  <path id="Path_2185" data-name="Path 2185" d="M357.5,0V28.114A14.057,14.057,0,1,0,357.5,0Z" transform="translate(-321.476)" fill="#64ad8d"/>
  <path id="Path_2186" data-name="Path 2186" d="M243.091,14.057C243.091,6.293,238.151,0,232.057,0a14.057,14.057,0,0,0,0,28.114C238.151,28.114,243.091,21.82,243.091,14.057Z" transform="translate(-196.033)" fill="#79c9a6"/>
  <path id="Path_2187" data-name="Path 2187" d="M425.023,124.5H422v3.023h3.023a1.511,1.511,0,0,0,0-3.023Z" transform="translate(-379.477 -111.955)" fill="#fff"/>
  <path id="Path_2188" data-name="Path 2188" d="M267.045,126.011a1.512,1.512,0,0,0-1.511-1.511H249.511a1.511,1.511,0,0,0,0,3.023h16.022A1.512,1.512,0,0,0,267.045,126.011Z" transform="translate(-223.01 -111.955)" fill="#f4f4f4"/>
</svg>
