<svg id="_030---Give-Solution" data-name="030---Give-Solution" xmlns="http://www.w3.org/2000/svg" width="59" height="59" viewBox="0 0 59 59">
  <path id="Shape" d="M42,34v3a4,4,0,0,1-8,0V34Z" fill="#7f8c8d"/>
  <path id="Shape-2" data-name="Shape" d="M56.68,45.57,37.94,56.98A7,7,0,0,1,34.3,58H8.73L9,36h2.76a8.966,8.966,0,0,1,5.63,2,8.938,8.938,0,0,0,5.62,2h5.16c3.754,0,6.39,4.343,3.78,7a18.162,18.162,0,0,0,3.44-.08c.313-.055-.653.222,19-6.3a2.752,2.752,0,0,1,3.06.96v.01a2.75,2.75,0,0,1-.77,3.98Z" fill="#f9c795"/>
  <path id="Shape-3" data-name="Shape" d="M57.81,42.25a2.774,2.774,0,0,1-1.13,1.32L37.94,54.98A7,7,0,0,1,34.3,56H8.75L9,36h2.76a8.966,8.966,0,0,1,5.63,2,8.938,8.938,0,0,0,5.62,2h5.16a4.938,4.938,0,0,1,4.68,3.43.221.221,0,0,0,.05.2A3.643,3.643,0,0,1,31.95,47h2.66c.916,0-.337.3,19.78-6.38a2.752,2.752,0,0,1,3.06.96v.01a2.375,2.375,0,0,1,.36.66Z" fill="#fdd7ad"/>
  <path id="Shape-4" data-name="Shape" d="M25.72,45h7.23a3.6,3.6,0,0,1-1,2H25.72a7.924,7.924,0,0,0-4.44,1.34c-.837.561-.907.66-1.28.66a1,1,0,0,1-.56-1.83l.73-.49A10.023,10.023,0,0,1,25.72,45Z" fill="#f9c795"/>
  <path id="Shape-5" data-name="Shape" d="M50.99,13.4A13,13,0,0,1,45.9,24.33,9.551,9.551,0,0,0,42,31.89V34H34V31.89a9.5,9.5,0,0,0-3.85-7.53A13,13,0,1,1,50.99,13.4Z" fill="#e2be55"/>
  <path id="Shape-6" data-name="Shape" d="M47.993,13.4a14.781,14.781,0,0,1-3.915,10.93,10.671,10.671,0,0,0-3,7.56c0,.159.682.11-6.154.11a10.643,10.643,0,0,0-2.961-7.64A14.576,14.576,0,0,1,28,14C28,6.64,32.7.72,38.408,1.01c5.116.27,9.354,5.74,9.585,12.39Z" fill="#fcd86e"/>
  <path id="Shape-7" data-name="Shape" d="M44,34a2,2,0,0,1-2,2H34a2,2,0,0,1,0-4h8A2.006,2.006,0,0,1,44,34Z" fill="#95a5a5"/>
  <g id="Group_1851" data-name="Group 1851">
    <path id="Shape-8" data-name="Shape" d="M58,15H55a1,1,0,0,1,0-2h3a1,1,0,0,1,0,2Z" fill="#fcd86e"/>
    <path id="Shape-9" data-name="Shape" d="M51.6,3.8A1,1,0,0,1,51,2L53.4.2a1,1,0,1,1,1.2,1.6C51.984,3.761,52.042,3.8,51.6,3.8Z" fill="#fcd86e"/>
    <path id="Shape-10" data-name="Shape" d="M54,28c-.441,0-.383-.038-3-2a1,1,0,1,1,1.2-1.6l2.4,1.8A1,1,0,0,1,54,28Z" fill="#fcd86e"/>
    <path id="Shape-11" data-name="Shape" d="M21,15H18a1,1,0,0,1,0-2h3a1,1,0,0,1,0,2Z" fill="#fcd86e"/>
    <path id="Shape-12" data-name="Shape" d="M24.4,3.8c-.441,0-.382-.038-3-2A1,1,0,1,1,22.6.2L25,2a1,1,0,0,1-.6,1.8Z" fill="#fcd86e"/>
    <path id="Shape-13" data-name="Shape" d="M22,28a1,1,0,0,1-.6-1.8l2.4-1.8A1,1,0,0,1,25,26c-2.616,1.961-2.558,2-3,2Z" fill="#fcd86e"/>
  </g>
  <circle id="Oval" cx="1" cy="1" r="1" transform="translate(37 24)" fill="#fff"/>
  <path id="Shape-14" data-name="Shape" d="M38,22a1,1,0,0,1-1-1V19.922a2.006,2.006,0,0,1,1.717-1.973A5,5,0,1,0,33,13a1,1,0,1,1-2,0,7,7,0,1,1,8,6.929V21a1,1,0,0,1-1,1Z" fill="#fff"/>
  <path id="Shape-15" data-name="Shape" d="M9,36c0,22.9.114,21.345-.27,22A2,2,0,0,1,7,59H2a2.006,2.006,0,0,1-2-2V36a2.006,2.006,0,0,1,2-2H7A2.006,2.006,0,0,1,9,36Z" fill="#2aa2e0"/>
  <path id="Shape-16" data-name="Shape" d="M7,36c0,22.886.064,21.342-.15,22-.194.6-.55,1-.961,1H3.111C2.5,59,2,58.1,2,57V36c0-1.1.5-2,1.111-2H5.889C6.5,34,7,34.9,7,36Z" opacity="0.2"/>
</svg>
