<svg xmlns="http://www.w3.org/2000/svg" width="49.299" height="86.091" viewBox="0 0 49.299 86.091">
  <g id="bottle-1" transform="translate(-819.059 -115.156)">
    <g id="Group_1837" data-name="Group 1837" transform="translate(819.538 154.801)">
      <g id="Group_1688" data-name="Group 1688" transform="translate(35.198 0)">
        <rect id="Rectangle_228" data-name="Rectangle 228" width="14.482" height="5.116" transform="translate(3.74 0) rotate(46.978)" fill="#285470"/>
        <g id="Group_1687" data-name="Group 1687" transform="translate(0.381 0.409)">
          <rect id="Rectangle_229" data-name="Rectangle 229" width="0.683" height="5.116" transform="matrix(0.682, 0.731, -0.731, 0.682, 3.741, 0)" fill="#306f91"/>
          <rect id="Rectangle_230" data-name="Rectangle 230" width="0.683" height="5.116" transform="matrix(0.682, 0.731, -0.731, 0.682, 4.717, 1.047)" fill="#306f91"/>
          <rect id="Rectangle_231" data-name="Rectangle 231" width="0.683" height="5.116" transform="translate(5.694 2.093) rotate(46.977)" fill="#306f91"/>
          <rect id="Rectangle_232" data-name="Rectangle 232" width="0.683" height="5.116" transform="translate(6.671 3.14) rotate(46.977)" fill="#306f91"/>
          <rect id="Rectangle_233" data-name="Rectangle 233" width="0.683" height="5.116" transform="matrix(0.682, 0.731, -0.731, 0.682, 7.647, 4.186)" fill="#306f91"/>
          <rect id="Rectangle_234" data-name="Rectangle 234" width="0.683" height="5.116" transform="translate(8.624 5.233) rotate(46.977)" fill="#306f91"/>
          <rect id="Rectangle_235" data-name="Rectangle 235" width="0.683" height="5.116" transform="translate(9.601 6.279) rotate(46.98)" fill="#306f91"/>
          <rect id="Rectangle_236" data-name="Rectangle 236" width="0.683" height="5.116" transform="translate(10.577 7.326) rotate(46.977)" fill="#306f91"/>
          <rect id="Rectangle_237" data-name="Rectangle 237" width="0.683" height="5.116" transform="translate(11.554 8.372) rotate(46.98)" fill="#306f91"/>
          <rect id="Rectangle_238" data-name="Rectangle 238" width="0.683" height="5.116" transform="translate(12.531 9.419) rotate(46.977)" fill="#306f91"/>
        </g>
      </g>
      <path id="Path_2371" data-name="Path 2371" d="M426.6,236.756l-33.36,30.958a5.867,5.867,0,0,0,7.981,8.6l33.361-30.958Z" transform="translate(-391.368 -231.435)" fill="#efefef"/>
      <path id="Path_2372" data-name="Path 2372" d="M420.131,254.966,396.248,277.13a4.267,4.267,0,0,0,5.8,6.255l23.883-22.164Z" transform="translate(-393.009 -239.933)" fill="#2aa2e0"/>
      <rect id="Rectangle_239" data-name="Rectangle 239" width="14.534" height="2.133" transform="translate(35.326 3.327) rotate(47.138)" fill="#e8e8e8"/>
      <path id="Path_2373" data-name="Path 2373" d="M398.956,297.45a4.266,4.266,0,0,1,.225-6.03l-2.932,2.721a4.267,4.267,0,0,0,5.8,6.255l2.932-2.721A4.267,4.267,0,0,1,398.956,297.45Z" transform="translate(-393.009 -256.945)" opacity="0.099"/>
    </g>
    <g id="Group_1836" data-name="Group 1836" transform="translate(819.059 115.156)">
      <g id="Group_1702" data-name="Group 1702" transform="translate(0 0)">
        <rect id="Rectangle_262" data-name="Rectangle 262" width="14.482" height="5.116" transform="translate(0 4.777) rotate(-19.261)" fill="#285470"/>
        <g id="Group_1701" data-name="Group 1701" transform="translate(0.528 0.118)">
          <rect id="Rectangle_263" data-name="Rectangle 263" width="0.683" height="5.116" transform="matrix(0.944, -0.33, 0.33, 0.944, 0, 4.475)" fill="#306f91"/>
          <rect id="Rectangle_264" data-name="Rectangle 264" width="0.683" height="5.116" transform="matrix(0.944, -0.33, 0.33, 0.944, 1.351, 4.003)" fill="#306f91"/>
          <rect id="Rectangle_265" data-name="Rectangle 265" width="0.683" height="5.116" transform="translate(2.703 3.531) rotate(-19.262)" fill="#306f91"/>
          <rect id="Rectangle_266" data-name="Rectangle 266" width="0.683" height="5.116" transform="matrix(0.944, -0.33, 0.33, 0.944, 4.054, 3.059)" fill="#306f91"/>
          <rect id="Rectangle_267" data-name="Rectangle 267" width="0.683" height="5.116" transform="matrix(0.944, -0.33, 0.33, 0.944, 5.405, 2.586)" fill="#306f91"/>
          <rect id="Rectangle_268" data-name="Rectangle 268" width="0.683" height="5.116" transform="matrix(0.944, -0.33, 0.33, 0.944, 6.757, 2.114)" fill="#306f91"/>
          <rect id="Rectangle_269" data-name="Rectangle 269" width="0.683" height="5.116" transform="translate(8.108 1.642) rotate(-19.262)" fill="#306f91"/>
          <rect id="Rectangle_270" data-name="Rectangle 270" width="0.683" height="5.116" transform="matrix(0.944, -0.33, 0.33, 0.944, 9.459, 1.17)" fill="#306f91"/>
          <rect id="Rectangle_271" data-name="Rectangle 271" width="0.683" height="5.116" transform="translate(10.811 0.698) rotate(-19.26)" fill="#306f91"/>
          <rect id="Rectangle_272" data-name="Rectangle 272" width="0.683" height="5.116" transform="matrix(0.944, -0.33, 0.33, 0.944, 12.162, 0.225)" fill="#306f91"/>
        </g>
      </g>
      <path id="Path_2397" data-name="Path 2397" d="M396.8,168.419l14.893,43.007a5.867,5.867,0,0,0,11.087-3.84l-14.893-43.007Z" transform="translate(-393.423 -158.109)" fill="#efefef"/>
      <path id="Path_2398" data-name="Path 2398" d="M407.338,190.6,418,221.384a4.267,4.267,0,0,0,8.064-2.792L415.4,187.8Z" transform="translate(-398.34 -168.947)" fill="#79c9a6"/>
      <rect id="Rectangle_273" data-name="Rectangle 273" width="14.534" height="2.133" transform="translate(1.589 9.424) rotate(-19.101)" fill="#e8e8e8"/>
      <path id="Path_2399" data-name="Path 2399" d="M430.3,243.871a4.267,4.267,0,0,1-5.428-2.636l1.309,3.78a4.267,4.267,0,0,0,8.064-2.792l-1.309-3.78A4.267,4.267,0,0,1,430.3,243.871Z" transform="translate(-406.524 -192.578)" opacity="0.1"/>
    </g>
  </g>
</svg>
