<svg xmlns="http://www.w3.org/2000/svg" width="259.59" height="140.892" viewBox="0 0 259.59 140.892">
  <g id="Group_2073" data-name="Group 2073" transform="translate(-29.857 -63.274)">
    <g id="Group_1358" data-name="Group 1358" transform="translate(30.357 63.274)">
      <path id="Path_1552" data-name="Path 1552" d="M65.417,192.862s-22.125-13.477-28.858-34.7-4.329-57.739,32.947-67.739,53.148,28.73,53.148,28.73S120.255,107.679,133,108.6c0,0-11.783-27.7,20.836-41.164,34.954-14.429,56.944,11.193,63.5,37.943,0,0,53.456-22.594,54.418,23.842,0,0,12.986-6.087,18.037,9.593S278.01,194.9,274.4,196.82,65.417,192.862,65.417,192.862Z" transform="translate(-32.387 -63.274)" fill="#f4f4f4"/>
      <g id="Group_1357" data-name="Group 1357" transform="translate(0 6.905)">
        <g id="Group_1342" data-name="Group 1342" transform="translate(9.215 47.918)">
          <circle id="Ellipse_5" data-name="Ellipse 5" cx="5.324" cy="5.324" r="5.324" transform="translate(0 8.818) rotate(-55.901)" fill="none" stroke="silver" stroke-miterlimit="10" stroke-width="1"/>
          <path id="Path_1553" data-name="Path 1553" d="M70.567,218.923l-8.509,6.228a5.348,5.348,0,0,0,1.095,1.408l8.34-6.344A5.33,5.33,0,0,0,70.567,218.923Z" transform="translate(-59.357 -215.24)" fill="none" stroke="silver" stroke-miterlimit="10" stroke-width="1"/>
        </g>
        <g id="Group_1343" data-name="Group 1343" transform="translate(167.77 3.824)">
          <circle id="Ellipse_6" data-name="Ellipse 6" cx="4.461" cy="4.461" r="4.461" transform="matrix(0.16, -0.987, 0.987, 0.16, 0, 8.808)" fill="none" stroke="silver" stroke-miterlimit="10" stroke-width="1"/>
          <path id="Path_1554" data-name="Path 1554" d="M486.972,97.157l-7.129,5.218a4.477,4.477,0,0,0,.918,1.18l6.988-5.315A4.46,4.46,0,0,0,486.972,97.157Z" transform="translate(-478.659 -95.151)" fill="none" stroke="silver" stroke-miterlimit="10" stroke-width="1"/>
        </g>
        <g id="Group_1344" data-name="Group 1344" transform="translate(249.422 91.092)">
          <circle id="Ellipse_7" data-name="Ellipse 7" cx="3.875" cy="3.875" r="3.875" fill="none" stroke="silver" stroke-miterlimit="10" stroke-width="1"/>
          <path id="Path_1555" data-name="Path 1555" d="M701.336,327.108l-6.192,4.532a3.884,3.884,0,0,0,.8,1.025l6.069-4.616A3.892,3.892,0,0,0,701.336,327.108Z" transform="translate(-694.684 -325.934)" fill="none" stroke="silver" stroke-miterlimit="10" stroke-width="1"/>
        </g>
        <path id="Path_1556" data-name="Path 1556" d="M626.48,199.271h-2.943v-2.943a.824.824,0,0,0-1.647,0v2.943h-2.943a.824.824,0,0,0-.824.824h0a.824.824,0,0,0,.824.824h2.943v2.943a.824.824,0,1,0,1.647,0v-2.943h2.943a.824.824,0,0,0,.824-.824h0A.824.824,0,0,0,626.48,199.271Z" transform="translate(-397.192 -152.707)" fill="silver"/>
        <g id="Group_1347" data-name="Group 1347" transform="translate(99.047)">
          <g id="Group_1345" data-name="Group 1345">
            <rect id="Rectangle_32" data-name="Rectangle 32" width="19.655" height="13.708" rx="6.854" transform="translate(0 4.173)" fill="none" stroke="silver" stroke-miterlimit="10" stroke-width="1"/>
            <path id="Path_1557" data-name="Path 1557" d="M308.39,85.818a3.728,3.728,0,0,1,7.337,0h1.119a4.832,4.832,0,0,0-9.574,0Z" transform="translate(-302.231 -81.645)" fill="silver"/>
          </g>
          <g id="Group_1346" data-name="Group 1346" transform="translate(5.389 6.588)">
            <circle id="Ellipse_8" data-name="Ellipse 8" cx="3.687" cy="3.687" r="3.687" transform="translate(0 7.176) rotate(-76.66)" fill="#f4f4f4" stroke="silver" stroke-miterlimit="10" stroke-width="1"/>
            <path id="Path_1558" data-name="Path 1558" d="M318.132,106.873H316.7v-1.431a.4.4,0,1,0-.8,0v1.431h-1.431a.4.4,0,0,0-.4.4h0a.4.4,0,0,0,.4.4H315.9v1.431a.4.4,0,0,0,.8,0v-1.431h1.431a.4.4,0,0,0,.4-.4h0A.4.4,0,0,0,318.132,106.873Z" transform="translate(-311.861 -102.835)" fill="silver"/>
          </g>
        </g>
        <g id="Group_1350" data-name="Group 1350" transform="translate(222.649 64.766)">
          <g id="Group_1348" data-name="Group 1348">
            <rect id="Rectangle_33" data-name="Rectangle 33" width="19.655" height="13.708" rx="6.854" transform="translate(0 4.173)" fill="none" stroke="silver" stroke-miterlimit="10" stroke-width="1"/>
            <path id="Path_1559" data-name="Path 1559" d="M637.222,258.123a3.728,3.728,0,0,1,7.337,0h1.119a4.832,4.832,0,0,0-9.574,0Z" transform="translate(-631.063 -253.95)" fill="silver"/>
          </g>
          <g id="Group_1349" data-name="Group 1349" transform="translate(6.14 7.339)">
            <circle id="Ellipse_9" data-name="Ellipse 9" cx="3.688" cy="3.688" r="3.688" fill="#f4f4f4" stroke="silver" stroke-miterlimit="10" stroke-width="1"/>
            <path id="Path_1560" data-name="Path 1560" d="M646.964,279.178h-1.431v-1.431a.4.4,0,0,0-.8,0v1.431H643.3a.4.4,0,0,0-.4.4h0a.4.4,0,0,0,.4.4h1.431v1.431a.4.4,0,0,0,.8,0V279.98h1.431a.4.4,0,0,0,.4-.4h0A.4.4,0,0,0,646.964,279.178Z" transform="translate(-641.445 -275.891)" fill="silver"/>
          </g>
        </g>
        <path id="Path_1561" data-name="Path 1561" d="M272.562,244.862h-2.68v-2.68a.75.75,0,1,0-1.5,0v2.68H265.7a.75.75,0,0,0-.75.75h0a.75.75,0,0,0,.75.75h2.68v2.68a.75.75,0,1,0,1.5,0v-2.68h2.68a.75.75,0,0,0,.75-.75h0A.75.75,0,0,0,272.562,244.862Z" transform="translate(-176.772 -181.371)" fill="silver"/>
        <path id="Path_1562" data-name="Path 1562" d="M114.775,153.476h-1.964v-1.965a.55.55,0,0,0-1.1,0v1.965h-1.964a.55.55,0,0,0-.55.55h0a.55.55,0,0,0,.55.55h1.964v1.965a.55.55,0,0,0,1.1,0v-1.965h1.964a.55.55,0,0,0,.55-.55h0A.55.55,0,0,0,114.775,153.476Z" transform="translate(-79.562 -124.906)" fill="silver"/>
        <path id="Path_1563" data-name="Path 1563" d="M128.234,230.248h-2.445V227.8a.685.685,0,0,0-1.369,0v2.445h-2.445a.685.685,0,0,0-.684.685h0a.684.684,0,0,0,.684.684h2.445v2.445a.685.685,0,1,0,1.369,0v-2.445h2.445a.685.685,0,0,0,.685-.684h0A.685.685,0,0,0,128.234,230.248Z" transform="translate(-87.109 -172.437)" fill="silver"/>
        <path id="Path_1564" data-name="Path 1564" d="M421.058,113.331h-2.011V111.32a.563.563,0,0,0-1.126,0v2.011H415.91a.563.563,0,0,0-.563.563h0a.563.563,0,0,0,.563.563h2.011v2.011a.563.563,0,1,0,1.126,0v-2.011h2.011a.563.563,0,0,0,.563-.563h0A.563.563,0,0,0,421.058,113.331Z" transform="translate(-270.636 -99.814)" fill="silver"/>
        <path id="Path_1565" data-name="Path 1565" d="M451.864,217.764s-10.312-7.677-7.161-11.454,7.6,1.708,7.6,1.708,2.412-4.22,5.756-2.278C463.013,208.614,451.864,217.764,451.864,217.764Z" transform="translate(-288.584 -158.622)" fill="none" stroke="silver" stroke-miterlimit="10" stroke-width="1"/>
        <g id="Group_1353" data-name="Group 1353" transform="translate(101.831 40.658)">
          <g id="Group_1351" data-name="Group 1351" transform="translate(0.998 1.225)">
            <path id="Path_1566" data-name="Path 1566" d="M312.183,201.331h0a2.219,2.219,0,0,1-3.139,0l-4.47-4.47a2.22,2.22,0,0,1,0-3.139h0a2.219,2.219,0,0,1,3.139,0l4.47,4.47A2.22,2.22,0,0,1,312.183,201.331Z" transform="translate(-303.924 -193.071)" fill="#f4f4f4" stroke="silver" stroke-miterlimit="10" stroke-width="1"/>
            <path id="Path_1567" data-name="Path 1567" d="M311.6,203.886l2.317,2.317a2.1,2.1,0,0,0,2.976,0l.163-.163a2.1,2.1,0,0,0,0-2.976l-2.317-2.317Z" transform="translate(-308.714 -197.862)" fill="silver"/>
          </g>
          <g id="Group_1352" data-name="Group 1352">
            <path id="Path_1568" data-name="Path 1568" d="M303.488,200.575h0a2.22,2.22,0,0,1-2.22-2.22v-6.322a2.22,2.22,0,0,1,2.22-2.22h0a2.22,2.22,0,0,1,2.22,2.22v6.322A2.22,2.22,0,0,1,303.488,200.575Z" transform="translate(-301.268 -189.813)" fill="#f4f4f4" stroke="silver" stroke-miterlimit="10" stroke-width="1"/>
            <path id="Path_1569" data-name="Path 1569" d="M301.268,204.128V207.4a2.1,2.1,0,0,0,2.1,2.1h.231a2.1,2.1,0,0,0,2.1-2.1v-3.276Z" transform="translate(-301.268 -198.747)" fill="silver"/>
          </g>
        </g>
        <g id="Group_1356" data-name="Group 1356" transform="translate(0 75.014)">
          <g id="Group_1354" data-name="Group 1354" transform="translate(1.423 2.211)">
            <path id="Path_1570" data-name="Path 1570" d="M43.1,293.727h0a2.127,2.127,0,0,1-2.946.606L35.1,291a2.127,2.127,0,0,1-.606-2.947h0a2.127,2.127,0,0,1,2.947-.606L42.5,290.78A2.127,2.127,0,0,1,43.1,293.727Z" transform="translate(-34.144 -287.096)" fill="#f4f4f4" stroke="silver" stroke-miterlimit="10" stroke-width="1"/>
            <path id="Path_1571" data-name="Path 1571" d="M43.417,296.016l2.621,1.728a2.017,2.017,0,0,0,2.794-.574l.121-.185a2.017,2.017,0,0,0-.574-2.793l-2.621-1.727Z" transform="translate(-39.931 -290.446)" fill="silver"/>
          </g>
          <g id="Group_1355" data-name="Group 1355">
            <path id="Path_1572" data-name="Path 1572" d="M32.484,291.524h0a2.127,2.127,0,0,1-2.127-2.127V283.34a2.127,2.127,0,0,1,2.127-2.127h0a2.127,2.127,0,0,1,2.127,2.127V289.4A2.127,2.127,0,0,1,32.484,291.524Z" transform="translate(-30.357 -281.213)" fill="#f4f4f4" stroke="silver" stroke-miterlimit="10" stroke-width="1"/>
            <path id="Path_1573" data-name="Path 1573" d="M30.357,294.928v3.139a2.017,2.017,0,0,0,2.017,2.016h.221a2.016,2.016,0,0,0,2.016-2.016v-3.139Z" transform="translate(-30.357 -289.773)" fill="silver"/>
          </g>
        </g>
      </g>
    </g>
    <g id="Group_1432" data-name="Group 1432" transform="translate(34.529 86.856)">
      <line id="Line_10" data-name="Line 10" x2="254.919" transform="translate(0 110.07)" fill="none" stroke="#262433" stroke-miterlimit="10" stroke-width="0.25"/>
      <g id="Group_1431" data-name="Group 1431" transform="translate(8.775)">
        <g id="Group_1379" data-name="Group 1379" transform="translate(0 7.242)">
          <g id="Group_1359" data-name="Group 1359" transform="translate(0 33.987)">
            <path id="Path_1574" data-name="Path 1574" d="M88.8,304.538c1.684-19.987,5.962-59.505,14.031-68.84,0,0-24.836,9.976-33.975,44.766-2.875,10.944-3.94,18.649-4.051,24.074Z" transform="translate(-64.801 -235.698)" fill="#fff" stroke="#262433" stroke-miterlimit="10" stroke-width="1"/>
            <path id="Path_1575" data-name="Path 1575" d="M242.231,304.538c-.111-5.424-1.177-13.13-4.051-24.074-9.139-34.791-33.975-44.766-33.975-44.766,8.068,9.335,12.347,48.853,14.031,68.84Z" transform="translate(-151.805 -235.698)" fill="#fff" stroke="#262433" stroke-miterlimit="10" stroke-width="1"/>
          </g>
          <g id="Group_1364" data-name="Group 1364" transform="translate(15.693 31.826)">
            <path id="Path_1576" data-name="Path 1576" d="M166.072,300.95q.017-1.141.018-2.291c0-37.948-13.329-68.71-29.77-68.71s-29.77,30.763-29.77,68.71q0,1.151.018,2.291Z" transform="translate(-106.55 -229.948)" fill="#2aa2e0" stroke="#262433" stroke-miterlimit="10" stroke-width="1"/>
            <g id="Group_1363" data-name="Group 1363" transform="translate(0 4.84)">
              <g id="Group_1361" data-name="Group 1361" transform="translate(0 0.062)">
                <path id="Path_1577" data-name="Path 1577" d="M125.26,242.989c-10.965,10.133-18.71,34.882-18.71,63.808q0,1.151.018,2.291h18.358Z" transform="translate(-106.55 -242.989)" fill="#fff" stroke="#262433" stroke-miterlimit="10" stroke-width="1"/>
                <g id="Group_1360" data-name="Group 1360" transform="translate(8.479)">
                  <path id="Path_1578" data-name="Path 1578" d="M139.339,242.989a29.131,29.131,0,0,0-2.247,2.335l-7.983,23.417,4.81,1.042.992,39.3h4.1Z" transform="translate(-129.108 -242.989)" fill="#f4f4f4" stroke="#262433" stroke-miterlimit="10" stroke-width="1"/>
                </g>
              </g>
              <g id="Group_1362" data-name="Group 1362" transform="translate(40.765)">
                <path id="Path_1579" data-name="Path 1579" d="M219.179,310.7h16.344q.017-1.141.018-2.291c0-28.041-7.279-52.156-17.713-62.837Z" transform="translate(-216.765 -244.541)" fill="#fff" stroke="#262433" stroke-miterlimit="10" stroke-width="1"/>
                <path id="Path_1580" data-name="Path 1580" d="M215,242.825v66.161h4.189l.992-39.3,4.81-1.042-8.175-23.981C216.221,244,215.617,243.39,215,242.825Z" transform="translate(-215.001 -242.825)" fill="#f4f4f4" stroke="#262433" stroke-miterlimit="10" stroke-width="1"/>
              </g>
            </g>
          </g>
          <g id="Group_1370" data-name="Group 1370" transform="translate(26.908 30.447)">
            <path id="Path_1581" data-name="Path 1581" d="M174.276,245.61c-1.242-10.972-7.665-19.33-15.4-19.33-8.626,0-15.618,10.391-15.618,23.208q0,.5.014,1" transform="translate(-140.675 -226.279)" fill="none" stroke="#262433" stroke-miterlimit="10" stroke-width="0.5"/>
            <g id="Group_1365" data-name="Group 1365" transform="translate(0 23.846)">
              <ellipse id="Ellipse_10" data-name="Ellipse 10" cx="3.263" cy="3.223" rx="3.263" ry="3.223" fill="silver" stroke="#262433" stroke-miterlimit="10" stroke-width="1"/>
              <path id="Path_1582" data-name="Path 1582" d="M140.389,295.408a1.759,1.759,0,1,0,1.759-1.737A1.748,1.748,0,0,0,140.389,295.408Z" transform="translate(-138.885 -292.185)" fill="#f4f4f4" stroke="#262433" stroke-miterlimit="10" stroke-width="1"/>
            </g>
            <g id="Group_1369" data-name="Group 1369" transform="translate(26.221 19.626)">
              <path id="Path_1583" data-name="Path 1583" d="M222.043,290.074a14.625,14.625,0,0,0,.3-2.292c.255-4.977-1.985-9.134-5-9.285s-5.674,3.761-5.929,8.739a14.3,14.3,0,0,0,.185,3.183" transform="translate(-209.417 -278.492)" fill="none" stroke="#262433" stroke-miterlimit="10" stroke-width="0.5"/>
              <g id="Group_1368" data-name="Group 1368" transform="translate(0 11.035)">
                <g id="Group_1366" data-name="Group 1366" transform="translate(1.97)">
                  <path id="Path_1584" data-name="Path 1584" d="M222.868,316.956s-2.463,2.848-6.307.475-4.88-6.941-5.173-9.582" transform="translate(-211.387 -307.848)" fill="none" stroke="#262433" stroke-miterlimit="10" stroke-width="1"/>
                  <path id="Path_1585" data-name="Path 1585" d="M240.581,329.626a.794.794,0,1,0,.794-.784A.789.789,0,0,0,240.581,329.626Z" transform="translate(-229.607 -320.951)" fill="#fff" stroke="#262433" stroke-miterlimit="10" stroke-width="1"/>
                </g>
                <g id="Group_1367" data-name="Group 1367" transform="translate(0 0.105)">
                  <path id="Path_1586" data-name="Path 1586" d="M209.007,317.088s2.426,2.879,6.3.555,4.971-6.878,5.3-9.515" transform="translate(-207.932 -308.128)" fill="none" stroke="#262433" stroke-miterlimit="10" stroke-width="1"/>
                  <path id="Path_1587" data-name="Path 1587" d="M207.734,329.514a.794.794,0,1,1-.784-.795A.789.789,0,0,1,207.734,329.514Z" transform="translate(-206.146 -320.98)" fill="#fff" stroke="#262433" stroke-miterlimit="10" stroke-width="1"/>
                </g>
              </g>
            </g>
          </g>
          <g id="Group_1378" data-name="Group 1378" transform="translate(29.613)">
            <path id="Path_1588" data-name="Path 1588" d="M164.8,145.648s-11.352-3.3-17.765,9.793c-4.923,10.049-3.43,17.079-2.471,19.8a1.876,1.876,0,0,0,1.7,1.288l26.6.753a1.878,1.878,0,0,0,1.843-1.433C176.2,170.283,180.287,150.582,164.8,145.648Z" transform="translate(-143.583 -145.278)" fill="#262433"/>
            <g id="Group_1377" data-name="Group 1377" transform="translate(4.806 2.542)">
              <path id="Path_1589" data-name="Path 1589" d="M156.369,188.5a4.039,4.039,0,1,0,4.039-4.006A4.022,4.022,0,0,0,156.369,188.5Z" transform="translate(-156.369 -172.296)" fill="none" stroke="#262433" stroke-miterlimit="10" stroke-width="2"/>
              <path id="Path_1590" data-name="Path 1590" d="M176.727,162.082h-5.073c-3.372,0-6.132,3.142-6.132,6.982v7.864c0,.222.012.441.03.657a3.117,3.117,0,0,0-.087.72v4.322a3.075,3.075,0,0,0-.061.564l-.052,5.484a18.5,18.5,0,0,0-4.556,2.192l9.24,8.693,7.543-9.578a17.3,17.3,0,0,0-3.8-1.516,3.094,3.094,0,0,0,.017-.32v-4.237h2.933c3.373,0,6.132-3.142,6.132-6.982v-7.864C182.859,165.224,180.1,162.082,176.727,162.082Z" transform="translate(-159.131 -158.308)" fill="#f4f4f4" stroke="#262433" stroke-miterlimit="10" stroke-width="1"/>
              <g id="Group_1373" data-name="Group 1373" transform="translate(13.182 10.974)">
                <g id="Group_1371" data-name="Group 1371" transform="translate(0.394 1.207)">
                  <circle id="Ellipse_11" data-name="Ellipse 11" cx="1.144" cy="1.144" r="1.144" fill="#262433"/>
                  <path id="Path_1591" data-name="Path 1591" d="M212.4,185.425a.976.976,0,1,0,.976-.976A.976.976,0,0,0,212.4,185.425Z" transform="translate(-204.918 -184.449)" fill="#262433"/>
                </g>
                <line id="Line_11" data-name="Line 11" x1="0.037" y2="3.953" transform="translate(6.078 1.696)" fill="#262433" stroke="#262433" stroke-miterlimit="10" stroke-width="0.25"/>
                <g id="Group_1372" data-name="Group 1372">
                  <line id="Line_12" data-name="Line 12" y1="0.571" x2="1.453" fill="#262433" stroke="#262433" stroke-miterlimit="10" stroke-width="0.25"/>
                  <line id="Line_13" data-name="Line 13" y1="0.041" x2="1.561" transform="translate(8.076 0.265)" fill="#262433" stroke="#262433" stroke-miterlimit="10" stroke-width="0.25"/>
                </g>
              </g>
              <path id="Path_1592" data-name="Path 1592" d="M182.812,162.26a14.152,14.152,0,0,1-7.135-5.646s-2.412,6.352-10.341,9.924c-10.377,4.674-5.186-8.045-2.312-11.332S180.568,147.831,182.812,162.26Z" transform="translate(-158.108 -152.042)" fill="#262433"/>
              <g id="Group_1374" data-name="Group 1374" transform="translate(0 12.198)">
                <path id="Path_1593" data-name="Path 1593" d="M156.369,188.5a4.039,4.039,0,1,0,4.039-4.006A4.022,4.022,0,0,0,156.369,188.5Z" transform="translate(-156.369 -184.494)" fill="#f4f4f4"/>
                <path id="Path_1594" data-name="Path 1594" d="M168.582,192.5a2.2,2.2,0,0,0-2.617-2.418" transform="translate(-162.358 -187.969)" fill="none" stroke="#262433" stroke-miterlimit="10" stroke-width="0.275"/>
              </g>
              <g id="Group_1376" data-name="Group 1376" transform="translate(1.417 30.679)">
                <g id="Group_1375" data-name="Group 1375">
                  <path id="Path_1595" data-name="Path 1595" d="M160.138,235.7,170,246.153l8.531-10.692a18.921,18.921,0,0,0-3.529-1.8l-5.035,7.424-6.614-7.15A19.6,19.6,0,0,0,160.138,235.7Z" transform="translate(-160.138 -233.661)" fill="#e0f1f9" stroke="#262433" stroke-miterlimit="10" stroke-width="1"/>
                </g>
              </g>
            </g>
            <path id="Path_1596" data-name="Path 1596" d="M194.027,193.381c-3.427-1.971-4.93.183-8.6,1.283-2.308.692-3.458-.068-3.993-.726a.313.313,0,0,0-.558.147,33.411,33.411,0,0,0-.28,5.185c.038,1.66,3.044,2.813,5.55,3.783v-.109h2.933c3.373,0,6.132-3.142,6.132-6.982V194.1C194.879,193.887,194.491,193.648,194.027,193.381Z" transform="translate(-166.679 -174.801)" fill="#fff" stroke="#262433" stroke-miterlimit="10" stroke-width="1"/>
            <line id="Line_14" data-name="Line 14" x2="1.843" y2="2.462" transform="translate(12.476 16.444)" fill="none" stroke="#262433" stroke-miterlimit="10" stroke-width="0.25"/>
            <line id="Line_15" data-name="Line 15" y1="3.009" x2="2.775" transform="translate(11.212 20.616)" fill="none" stroke="#262433" stroke-miterlimit="10" stroke-width="0.25"/>
          </g>
        </g>
        <g id="Group_1405" data-name="Group 1405" transform="translate(138.038 3.568)">
          <g id="Group_1401" data-name="Group 1401">
            <g id="Group_1380" data-name="Group 1380" transform="translate(0 36.098)">
              <path id="Path_1597" data-name="Path 1597" d="M432.037,304.538c.111-5.424,1.177-13.13,4.051-24.074,9.138-34.791,33.975-44.766,33.975-44.766-8.068,9.335-12.347,48.853-14.031,68.84Z" transform="translate(-432.037 -234.134)" fill="#fff" stroke="#262433" stroke-miterlimit="10" stroke-width="1"/>
              <path id="Path_1598" data-name="Path 1598" d="M611.913,298.7c1.529-4.455,1.086-10.512-2.246-18.384-16.433-38.839-47.545-48.775-47.545-48.775l.884,49.857Z" transform="translate(-513.225 -231.538)" fill="#fff" stroke="#262433" stroke-miterlimit="10" stroke-width="1"/>
            </g>
            <g id="Group_1385" data-name="Group 1385" transform="translate(15.192 35.501)">
              <path id="Path_1599" data-name="Path 1599" d="M531.977,300.95q.017-1.141.018-2.291c0-37.948-13.329-68.71-29.77-68.71s-29.77,30.763-29.77,68.71q0,1.151.018,2.291Z" transform="translate(-472.455 -229.948)" fill="#2aa2e0" stroke="#262433" stroke-miterlimit="10" stroke-width="1"/>
              <g id="Group_1384" data-name="Group 1384" transform="translate(0 4.84)">
                <g id="Group_1382" data-name="Group 1382" transform="translate(40.83 0.062)">
                  <path id="Path_1600" data-name="Path 1600" d="M581.08,242.989c10.965,10.133,18.71,34.882,18.71,63.808q0,1.151-.018,2.291H581.413Z" transform="translate(-581.08 -242.989)" fill="#fff" stroke="#262433" stroke-miterlimit="10" stroke-width="1"/>
                  <g id="Group_1381" data-name="Group 1381">
                    <path id="Path_1601" data-name="Path 1601" d="M581.08,242.989a29.117,29.117,0,0,1,2.247,2.335l7.983,23.417-4.81,1.042-.992,39.3h-4.1Z" transform="translate(-581.08 -242.989)" fill="#f4f4f4" stroke="#262433" stroke-miterlimit="10" stroke-width="1"/>
                  </g>
                </g>
                <g id="Group_1383" data-name="Group 1383">
                  <path id="Path_1602" data-name="Path 1602" d="M488.817,310.7H472.473q-.017-1.141-.018-2.291c0-28.041,7.279-52.156,17.713-62.837Z" transform="translate(-472.455 -244.541)" fill="#fff" stroke="#262433" stroke-miterlimit="10" stroke-width="1"/>
                  <path id="Path_1603" data-name="Path 1603" d="M505.817,242.825v66.161h-4.189l-.992-39.3-4.81-1.042L504,244.658C504.6,244,505.2,243.39,505.817,242.825Z" transform="translate(-487.042 -242.825)" fill="#f4f4f4" stroke="#262433" stroke-miterlimit="10" stroke-width="1"/>
                </g>
              </g>
            </g>
            <g id="Group_1391" data-name="Group 1391" transform="translate(22.765 34.122)">
              <path id="Path_1604" data-name="Path 1604" d="M511.624,245.61c1.242-10.972,7.665-19.33,15.4-19.33,8.626,0,15.619,10.391,15.619,23.208q0,.5-.014,1" transform="translate(-504.473 -226.279)" fill="none" stroke="#262433" stroke-miterlimit="10" stroke-width="0.5"/>
              <g id="Group_1386" data-name="Group 1386" transform="translate(34.227 23.846)">
                <ellipse id="Ellipse_12" data-name="Ellipse 12" cx="3.263" cy="3.223" rx="3.263" ry="3.223" fill="silver" stroke="#262433" stroke-miterlimit="10" stroke-width="1"/>
                <ellipse id="Ellipse_13" data-name="Ellipse 13" cx="1.759" cy="1.737" rx="1.759" ry="1.737" transform="translate(1.504 1.486)" fill="#f4f4f4" stroke="#262433" stroke-miterlimit="10" stroke-width="1"/>
              </g>
              <g id="Group_1390" data-name="Group 1390" transform="translate(0 19.626)">
                <path id="Path_1605" data-name="Path 1605" d="M497.143,290.074a14.618,14.618,0,0,1-.3-2.292c-.255-4.977,1.986-9.134,5-9.285s5.674,3.761,5.929,8.739a14.323,14.323,0,0,1-.185,3.183" transform="translate(-495.237 -278.492)" fill="none" stroke="#262433" stroke-miterlimit="10" stroke-width="0.5"/>
                <g id="Group_1389" data-name="Group 1389" transform="translate(0 11.035)">
                  <g id="Group_1387" data-name="Group 1387">
                    <path id="Path_1606" data-name="Path 1606" d="M495.477,316.956s2.463,2.848,6.307.475,4.88-6.941,5.173-9.582" transform="translate(-494.396 -307.848)" fill="none" stroke="#262433" stroke-miterlimit="10" stroke-width="1"/>
                    <ellipse id="Ellipse_14" data-name="Ellipse 14" cx="0.794" cy="0.784" rx="0.794" ry="0.784" transform="translate(0 7.891)" fill="#fff" stroke="#262433" stroke-miterlimit="10" stroke-width="1"/>
                  </g>
                  <g id="Group_1388" data-name="Group 1388" transform="translate(1.857 0.105)">
                    <path id="Path_1607" data-name="Path 1607" d="M509.14,317.088s-2.426,2.879-6.3.555-4.971-6.878-5.3-9.515" transform="translate(-497.541 -308.128)" fill="none" stroke="#262433" stroke-miterlimit="10" stroke-width="1"/>
                    <path id="Path_1608" data-name="Path 1608" d="M527.035,329.514a.794.794,0,1,0,.784-.795A.789.789,0,0,0,527.035,329.514Z" transform="translate(-515.949 -320.98)" fill="#fff" stroke="#262433" stroke-miterlimit="10" stroke-width="1"/>
                  </g>
                </g>
              </g>
            </g>
            <g id="Group_1400" data-name="Group 1400" transform="translate(25.359)">
              <path id="Path_1609" data-name="Path 1609" d="M553.639,189.129s4.249-.08,4.97-1.844.4-6.092.4-6.092a8.227,8.227,0,0,0,4.008-1.784c1.684-1.5,2-6.473,0-8s-5.531.722-5.772,1.122S553.639,189.129,553.639,189.129Z" transform="translate(-533.29 -157.588)" fill="#262433"/>
              <g id="Group_1398" data-name="Group 1398">
                <path id="Path_1610" data-name="Path 1610" d="M567.625,188.5a4.039,4.039,0,1,1-4.039-4.006A4.022,4.022,0,0,1,567.625,188.5Z" transform="translate(-536.978 -166.079)" fill="none" stroke="#262433" stroke-miterlimit="10" stroke-width="2"/>
                <path id="Path_1611" data-name="Path 1611" d="M524.043,162.082h5.073c3.373,0,6.132,3.142,6.132,6.982v7.864c0,.222-.012.441-.029.657a3.134,3.134,0,0,1,.086.72v4.322a3.077,3.077,0,0,1,.061.564l.052,5.484a18.493,18.493,0,0,1,4.556,2.192l-9.24,8.693-7.543-9.578a17.29,17.29,0,0,1,3.8-1.516,3.1,3.1,0,0,1-.016-.32v-4.237h-2.934c-3.372,0-6.132-3.142-6.132-6.982v-7.864C517.911,165.224,520.671,162.082,524.043,162.082Z" transform="translate(-510.992 -152.091)" fill="#f4f4f4" stroke="#262433" stroke-miterlimit="10" stroke-width="1"/>
                <g id="Group_1394" data-name="Group 1394" transform="translate(7.632 16.426)">
                  <g id="Group_1392" data-name="Group 1392" transform="translate(0 1.973)">
                    <path id="Path_1612" data-name="Path 1612" d="M541.122,185.592a1.143,1.143,0,1,1-1.143-1.143A1.143,1.143,0,0,1,541.122,185.592Z" transform="translate(-531.683 -184.449)" fill="#262433"/>
                    <path id="Path_1613" data-name="Path 1613" d="M521.76,185.425a.976.976,0,1,1-.976-.976A.976.976,0,0,1,521.76,185.425Z" transform="translate(-519.808 -184.449)" fill="#262433"/>
                  </g>
                  <line id="Line_16" data-name="Line 16" x2="0.037" y2="3.953" transform="translate(3.718 2.462)" fill="#262433" stroke="#262433" stroke-miterlimit="10" stroke-width="0.25"/>
                  <g id="Group_1393" data-name="Group 1393" transform="translate(0.196)">
                    <line id="Line_17" data-name="Line 17" x1="1.527" y1="0.327" transform="translate(8.147)" fill="#262433" stroke="#262433" stroke-miterlimit="10" stroke-width="0.25"/>
                    <line id="Line_18" data-name="Line 18" x1="1.561" y1="0.041" transform="translate(0 1.031)" fill="#262433" stroke="#262433" stroke-miterlimit="10" stroke-width="0.25"/>
                  </g>
                </g>
                <path id="Path_1614" data-name="Path 1614" d="M525.158,156.187s-1.7,2.185-2.8-1.507c-.683-2.3-.413-2.727-2.818-2.543s-4.169-2.213-4.329-3.539-7.054,7.812-13.307,1.6,1.2-13.668,5.451-14.55,8.016,2.4,8.578,4.409c0,0,2.726-4.088,9.058-1.122s3.447,9.62,3.287,11.263S525.69,155.891,525.158,156.187Z" transform="translate(-499.503 -135.502)" fill="#262433"/>
                <g id="Group_1395" data-name="Group 1395" transform="translate(22.57 18.415)">
                  <path id="Path_1615" data-name="Path 1615" d="M567.625,188.5a4.039,4.039,0,1,1-4.039-4.006A4.022,4.022,0,0,1,567.625,188.5Z" transform="translate(-559.548 -184.494)" fill="#f4f4f4"/>
                  <path id="Path_1616" data-name="Path 1616" d="M564.477,192.5a2.2,2.2,0,0,1,2.616-2.418" transform="translate(-562.623 -187.969)" fill="none" stroke="#262433" stroke-miterlimit="10" stroke-width="0.275"/>
                </g>
                <g id="Group_1397" data-name="Group 1397" transform="translate(10.833 36.896)">
                  <g id="Group_1396" data-name="Group 1396">
                    <path id="Path_1617" data-name="Path 1617" d="M546.721,235.7l-9.867,10.453-8.531-10.692a18.944,18.944,0,0,1,3.529-1.8l5.035,7.424,6.614-7.15A19.6,19.6,0,0,1,546.721,235.7Z" transform="translate(-528.323 -233.661)" fill="#e0f1f9" stroke="#262433" stroke-miterlimit="10" stroke-width="1"/>
                  </g>
                </g>
              </g>
              <path id="Path_1618" data-name="Path 1618" d="M519.1,193.381c3.427-1.971,4.93.183,8.6,1.283,2.308.692,3.458-.068,3.993-.726a.313.313,0,0,1,.559.147,33.507,33.507,0,0,1,.28,5.185c-.038,1.66-3.044,2.813-5.55,3.783v-.109h-2.934c-3.372,0-6.132-3.142-6.132-6.982V194.1C518.245,193.887,518.633,193.648,519.1,193.381Z" transform="translate(-510.992 -171.126)" fill="#fff" stroke="#262433" stroke-miterlimit="10" stroke-width="1"/>
              <line id="Line_19" data-name="Line 19" x1="1.843" y2="2.462" transform="translate(21.135 20.118)" fill="none" stroke="#262433" stroke-miterlimit="10" stroke-width="0.25"/>
              <line id="Line_20" data-name="Line 20" x1="2.775" y1="3.009" transform="translate(21.467 24.291)" fill="none" stroke="#262433" stroke-miterlimit="10" stroke-width="0.25"/>
              <g id="Group_1399" data-name="Group 1399" transform="translate(3.283 14.43)">
                <ellipse id="Ellipse_15" data-name="Ellipse 15" cx="4.189" cy="4.931" rx="4.189" ry="4.931" transform="translate(9.137)" fill="none" stroke="#262433" stroke-miterlimit="10" stroke-width="0.25"/>
                <ellipse id="Ellipse_16" data-name="Ellipse 16" cx="3.654" cy="4.75" rx="3.654" ry="4.75" transform="translate(0 0)" fill="none" stroke="#262433" stroke-miterlimit="10" stroke-width="0.25"/>
                <path id="Path_1619" data-name="Path 1619" d="M527.678,187.292a2.083,2.083,0,0,1,1.858.171" transform="translate(-520.37 -182.162)" fill="none" stroke="#262433" stroke-miterlimit="10" stroke-width="0.25"/>
              </g>
            </g>
          </g>
          <g id="Group_1404" data-name="Group 1404" transform="translate(27.503 57.181)">
            <rect id="Rectangle_34" data-name="Rectangle 34" width="33.833" height="44.458" rx="14.602" transform="matrix(0.973, 0.23, -0.23, 0.973, 12.873, 0)" fill="#262433"/>
            <g id="Group_1403" data-name="Group 1403" transform="translate(0 15.788)">
              <path id="Path_1620" data-name="Path 1620" d="M527.518,353.186s-19.711-10.462-21.978-14.3,7.741,3.379,7.741,3.379-7.482-4.5-6.755-6.413,8.525,4.128,8.525,4.128-8.246-5.749-7.212-7.148,9,4.982,9,4.982-8.457-5.749-7.279-7.411,9.262,4.9,9.262,4.9-4.482-4.737-3.138-5.608,8.446,7.317,18.047,12.277S527.518,353.186,527.518,353.186Z" transform="translate(-505.205 -329.63)" fill="#f4f4f4" stroke="#262433" stroke-miterlimit="10" stroke-width="1"/>
              <g id="Group_1402" data-name="Group 1402" transform="translate(20 10.474)">
                <path id="Path_1621" data-name="Path 1621" d="M597.372,364.977c-19.4-4.169-30.511-7.483-30.511-7.483l-8.449,14.858c17.315,20.522,64.456,23.244,48.94-13.428Z" transform="translate(-558.413 -357.494)" fill="#fff"/>
                <path id="Path_1622" data-name="Path 1622" d="M607.353,358.924c15.516,36.672-31.624,33.949-48.94,13.428l8.449-14.858s11.432,3.635,30.511,7.483" transform="translate(-558.413 -357.494)" fill="none" stroke="#262433" stroke-miterlimit="10" stroke-width="1"/>
                <path id="Path_1623" data-name="Path 1623" d="M571.273,358.787c-2.679-.825-4.411-1.293-4.411-1.293l-8.449,14.858a35.263,35.263,0,0,0,4.154,4.137Z" transform="translate(-558.413 -357.494)" fill="#fff" stroke="#262433" stroke-miterlimit="10" stroke-width="1"/>
              </g>
            </g>
          </g>
        </g>
        <g id="Group_1430" data-name="Group 1430" transform="translate(62.853)">
          <g id="Group_1410" data-name="Group 1410" transform="translate(0 39.666)">
            <g id="Group_1407" data-name="Group 1407" transform="translate(60.53)">
              <path id="Path_1624" data-name="Path 1624" d="M447.075,295.211a29.657,29.657,0,0,1-8.523,13.037,62.883,62.883,0,0,1-5.072,4.216H407.049q.831-.35,1.657-.708,1.293-.562,2.572-1.155a92.9,92.9,0,0,0,13.486-7.723q1.65-1.16,3.219-2.43a34.568,34.568,0,0,0,4.87-5.1,19.562,19.562,0,0,0,1.57-2.868,14.182,14.182,0,0,0,.463-1.938,12.772,12.772,0,0,0-.064-1.609,16.739,16.739,0,0,0-.835-2.51,31.681,31.681,0,0,0-3.446-5.2A83.716,83.716,0,0,0,417.73,269.5c-1.16-.889-2.338-1.754-3.524-2.609-4.475-3.155-9.091-6.11-13.8-8.909l-.065-.038,9.131-9.553q7.034,4.323,13.721,9.166a110.577,110.577,0,0,1,12.3,10.13,70.4,70.4,0,0,1,5.852,6.472,32.642,32.642,0,0,1,5.364,9.415,23.6,23.6,0,0,1,.955,4.34,12.712,12.712,0,0,1,.086,2.861A21.178,21.178,0,0,1,447.075,295.211Z" transform="translate(-397.603 -242.06)" fill="#f4f4f4" stroke="#262433" stroke-miterlimit="10" stroke-width="1"/>
              <g id="Group_1406" data-name="Group 1406">
                <path id="Path_1625" data-name="Path 1625" d="M393.051,231.538s24.041,4.064,44.563,27.041L422.7,273.058l-17.476-9.88Z" transform="translate(-393.051 -231.538)" fill="#2aa2e0" stroke="#262433" stroke-miterlimit="10" stroke-width="1"/>
                <path id="Path_1626" data-name="Path 1626" d="M476.359,294.618q1.573,1.6,3.127,3.33l-14.91,14.479-4.435-2.508Z" transform="translate(-434.923 -270.907)" fill="#e0f1f9" stroke="#262433" stroke-miterlimit="10" stroke-width="1"/>
              </g>
            </g>
            <g id="Group_1409" data-name="Group 1409">
              <path id="Path_1627" data-name="Path 1627" d="M232.742,295.211a29.651,29.651,0,0,0,8.523,13.037,62.942,62.942,0,0,0,5.072,4.216h26.431q-.83-.35-1.657-.708-1.293-.562-2.572-1.155a92.917,92.917,0,0,1-13.486-7.723q-1.65-1.16-3.219-2.43a34.572,34.572,0,0,1-4.87-5.1,19.525,19.525,0,0,1-1.57-2.868,14.184,14.184,0,0,1-.463-1.938,12.775,12.775,0,0,1,.064-1.609,16.739,16.739,0,0,1,.835-2.51,31.636,31.636,0,0,1,3.446-5.2A83.712,83.712,0,0,1,262.087,269.5c1.16-.889,2.338-1.754,3.523-2.609,4.475-3.155,9.091-6.11,13.8-8.909l.064-.038-9.131-9.553q-7.034,4.323-13.721,9.166a110.543,110.543,0,0,0-12.3,10.13,70.347,70.347,0,0,0-5.852,6.472,32.632,32.632,0,0,0-5.364,9.415,23.629,23.629,0,0,0-.955,4.34,12.714,12.714,0,0,0-.086,2.861A21.18,21.18,0,0,0,232.742,295.211Z" transform="translate(-232.017 -242.06)" fill="#f4f4f4" stroke="#262433" stroke-miterlimit="10" stroke-width="1"/>
              <g id="Group_1408" data-name="Group 1408" transform="translate(5.633)">
                <path id="Path_1628" data-name="Path 1628" d="M291.567,231.538S267.526,235.6,247,258.579l14.911,14.479,17.476-9.88Z" transform="translate(-247.004 -231.538)" fill="#2aa2e0" stroke="#262433" stroke-miterlimit="10" stroke-width="1"/>
                <path id="Path_1629" data-name="Path 1629" d="M250.131,294.618q-1.574,1.6-3.127,3.33l14.911,14.479,4.435-2.508Z" transform="translate(-247.004 -270.907)" fill="#e0f1f9" stroke="#262433" stroke-miterlimit="10" stroke-width="1"/>
              </g>
            </g>
          </g>
          <g id="Group_1412" data-name="Group 1412" transform="translate(24.811 38.943)">
            <path id="Path_1630" data-name="Path 1630" d="M357.5,300.741q.058-2.1.061-4.236c0-36.943-13.328-66.891-29.77-66.891s-29.77,29.948-29.77,66.891q0,2.135.061,4.236Z" transform="translate(-298.023 -229.614)" fill="#2aa2e0" stroke="#262433" stroke-miterlimit="10" stroke-width="1"/>
            <g id="Group_1411" data-name="Group 1411" transform="translate(6.198 30.78)">
              <path id="Path_1631" data-name="Path 1631" d="M314.511,311.5v8.531a4.455,4.455,0,0,0,4.455,4.455H322.2a4.455,4.455,0,0,0,4.455-4.455V311.5Z" transform="translate(-314.511 -311.502)" fill="#e0f1f9" stroke="#262433" stroke-miterlimit="10" stroke-width="1"/>
              <path id="Path_2785" data-name="Path 2785" d="M0,0H12.142V3.166H0Z" transform="translate(0)" fill="#e0f1f9" stroke="#262433" stroke-width="1"/>
            </g>
          </g>
          <g id="Group_1418" data-name="Group 1418" transform="translate(33.074 37.547)">
            <path id="Path_1632" data-name="Path 1632" d="M336.1,245.468c1.242-11.107,7.665-19.568,15.4-19.568,8.626,0,15.618,10.518,15.618,23.493q0,.506-.014,1.008" transform="translate(-330.052 -225.9)" fill="none" stroke="#262433" stroke-miterlimit="10" stroke-width="0.5"/>
            <g id="Group_1413" data-name="Group 1413" transform="translate(32.16 23.173)">
              <circle id="Ellipse_17" data-name="Ellipse 17" cx="3.263" cy="3.263" r="3.263" transform="translate(0 2.382) rotate(-21.41)" fill="silver" stroke="#262433" stroke-miterlimit="10" stroke-width="1"/>
              <path id="Path_1633" data-name="Path 1633" d="M415.655,295.879a1.759,1.759,0,1,1-1.759-1.759A1.759,1.759,0,0,1,415.655,295.879Z" transform="translate(-409.668 -291.65)" fill="#f4f4f4" stroke="#262433" stroke-miterlimit="10" stroke-width="1"/>
            </g>
            <g id="Group_1417" data-name="Group 1417" transform="translate(0 19.484)">
              <path id="Path_1634" data-name="Path 1634" d="M324.553,289.469a15.007,15.007,0,0,1-.3-2.323c-.255-5.043,1.987-9.255,5.009-9.408s5.679,3.811,5.934,8.854a14.678,14.678,0,0,1-.185,3.225" transform="translate(-322.646 -277.735)" fill="none" stroke="#262433" stroke-miterlimit="10" stroke-width="0.5"/>
              <g id="Group_1416" data-name="Group 1416" transform="translate(0 11.18)">
                <g id="Group_1414" data-name="Group 1414">
                  <path id="Path_1635" data-name="Path 1635" d="M322.886,316.707s2.465,2.886,6.313.481,4.885-7.032,5.178-9.709" transform="translate(-321.804 -307.479)" fill="none" stroke="#262433" stroke-miterlimit="10" stroke-width="1"/>
                  <path id="Path_1636" data-name="Path 1636" d="M321.6,329.544a.795.795,0,1,1-.795-.795A.795.795,0,0,1,321.6,329.544Z" transform="translate(-320.007 -320.754)" fill="#fff" stroke="#262433" stroke-miterlimit="10" stroke-width="1"/>
                </g>
                <g id="Group_1415" data-name="Group 1415" transform="translate(1.859 0.106)">
                  <path id="Path_1637" data-name="Path 1637" d="M336.561,316.84s-2.427,2.918-6.306.563-4.975-6.969-5.3-9.641" transform="translate(-324.952 -307.762)" fill="none" stroke="#262433" stroke-miterlimit="10" stroke-width="1"/>
                  <path id="Path_1638" data-name="Path 1638" d="M354.472,329.431a.795.795,0,1,0,.784-.8A.795.795,0,0,0,354.472,329.431Z" transform="translate(-343.376 -320.784)" fill="#fff" stroke="#262433" stroke-miterlimit="10" stroke-width="1"/>
                </g>
              </g>
            </g>
          </g>
          <g id="Group_1429" data-name="Group 1429" transform="translate(39.89)">
            <g id="Group_1419" data-name="Group 1419" transform="translate(5.707 30.843)">
              <path id="Path_1639" data-name="Path 1639" d="M362.8,227.906l7.224-9.7a16.034,16.034,0,0,0-3.7-1.553l.047-5.249a3.311,3.311,0,0,0-3.271-3.331l-1.407-.012a3.311,3.311,0,0,0-3.331,3.271l-.05,5.552a17.311,17.311,0,0,0-4.364,2.218Z" transform="translate(-353.715 -208.065)" fill="#f4f4f4" stroke="#262433" stroke-miterlimit="10" stroke-width="1"/>
              <path id="Path_1640" data-name="Path 1640" d="M353.322,234.443l9.45,10.582,8.17-10.823a17.793,17.793,0,0,0-3.38-1.823l-4.823,7.515-6.335-7.238A18.469,18.469,0,0,0,353.322,234.443Z" transform="translate(-353.322 -223.24)" fill="#e0f1f9" stroke="#262433" stroke-miterlimit="10" stroke-width="1"/>
            </g>
            <g id="Group_1428" data-name="Group 1428">
              <path id="Path_1641" data-name="Path 1641" d="M366.987,160.771a12.041,12.041,0,0,0,1.7-9.573c-1.368-5.51-11.628-8.374-12.857-8.031a51.887,51.887,0,0,1-5.916.575s-5.617-.021-6.344,5.5,1.737,11.976,1.919,12.858S363.51,166.9,366.987,160.771Z" transform="translate(-341.448 -136.701)" fill="#262433"/>
              <g id="Group_1424" data-name="Group 1424" transform="translate(0 22.747)">
                <g id="Group_1421" data-name="Group 1421" transform="translate(23.237)">
                  <path id="Path_1642" data-name="Path 1642" d="M405.908,189.387a2.976,2.976,0,1,1-3.064-2.86A2.964,2.964,0,0,1,405.908,189.387Z" transform="translate(-399.958 -186.526)" fill="#f4f4f4" stroke="#262433" stroke-miterlimit="10" stroke-width="1"/>
                  <g id="Group_1420" data-name="Group 1420" transform="translate(1.144 1.313)">
                    <path id="Path_1643" data-name="Path 1643" d="M403.466,192.1a1.59,1.59,0,0,1,0-.189c0-.068.006-.136.014-.2,0-.028,0-.076,0,0a.294.294,0,0,1,.01-.062c.008-.045.016-.09.027-.134a2.115,2.115,0,0,1,.084-.271c.023-.061-.019.039.009-.02.01-.021.019-.041.03-.062a1.517,1.517,0,0,1,.084-.146l.041-.059c.037-.053-.024.026.018-.023a1.625,1.625,0,0,1,.124-.13l.059-.05c.039-.035-.03.022,0,0l.032-.023a1.335,1.335,0,0,1,.164-.1l.039-.019.032-.015c-.028.012-.029.012-.005,0s.069-.026.1-.037a1.807,1.807,0,0,1,.232-.056c.005,0,.074-.011.023,0l.065-.008c.046,0,.092-.007.138-.009a2.887,2.887,0,0,1,.327.007.232.232,0,0,0,.23-.23.235.235,0,0,0-.23-.23,1.9,1.9,0,0,0-1.72.653,2.1,2.1,0,0,0-.384,1.16,1.776,1.776,0,0,0,0,.257.236.236,0,0,0,.23.23.232.232,0,0,0,.23-.23Z" transform="translate(-403.001 -190.018)" fill="#0c0c0c"/>
                  </g>
                </g>
                <g id="Group_1423" data-name="Group 1423" transform="translate(0 0.238)">
                  <path id="Path_1644" data-name="Path 1644" d="M338.141,190.2a2.976,2.976,0,1,0,2.885-3.041A2.964,2.964,0,0,0,338.141,190.2Z" transform="translate(-338.139 -187.16)" fill="#f4f4f4" stroke="#262433" stroke-miterlimit="10" stroke-width="1"/>
                  <g id="Group_1422" data-name="Group 1422" transform="translate(2.387 1.315)">
                    <path id="Path_1645" data-name="Path 1645" d="M346.929,192.635a1.908,1.908,0,0,0-1.089-1.849,2.309,2.309,0,0,0-1.183-.1.231.231,0,0,0-.16.283.236.236,0,0,0,.283.161,1.81,1.81,0,0,1,.861.066c.015.005.1.04.048.017l.081.038a1.478,1.478,0,0,1,.16.1c.054.037-.017-.018.031.024.02.018.041.035.06.053a1.6,1.6,0,0,1,.112.12l.024.03c-.035-.044-.015-.021-.008-.011s.029.041.043.062a1.567,1.567,0,0,1,.082.139c.011.021.022.043.032.064s.038.091.011.023c.018.045.035.089.05.135a2.192,2.192,0,0,1,.066.249c.008.037.014.074.02.111s.026.074,0,0a.243.243,0,0,1,.006.052,1.7,1.7,0,0,1,.012.232c-.01.3.45.3.459,0Z" transform="translate(-344.489 -190.658)" fill="#0c0c0c"/>
                  </g>
                </g>
              </g>
              <path id="Rectangle_36" data-name="Rectangle 36" d="M9.4,0h0a9.4,9.4,0,0,1,9.4,9.4v6.1a9.4,9.4,0,0,1-9.4,9.4h0A9.4,9.4,0,0,1,0,15.5V9.4A9.4,9.4,0,0,1,9.4,0Z" transform="translate(5.018 9.887) rotate(-0.579)" fill="#f4f4f4" stroke="#262433" stroke-miterlimit="10" stroke-width="1"/>
              <g id="Group_1427" data-name="Group 1427" transform="translate(7.565 19.514)">
                <line id="Line_21" data-name="Line 21" x1="0.037" y2="3.953" transform="translate(7.861 2.231)" fill="#262433" stroke="#262433" stroke-miterlimit="10" stroke-width="0.25"/>
                <g id="Group_1425" data-name="Group 1425">
                  <line id="Line_22" data-name="Line 22" y1="0.571" x2="1.453" fill="#262433" stroke="#262433" stroke-miterlimit="10" stroke-width="0.25"/>
                  <line id="Line_23" data-name="Line 23" y1="0.041" x2="1.561" transform="translate(12.291 0.551)" fill="#262433" stroke="#262433" stroke-miterlimit="10" stroke-width="0.25"/>
                </g>
                <g id="Group_1426" data-name="Group 1426" transform="translate(0.454 1.353)">
                  <path id="Path_1646" data-name="Path 1646" d="M390.144,182.661a1.089,1.089,0,1,0,1.042-1.134A1.09,1.09,0,0,0,390.144,182.661Z" transform="translate(-378.615 -181.526)" fill="#0c0c0c"/>
                  <path id="Path_1647" data-name="Path 1647" d="M359.475,182.661a1.089,1.089,0,1,0,1.042-1.134A1.089,1.089,0,0,0,359.475,182.661Z" transform="translate(-359.474 -181.526)" fill="#0c0c0c"/>
                </g>
              </g>
              <path id="Path_1648" data-name="Path 1648" d="M370.709,190.623c-1.538,1.319-4.133,2.246-5.9-.206-1.5-2.077-4.184-2.274-7.08.186-2.506,2.129-5.3.264-5.823-.12l.027,2.683a6.849,6.849,0,0,0,6.9,6.759l5.147-.052a6.849,6.849,0,0,0,6.759-6.9Z" transform="translate(-346.729 -165.204)" fill="#fff" stroke="#262433" stroke-miterlimit="10" stroke-width="1"/>
              <path id="Path_1649" data-name="Path 1649" d="M346.816,137.7a14.99,14.99,0,0,1,4.817-3.253c-.38-8.469,22.28-13.266,17.517-1.06,0,0,7.483-3.183,8.738.565,3.053,9.118-18.732,11.979-24.9,3.889-1.295.483-2.886,1.414-3.2,3.126-.547,2.973-1.314,9.547-1.314,9.547a17.244,17.244,0,0,0-.984-2.914C346.877,146.27,345.866,139.026,346.816,137.7Z" transform="translate(-343.312 -126.01)" fill="#262433"/>
            </g>
          </g>
        </g>
      </g>
    </g>
  </g>
</svg>
