<svg xmlns="http://www.w3.org/2000/svg" width="19.805" height="26" viewBox="0 0 19.805 26">
  <g id="integrated_report" data-name="integrated report" transform="translate(-61)">
    <path id="Path_1538" data-name="Path 1538" d="M151.762,307H151v1.523h.762a.762.762,0,1,0,0-1.523Z" transform="translate(-85.43 -291.41)" fill="#2aa2e0"/>
    <path id="Path_1539" data-name="Path 1539" d="M361,8.787v4.124h4.124Z" transform="translate(-284.766 -8.341)" fill="#2aa2e0"/>
    <path id="Path_1540" data-name="Path 1540" d="M75.473,6.094a.762.762,0,0,1-.762-.762V0H61.762A.762.762,0,0,0,61,.762V25.238a.762.762,0,0,0,.762.762H80.043a.762.762,0,0,0,.762-.762V6.094ZM64.809,4.57h7.617a.762.762,0,0,1,0,1.523H64.809a.762.762,0,1,1,0-1.523Zm5.867,16.977A.762.762,0,1,1,69.6,22.625l-.8-.8-.809.809a.762.762,0,0,1-1.077-1.077l.809-.809L65.61,18.637h-.04v1.93a.762.762,0,1,1-1.523,0V14.828a.762.762,0,0,1,.762-.762h1.523a2.284,2.284,0,0,1,1.132,4.269l1.331,1.331.807-.807a.762.762,0,0,1,1.077,1.077l-.807.807ZM77,18.281h-4.57a.762.762,0,1,1,0-1.523H77a.762.762,0,1,1,0,1.523Zm0-3.047h-4.57a.762.762,0,1,1,0-1.523H77a.762.762,0,1,1,0,1.523Zm0-3.047H64.809a.762.762,0,0,1,0-1.523H77a.762.762,0,0,1,0,1.523Zm0-3.047H64.809a.762.762,0,0,1,0-1.523H77a.762.762,0,0,1,0,1.523Z" fill="#2aa2e0"/>
  </g>
</svg>
