<svg id="integrated_spend" data-name="integrated spend" xmlns="http://www.w3.org/2000/svg" width="20.518" height="20.518" viewBox="0 0 20.518 20.518">
  <path id="Path_1528" data-name="Path 1528" d="M91.952,3.647h4.489a10.674,10.674,0,0,1,1.783-2.625.57.57,0,0,0,.132-.649A.6.6,0,0,0,97.8,0a3.471,3.471,0,0,0-2.14.7,2.216,2.216,0,0,1-1.467.5A2.216,2.216,0,0,1,92.73.7,3.471,3.471,0,0,0,90.59,0a.6.6,0,0,0-.553.373.57.57,0,0,0,.132.649A10.673,10.673,0,0,1,91.952,3.647Z" transform="translate(-86.383)" fill="#2aa2e0"/>
  <path id="Path_1529" data-name="Path 1529" d="M301,452.6v1.2a.6.6,0,0,0,.6.6h7.253a.6.6,0,0,0,.6-.6v-1.2a.6.6,0,0,0-.6-.6H301.6A.6.6,0,0,0,301,452.6Z" transform="translate(-288.938 -433.887)" fill="#2aa2e0"/>
  <path id="Path_1530" data-name="Path 1530" d="M309.455,363.8v-1.2a.6.6,0,0,0-.6-.6H301.6a.6.6,0,0,0-.6.6v1.2a.6.6,0,0,0,.6.6h7.253A.6.6,0,0,0,309.455,363.8Z" transform="translate(-288.938 -347.494)" fill="#2aa2e0"/>
  <path id="Path_1531" data-name="Path 1531" d="M11.986,125.873c-1.178-1.154-2.14-2.132-2.332-3.671h.565a.6.6,0,0,0,0-1.2H5.41a.6.6,0,0,0,0,1.2h.565c-.192,1.539-1.154,2.517-2.332,3.671C1.936,127.544,0,129.443,0,133.783a2.991,2.991,0,0,0,3.005,2.885H10.93a1.783,1.783,0,0,1-.111-.6v-4.809a1.805,1.805,0,0,1,1.8-1.8h2.153A12.2,12.2,0,0,0,11.986,125.873Zm-4.172,3.583a1.8,1.8,0,0,1,.6,3.5v.712a.6.6,0,1,1-1.2,0v-.712a1.8,1.8,0,0,1-1.2-1.693.6.6,0,0,1,1.2,0,.6.6,0,1,0,.6-.6,1.8,1.8,0,0,1-.6-3.5v-.712a.6.6,0,0,1,1.2,0v.712a1.8,1.8,0,0,1,1.2,1.693.6.6,0,1,1-1.2,0,.6.6,0,1,0-.6.6Z" transform="translate(0 -116.151)" fill="#2aa2e0"/>
</svg>
