<svg xmlns="http://www.w3.org/2000/svg" xmlns:xlink="http://www.w3.org/1999/xlink" width="119" height="97" viewBox="0 0 119 97">
  <defs>
    <clipPath id="clip-path">
      <rect id="Rectangle_369" data-name="Rectangle 369" width="119" height="97" transform="translate(694 195)" fill="none" stroke="#707070" stroke-width="1"/>
    </clipPath>
  </defs>
  <g id="perscription" transform="translate(-694 -195)" clip-path="url(#clip-path)">
    <g id="Group_2072" data-name="Group 2072" transform="translate(694.029 211.429)">
      <g id="Group_2070" data-name="Group 2070" transform="translate(0 0)">
        <path id="Path_2801" data-name="Path 2801" d="M382.155,339.555l-75.3,26.4a6.175,6.175,0,0,0-3.785,7.87l38.068,108.581a6.175,6.175,0,0,0,7.87,3.785l75.3-26.4a6.176,6.176,0,0,0,3.785-7.871L390.025,343.339A6.174,6.174,0,0,0,382.155,339.555Z" transform="translate(-302.717 -339.206)" fill="#79c9a6"/>
        <g id="Group_2069" data-name="Group 2069" transform="translate(5.24 6.401)">
          <rect id="Rectangle_357" data-name="Rectangle 357" width="82.251" height="113.726" transform="matrix(0.944, -0.331, 0.331, 0.944, 0, 27.213)" fill="#fff"/>
          <path id="Path_2802" data-name="Path 2802" d="M312.542,378.42l37.627,107.321L390.16,351.207Z" transform="translate(-312.542 -351.207)" fill="#fafdfe"/>
        </g>
        <path id="Path_2803" data-name="Path 2803" d="M387.029,362.16l-52.048,18.248a3.316,3.316,0,0,1-4.221-2.03l-3.041-8.673a3.316,3.316,0,0,1,2.03-4.221L381.8,347.236a3.317,3.317,0,0,1,4.221,2.03l3.041,8.673A3.316,3.316,0,0,1,387.029,362.16Zm-56.721,4.921a1.622,1.622,0,0,0-.993,2.066l3.041,8.673a1.622,1.622,0,0,0,2.066.993l52.048-18.248a1.622,1.622,0,0,0,.993-2.066l-3.041-8.673a1.622,1.622,0,0,0-2.066-.993Z" transform="translate(-314.297 -342.866)" fill="#f4f4f4"/>
        <path id="Path_2804" data-name="Path 2804" d="M0,0H53.558V7.041H0Z" transform="translate(15.453 19.38) rotate(-19.321)" fill="#83c5e7"/>
        <rect id="Rectangle_358" data-name="Rectangle 358" width="53.558" height="3.52" transform="translate(16.617 22.702) rotate(-19.321)" opacity="0.203"/>
      </g>
      <g id="Group_2071" data-name="Group 2071" transform="translate(19.788 38.931)">
        <path id="Path_2805" data-name="Path 2805" d="M392.4,514.056l-9.8-17.966.345,9.193-7.306,2.562a.846.846,0,0,1-.56-1.6l6.128-2.148-.566-15.131,9.83,18.014-.5-14.563,4.347,5.46.749-13.585,11.337,17.161-.3-6.611,5.248-1.84a.846.846,0,0,1,.56,1.6l-4.062,1.424.516,11.474-11.895-18.006-.713,12.915-3.926-4.931Z" transform="translate(-356.008 -445.844)" fill="#f79595"/>
        <path id="Path_2806" data-name="Path 2806" d="M361.572,447.728l-11.43,4.008a3.553,3.553,0,0,1-4.524-2.175l-5.6-15.972a3.553,3.553,0,0,1,2.175-4.523l11.431-4.008a3.552,3.552,0,0,1,4.523,2.175l5.6,15.972A3.552,3.552,0,0,1,361.572,447.728Zm-19.038-17.69a2.522,2.522,0,0,0-1.543,3.21l5.6,15.972a2.522,2.522,0,0,0,3.21,1.544l11.431-4.008a2.522,2.522,0,0,0,1.543-3.21l-5.6-15.972a2.522,2.522,0,0,0-3.21-1.544Z" transform="translate(-339.819 -418.106)" fill="#e8e8e8"/>
        <path id="Path_2807" data-name="Path 2807" d="M360.718,451.876c5.4-1.894,5.99-5.607,5.99-5.607a4.11,4.11,0,0,0-1.26-.506c-1.743-.427-3.022-.432-3.641-.654a3.369,3.369,0,0,1-1.089-.685l-.236.287a4.639,4.639,0,0,1-.626-1.535s.386-.257.2-1.793c.534-.078.685-1.557.245-1.932a.408.408,0,0,0-.618-.012c-.068-.7-.612-4.469-4.427-3.132s-1.885,4.624-1.5,5.211c-.175-.021-.4.028-.475.4-.11.567.932,1.628,1.4,1.355.817,1.315,1.279,1.274,1.279,1.274a4.635,4.635,0,0,1,.469,1.59l-.363-.077a3.376,3.376,0,0,1-.422,1.215c-.345.559-1.341,1.362-2.436,2.785a4.13,4.13,0,0,0-.668,1.182S355.316,453.77,360.718,451.876Z" transform="translate(-345.754 -423.317)" fill="#f79595"/>
        <rect id="Rectangle_359" data-name="Rectangle 359" width="20.671" height="2.045" transform="matrix(0.944, -0.331, 0.331, 0.944, 23.592, 6.839)" fill="#e8e8e8"/>
        <rect id="Rectangle_360" data-name="Rectangle 360" width="13.689" height="2.045" transform="matrix(0.944, -0.331, 0.331, 0.944, 63.274, 34.824)" fill="#e8e8e8"/>
        <rect id="Rectangle_361" data-name="Rectangle 361" width="13.69" height="2.045" transform="matrix(0.944, -0.331, 0.331, 0.944, 65.251, 40.462)" fill="#e8e8e8"/>
        <rect id="Rectangle_362" data-name="Rectangle 362" width="13.69" height="2.045" transform="matrix(0.944, -0.331, 0.331, 0.944, 67.227, 46.1)" fill="#e8e8e8"/>
        <rect id="Rectangle_363" data-name="Rectangle 363" width="20.953" height="2.046" transform="translate(25.346 11.841) rotate(-19.321)" fill="#e8e8e8"/>
        <rect id="Rectangle_364" data-name="Rectangle 364" width="42.282" height="2.045" transform="translate(27.446 17.831) rotate(-19.321)" fill="#e8e8e8"/>
        <rect id="Rectangle_365" data-name="Rectangle 365" width="64.555" height="2.045" transform="translate(25.341 81.522) rotate(-19.321)" fill="#e8e8e8"/>
        <rect id="Rectangle_366" data-name="Rectangle 366" width="64.555" height="2.045" transform="translate(10.002 37.772) rotate(-19.321)" fill="#e8e8e8"/>
        <rect id="Rectangle_367" data-name="Rectangle 367" width="64.555" height="2.045" transform="matrix(0.944, -0.331, 0.331, 0.944, 27.417, 87.443)" fill="#e8e8e8"/>
        <rect id="Rectangle_368" data-name="Rectangle 368" width="42.282" height="2.045" transform="translate(29.498 23.685) rotate(-19.321)" fill="#e8e8e8"/>
      </g>
    </g>
  </g>
</svg>
