<svg xmlns="http://www.w3.org/2000/svg" width="349.406" height="310.09" viewBox="0 0 349.406 310.09">
  <g id="pills" transform="translate(-419.941 -337.851)">
    <g id="Group_1968" data-name="Group 1968" transform="translate(752.003 394.387)">
      <path id="Path_2336" data-name="Path 2336" d="M412.488,99.025l-5.246-2.313a3.492,3.492,0,0,0-2.818,6.391l5.245,2.313Z" transform="translate(-402.34 -96.414)" fill="#fcd86e"/>
      <path id="Path_2337" data-name="Path 2337" d="M416.083,107.7l5.113,2.254a3.492,3.492,0,1,0,2.818-6.391l-5.113-2.254Z" transform="translate(-408.753 -98.698)" fill="#cfc3e9"/>
      <path id="Path_2338" data-name="Path 2338" d="M410.139,104.512l-4.474-1.972a3.489,3.489,0,0,1-.938-5.779,3.488,3.488,0,0,0-.3,6.5l5.245,2.313Z" transform="translate(-402.34 -96.575)" opacity="0.104"/>
      <path id="Path_2339" data-name="Path 2339" d="M424.951,114a3.476,3.476,0,0,1-2.514-.113l-5.885-2.6-.47,1.065,5.113,2.254A3.491,3.491,0,0,0,424.951,114Z" transform="translate(-408.753 -103.358)" opacity="0.098"/>
    </g>
    <g id="Group_1969" data-name="Group 1969" transform="translate(478.003 636.387)">
      <path id="Path_2336-2" data-name="Path 2336" d="M412.488,99.025l-5.246-2.313a3.492,3.492,0,0,0-2.818,6.391l5.245,2.313Z" transform="translate(-402.34 -96.414)" fill="#fcd86e"/>
      <path id="Path_2337-2" data-name="Path 2337" d="M416.083,107.7l5.113,2.254a3.492,3.492,0,1,0,2.818-6.391l-5.113-2.254Z" transform="translate(-408.753 -98.698)" fill="#cfc3e9"/>
      <path id="Path_2338-2" data-name="Path 2338" d="M410.139,104.512l-4.474-1.972a3.489,3.489,0,0,1-.938-5.779,3.488,3.488,0,0,0-.3,6.5l5.245,2.313Z" transform="translate(-402.34 -96.575)" opacity="0.104"/>
      <path id="Path_2339-2" data-name="Path 2339" d="M424.951,114a3.476,3.476,0,0,1-2.514-.113l-5.885-2.6-.47,1.065,5.113,2.254A3.491,3.491,0,0,0,424.951,114Z" transform="translate(-408.753 -103.358)" opacity="0.098"/>
    </g>
    <g id="Group_1967" data-name="Group 1967" transform="translate(419.941 337.851)">
      <path id="Path_2336-3" data-name="Path 2336" d="M412.488,99.025l-5.246-2.313a3.492,3.492,0,0,0-2.818,6.391l5.245,2.313Z" transform="translate(-402.34 -96.414)" fill="#fcd86e"/>
      <path id="Path_2337-3" data-name="Path 2337" d="M416.083,107.7l5.113,2.254a3.492,3.492,0,1,0,2.818-6.391l-5.113-2.254Z" transform="translate(-408.753 -98.698)" fill="#cfc3e9"/>
      <path id="Path_2338-3" data-name="Path 2338" d="M410.139,104.512l-4.474-1.972a3.489,3.489,0,0,1-.938-5.779,3.488,3.488,0,0,0-.3,6.5l5.245,2.313Z" transform="translate(-402.34 -96.575)" opacity="0.104"/>
      <path id="Path_2339-3" data-name="Path 2339" d="M424.951,114a3.476,3.476,0,0,1-2.514-.113l-5.885-2.6-.47,1.065,5.113,2.254A3.491,3.491,0,0,0,424.951,114Z" transform="translate(-408.753 -103.358)" opacity="0.098"/>
    </g>
  </g>
</svg>
