<svg xmlns="http://www.w3.org/2000/svg" width="62.434" height="57.466" viewBox="0 0 62.434 57.466">
  <g id="prize" transform="translate(0 -20.368)">
    <g id="Group_1853" data-name="Group 1853" transform="translate(1.859 26.373)">
      <g id="Group_1852" data-name="Group 1852">
        <path id="Path_2498" data-name="Path 2498" d="M37.17,93.423H31.918a10.23,10.23,0,0,1-6.148-2.069l-6.878-5.219A9.192,9.192,0,0,1,24.34,69.621c3.751-.045,5.881.074,5.97.079l-.235,4.128c-.02,0-2.094-.115-5.686-.073a5.057,5.057,0,0,0-3,9.086l6.877,5.219a6.071,6.071,0,0,0,3.649,1.228H37.17v4.135Z" transform="translate(-15.251 -69.611)" fill="#ffd064"/>
      </g>
    </g>
    <g id="Group_1855" data-name="Group 1855" transform="translate(1.861 34.5)">
      <g id="Group_1854" data-name="Group 1854" transform="translate(0 0)">
        <path id="Path_2499" data-name="Path 2499" d="M25.783,147.7l-6.878-5.219a9.164,9.164,0,0,1-3.574-6.218,9.156,9.156,0,0,0,3.574,8.4l6.878,5.219a10.23,10.23,0,0,0,6.148,2.069h5.252v-2.178H31.931A10.23,10.23,0,0,1,25.783,147.7Z" transform="translate(-15.267 -136.264)" fill="#ecbe6b"/>
      </g>
    </g>
    <g id="Group_1857" data-name="Group 1857" transform="translate(38.674 26.373)">
      <g id="Group_1856" data-name="Group 1856">
        <path id="Path_2500" data-name="Path 2500" d="M317.158,93.423h5.252a10.23,10.23,0,0,0,6.148-2.069l6.878-5.219a9.192,9.192,0,0,0-5.448-16.514c-3.751-.045-5.881.074-5.97.079l.235,4.128c.02,0,2.094-.115,5.686-.073a5.057,5.057,0,0,1,3,9.086l-6.877,5.219a6.071,6.071,0,0,1-3.649,1.228h-5.252v4.135Z" transform="translate(-317.158 -69.611)" fill="#ffd064"/>
      </g>
    </g>
    <g id="Group_1859" data-name="Group 1859" transform="translate(38.674 28.317)">
      <g id="Group_1858" data-name="Group 1858">
        <path id="Path_2501" data-name="Path 2501" d="M338.543,89.747a9.176,9.176,0,0,0-3.036-4.192,9.174,9.174,0,0,1-1.714,12.939l-6.878,5.219a10.23,10.23,0,0,1-6.148,2.069h-3.612v1.641h5.252a10.23,10.23,0,0,0,6.148-2.069l6.878-5.219A9.161,9.161,0,0,0,338.543,89.747Z" transform="translate(-317.156 -85.555)" fill="#ecbe6b"/>
      </g>
    </g>
    <g id="Group_1860" data-name="Group 1860" transform="translate(23.756 51.888)">
      <path id="Path_2502" data-name="Path 2502" d="M208.988,292.292l-2.446-1.854a4.214,4.214,0,0,1-1.669-3.358v-8.228h-5.54v8.228a4.214,4.214,0,0,1-1.669,3.358l-2.446,1.854a1,1,0,0,0,.6,1.793h12.563A1,1,0,0,0,208.988,292.292Z" transform="translate(-194.822 -278.851)" fill="#ffd064"/>
    </g>
    <g id="Group_1861" data-name="Group 1861" transform="translate(30.936 51.888)">
      <path id="Path_2503" data-name="Path 2503" d="M260.69,292.292l-2.446-1.854a4.214,4.214,0,0,1-1.669-3.358v-8.228H253.7v8.228a4.214,4.214,0,0,0,1.669,3.358l2.446,1.854a1,1,0,0,1-.6,1.793h2.871A1,1,0,0,0,260.69,292.292Z" transform="translate(-253.704 -278.851)" fill="#ecbe6b"/>
    </g>
    <g id="Group_1862" data-name="Group 1862" transform="translate(14.612 20.368)">
      <path id="Path_2504" data-name="Path 2504" d="M151.983,20.368H120.911a1.078,1.078,0,0,0-1.078,1.078V32.572a25.653,25.653,0,0,0,3.831,13.486l2.869,4.643a11.57,11.57,0,0,0,19.627.092l2.941-4.661a25.653,25.653,0,0,0,3.959-13.691v-11a1.078,1.078,0,0,0-1.078-1.078Z" transform="translate(-119.833 -20.368)" fill="#ffe07d"/>
    </g>
    <g id="Group_1863" data-name="Group 1863" transform="translate(20.333 20.368)">
      <path id="Path_2505" data-name="Path 2505" d="M193.175,20.368h-4.98v6.016a25.653,25.653,0,0,1-3.959,13.691l-2.941,4.661a11.573,11.573,0,0,1-14.549,4.381l.98,1.585a11.57,11.57,0,0,0,19.627.092l2.941-4.661a25.653,25.653,0,0,0,3.959-13.691v-11a1.078,1.078,0,0,0-1.078-1.078Z" transform="translate(-166.746 -20.368)" fill="#ffd064"/>
    </g>
    <g id="Group_1885" data-name="Group 1885" transform="translate(0 45.633)">
      <g id="Group_1864" data-name="Group 1864" transform="translate(3.533 8.717)">
        <path id="Path_2506" data-name="Path 2506" d="M56.655,318.642A29.467,29.467,0,0,1,40.1,313.55a31.553,31.553,0,0,1-11.048-13.177.939.939,0,1,1,1.712-.775,28.709,28.709,0,0,0,25.888,17.165A28.709,28.709,0,0,0,82.543,299.6a.94.94,0,1,1,1.712.775A31.552,31.552,0,0,1,73.206,313.55,29.467,29.467,0,0,1,56.655,318.642Z" transform="translate(-28.971 -299.046)" fill="#0dc183"/>
      </g>
      <g id="Group_1865" data-name="Group 1865" transform="translate(56.468)">
        <path id="Path_2507" data-name="Path 2507" d="M467.89,235.4c-1.026,2.429-2.776,4.01-3.908,3.531s-1.218-2.835-.192-5.263c.743-1.759,3.193-4.557,4.486-5.964a.439.439,0,0,1,.762.322C468.931,229.932,468.633,233.638,467.89,235.4Z" transform="translate(-463.074 -227.557)" fill="#aad880"/>
      </g>
      <g id="Group_1866" data-name="Group 1866" transform="translate(56.611 0)">
        <path id="Path_2508" data-name="Path 2508" d="M469.308,227.7c-.359.39-.807.888-1.282,1.441a21.179,21.179,0,0,1-1,5.354,6.672,6.672,0,0,1-2.777,3.446,1.45,1.45,0,0,0,.765.987c1.132.478,2.881-1.1,3.908-3.531.743-1.759,1.041-5.466,1.149-7.374A.439.439,0,0,0,469.308,227.7Z" transform="translate(-464.248 -227.558)" fill="#80cb8e"/>
      </g>
      <g id="Group_1867" data-name="Group 1867" transform="translate(50.207 6.193)">
        <path id="Path_2509" data-name="Path 2509" d="M415.934,285.392c.077,2.489-.8,4.536-1.961,4.572s-2.163-1.953-2.24-4.442c-.056-1.8.943-5.17,1.5-6.888a.415.415,0,0,1,.781-.024C414.673,280.29,415.878,283.589,415.934,285.392Z" transform="translate(-411.731 -278.346)" fill="#aad880"/>
      </g>
      <g id="Group_1868" data-name="Group 1868" transform="translate(42.409 12.411)">
        <path id="Path_2510" data-name="Path 2510" d="M352.768,335.083c.981,2.289.911,4.515-.156,4.972s-2.727-1.028-3.708-3.317c-.711-1.658-1.01-5.158-1.121-6.96a.415.415,0,0,1,.718-.308C349.73,330.795,352.058,333.425,352.768,335.083Z" transform="translate(-347.783 -329.337)" fill="#aad880"/>
      </g>
      <g id="Group_1869" data-name="Group 1869" transform="translate(42.409 12.411)">
        <path id="Path_2511" data-name="Path 2511" d="M352.768,335.083c-.711-1.658-3.038-4.289-4.266-5.612a.415.415,0,0,0-.718.308c.032.515.079,1.169.147,1.879a19.666,19.666,0,0,1,2.924,4.114,6.331,6.331,0,0,1,.532,4.13,1.4,1.4,0,0,0,1.226.154C353.679,339.6,353.749,337.372,352.768,335.083Z" transform="translate(-347.783 -329.337)" fill="#80cb8e"/>
      </g>
      <g id="Group_1870" data-name="Group 1870" transform="translate(50.027 19.026)">
        <path id="Path_2512" data-name="Path 2512" d="M413.879,388.044c-2.351-.82-3.948-2.373-3.566-3.469s2.6-1.32,4.95-.5c1.7.594,4.489,2.733,5.894,3.867a.415.415,0,0,1-.257.738C419.094,388.694,415.582,388.638,413.879,388.044Z" transform="translate(-410.257 -383.581)" fill="#aad880"/>
      </g>
      <g id="Group_1871" data-name="Group 1871" transform="translate(42.559 24.161)">
        <path id="Path_2513" data-name="Path 2513" d="M352.633,430.158c-2.351-.82-3.948-2.373-3.566-3.469s2.6-1.32,4.95-.5c1.7.594,4.489,2.733,5.894,3.867a.415.415,0,0,1-.257.738C357.848,430.808,354.336,430.752,352.633,430.158Z" transform="translate(-349.01 -425.695)" fill="#aad880"/>
      </g>
      <g id="Group_1872" data-name="Group 1872" transform="translate(50.027 19.975)">
        <path id="Path_2514" data-name="Path 2514" d="M421.155,394.775c-.571-.461-1.37-1.087-2.232-1.709a24.917,24.917,0,0,1-6.475-.638,8.669,8.669,0,0,1-2.119-1.065c-.006.015-.013.03-.019.045-.382,1.1,1.214,2.649,3.566,3.469,1.7.594,5.215.65,7.021.636A.415.415,0,0,0,421.155,394.775Z" transform="translate(-410.254 -391.363)" fill="#80cb8e"/>
      </g>
      <g id="Group_1873" data-name="Group 1873" transform="translate(42.559 25.11)">
        <path id="Path_2515" data-name="Path 2515" d="M359.911,436.89c-.571-.461-1.37-1.087-2.232-1.709a24.92,24.92,0,0,1-6.475-.638,8.665,8.665,0,0,1-2.119-1.065c-.006.015-.013.03-.018.045-.382,1.1,1.214,2.649,3.566,3.469,1.7.594,5.215.65,7.021.636A.415.415,0,0,0,359.911,436.89Z" transform="translate(-349.01 -433.478)" fill="#80cb8e"/>
      </g>
      <g id="Group_1874" data-name="Group 1874" transform="translate(0)">
        <path id="Path_2516" data-name="Path 2516" d="M1.151,235.4c1.026,2.429,2.776,4.01,3.908,3.531s1.218-2.835.192-5.263c-.743-1.759-3.193-4.557-4.486-5.964a.439.439,0,0,0-.762.322c.108,1.909.406,5.615,1.149,7.374Z" transform="translate(-0.001 -227.557)" fill="#aad880"/>
      </g>
      <g id="Group_1875" data-name="Group 1875">
        <path id="Path_2517" data-name="Path 2517" d="M5.249,233.665c-.743-1.759-3.193-4.557-4.486-5.964a.439.439,0,0,0-.762.322c.03.532.075,1.2.14,1.933a21.577,21.577,0,0,1,3.217,4.539,6.769,6.769,0,0,1,.553,4.341,1.4,1.4,0,0,0,1.146.093C6.189,238.45,6.275,236.094,5.249,233.665Z" transform="translate(0 -227.557)" fill="#80cb8e"/>
      </g>
      <g id="Group_1876" data-name="Group 1876" transform="translate(8.019 6.193)">
        <path id="Path_2518" data-name="Path 2518" d="M65.762,285.392c-.077,2.489.8,4.536,1.961,4.572s2.163-1.953,2.24-4.442c.056-1.8-.943-5.17-1.5-6.888a.415.415,0,0,0-.781-.024C67.024,280.29,65.818,283.589,65.762,285.392Z" transform="translate(-65.757 -278.346)" fill="#aad880"/>
      </g>
      <g id="Group_1877" data-name="Group 1877" transform="translate(51.14 6.193)">
        <path id="Path_2519" data-name="Path 2519" d="M422.654,285.393c-.056-1.8-1.262-5.1-1.922-6.782a.415.415,0,0,0-.781.024c-.163.506-.365,1.155-.567,1.865a19.652,19.652,0,0,1,1.218,4.894,6.427,6.427,0,0,1-.979,4,1.388,1.388,0,0,0,1.07.573C421.853,289.929,422.732,287.882,422.654,285.393Z" transform="translate(-419.384 -278.347)" fill="#80cb8e"/>
      </g>
      <g id="Group_1878" data-name="Group 1878" transform="translate(9.002 6.193)">
        <path id="Path_2520" data-name="Path 2520" d="M75.545,278.634a.415.415,0,0,0-.781-.024c-.2.51-.451,1.169-.7,1.889a19.88,19.88,0,0,1,.931,5.024,6.563,6.563,0,0,1-1.171,3.869,1.345,1.345,0,0,0,.983.573c1.16.036,2.163-1.953,2.24-4.442C77.1,283.719,76.1,280.352,75.545,278.634Z" transform="translate(-73.82 -278.346)" fill="#80cb8e"/>
      </g>
      <g id="Group_1879" data-name="Group 1879" transform="translate(14.347 12.411)">
        <path id="Path_2521" data-name="Path 2521" d="M118.35,335.083c-.981,2.289-.911,4.515.156,4.972s2.727-1.028,3.708-3.317c.711-1.658,1.01-5.158,1.121-6.96a.415.415,0,0,0-.718-.308C121.387,330.795,119.06,333.425,118.35,335.083Z" transform="translate(-117.657 -329.337)" fill="#aad880"/>
      </g>
      <g id="Group_1880" data-name="Group 1880" transform="translate(14.464 12.411)">
        <path id="Path_2522" data-name="Path 2522" d="M123.459,329.471c-.383.413-.873.953-1.388,1.551a19.413,19.413,0,0,1-.955,4.88,6.571,6.571,0,0,1-2.5,3.172,1.394,1.394,0,0,0,.731.981c1.067.457,2.727-1.028,3.708-3.317.711-1.658,1.01-5.158,1.121-6.96A.415.415,0,0,0,123.459,329.471Z" transform="translate(-118.618 -329.337)" fill="#80cb8e"/>
      </g>
      <g id="Group_1881" data-name="Group 1881" transform="translate(1.351 19.026)">
        <path id="Path_2523" data-name="Path 2523" d="M18.513,388.044c2.351-.82,3.948-2.373,3.566-3.469s-2.6-1.32-4.95-.5c-1.7.594-4.489,2.733-5.894,3.867a.415.415,0,0,0,.257.738c1.806.014,5.317-.042,7.021-.636Z" transform="translate(-11.079 -383.581)" fill="#aad880"/>
      </g>
      <g id="Group_1882" data-name="Group 1882" transform="translate(8.819 24.161)">
        <path id="Path_2524" data-name="Path 2524" d="M79.759,430.158c2.351-.82,3.948-2.373,3.566-3.469s-2.6-1.32-4.95-.5c-1.7.594-4.489,2.733-5.894,3.867a.415.415,0,0,0,.257.738C74.543,430.808,78.055,430.752,79.759,430.158Z" transform="translate(-72.325 -425.695)" fill="#aad880"/>
      </g>
      <g id="Group_1883" data-name="Group 1883" transform="translate(1.351 19.124)">
        <path id="Path_2525" data-name="Path 2525" d="M22.079,385.284a1.6,1.6,0,0,0-1.275-.9c-.361.955-1.72,2.018-3.526,2.647a18.812,18.812,0,0,1-4.758.609c-.489.372-.931.721-1.285,1.007a.415.415,0,0,0,.257.738c1.806.014,5.317-.042,7.021-.636C20.865,387.934,22.461,386.381,22.079,385.284Z" transform="translate(-11.08 -384.389)" fill="#80cb8e"/>
      </g>
      <g id="Group_1884" data-name="Group 1884" transform="translate(8.819 24.26)">
        <path id="Path_2526" data-name="Path 2526" d="M83.324,427.4a1.6,1.6,0,0,0-1.275-.9c-.361.955-1.72,2.018-3.526,2.647a18.812,18.812,0,0,1-4.758.609c-.489.372-.931.721-1.285,1.007a.415.415,0,0,0,.257.738c1.806.014,5.317-.042,7.021-.636C82.11,430.049,83.706,428.5,83.324,427.4Z" transform="translate(-72.325 -426.504)" fill="#80cb8e"/>
      </g>
    </g>
    <g id="Group_1886" data-name="Group 1886" transform="translate(23.906 29.069)">
      <circle id="Ellipse_233" data-name="Ellipse 233" cx="7.031" cy="7.031" r="7.031" fill="#ecbe6b"/>
    </g>
    <g id="Group_1887" data-name="Group 1887" transform="translate(24.411 29.575)">
      <path id="Path_2527" data-name="Path 2527" d="M209.335,95.87a7.031,7.031,0,0,1-9.143,9.143,7.031,7.031,0,1,0,9.143-9.143Z" transform="translate(-200.192 -95.87)" fill="#eab14d"/>
    </g>
    <g id="Group_1888" data-name="Group 1888" transform="translate(27.505 32.717)">
      <path id="Path_2528" data-name="Path 2528" d="M229.507,121.9l.736,1.491a.459.459,0,0,0,.346.251l1.646.239a.459.459,0,0,1,.254.783l-1.191,1.161a.459.459,0,0,0-.132.406l.281,1.639a.459.459,0,0,1-.666.484l-1.472-.774a.459.459,0,0,0-.427,0l-1.472.774a.459.459,0,0,1-.666-.484l.281-1.639a.459.459,0,0,0-.132-.406l-1.191-1.161a.459.459,0,0,1,.255-.783l1.646-.239a.459.459,0,0,0,.346-.251l.736-1.491A.459.459,0,0,1,229.507,121.9Z" transform="translate(-225.563 -121.64)" fill="#ffe07d"/>
    </g>
    <g id="Group_1890" data-name="Group 1890" transform="translate(31.773 34.868)">
      <g id="Group_1889" data-name="Group 1889" transform="translate(0 0)">
        <path id="Path_2529" data-name="Path 2529" d="M263.22,140.148a.459.459,0,0,0-.255-.783l-.6-.087-1.6,1.559a.68.68,0,0,0-.2.6l.359,2.094.582.306a.459.459,0,0,0,.666-.484l-.281-1.639a.459.459,0,0,1,.132-.406Z" transform="translate(-260.561 -139.277)" fill="#ffd064"/>
      </g>
    </g>
    <g id="Group_1891" data-name="Group 1891" transform="translate(21.06 67.121)">
      <path id="Path_2530" data-name="Path 2530" d="M192,414.493H173.756a1.044,1.044,0,0,1-1.044-1.044v-8.626a1.044,1.044,0,0,1,1.044-1.044H192a1.044,1.044,0,0,1,1.044,1.044v8.626A1.043,1.043,0,0,1,192,414.493Z" transform="translate(-172.712 -403.78)" fill="#407093"/>
    </g>
    <g id="Group_1892" data-name="Group 1892" transform="translate(21.06 67.121)">
      <path id="Path_2531" data-name="Path 2531" d="M192,403.779h-1.977v6.655a1.041,1.041,0,0,1-1.041,1.041H172.712v1.977a1.041,1.041,0,0,0,1.041,1.041H192a1.041,1.041,0,0,0,1.041-1.041V404.82A1.041,1.041,0,0,0,192,403.779Z" transform="translate(-172.712 -403.779)" fill="#365e7d"/>
    </g>
  </g>
</svg>
