<svg xmlns="http://www.w3.org/2000/svg" width="56.069" height="58.001" viewBox="0 0 56.069 58.001">
  <g id="XMLID_11_" transform="translate(-0.965 0.001)">
    <path id="XMLID_121_" d="M32.835,18.169A4.988,4.988,0,0,1,29.3,16.707a1,1,0,0,1,1.414-1.414,3.005,3.005,0,0,0,4.243,0,1,1,0,0,1,1.414,1.414,4.984,4.984,0,0,1-3.535,1.462" fill="#f1edf8"/>
    <path id="XMLID_120_" d="M39.034,39.689h0v-4c0-.847,2.617-2.337,6.232-2.885a18.972,18.972,0,0,0-5.656-7.08L32.362,20.8a10.38,10.38,0,0,0-1.206-.8,25.479,25.479,0,0,1-1.127-5.212l-.518-4.813a5.648,5.648,0,0,1,0-1.28c.064-.539.135-1.312.165-1.4.063-.182.149-.388.233-.59a13.487,13.487,0,0,1,1.422-2.3,5.83,5.83,0,0,1,.57-.586A1.917,1.917,0,0,0,31.324.51a9.7,9.7,0,0,0-2.513-.5c-.083,0-.167,0-.25,0-.2,0-.4-.012-.6,0a5.921,5.921,0,0,0-3.418,1.3,1.965,1.965,0,0,1-1.216.435,1.981,1.981,0,0,1-1.235-.437A6.079,6.079,0,0,0,17.828.011a9.7,9.7,0,0,0-2.512.5,1.917,1.917,0,0,0-.582,3.311,5.264,5.264,0,0,1,.383.373q.062.061.12.123c.171.187.345.4.521.621A9.169,9.169,0,0,1,16.979,7.3c.067.194.135,1.265.24,1.851a6.357,6.357,0,0,1,.111,1.126V13.76a25.471,25.471,0,0,1-.737,6.038,7.66,7.66,0,0,0-1.357.83L8.188,25.763A18.6,18.6,0,0,0,2.91,48.693c1.663,3.281,3.968,6.1,6.675,6.28.25.018.5.027.756.027H30.035a6.57,6.57,0,0,1-.613-1.422c.1,0,.208,0,.311-.011,6.523-.44,10.737-4.5,9.3-10.265V39.689Z" fill="#2aa2e0"/>
    <path id="XMLID_119_" d="M48.034,41.592c-4.971,0-9-.852-9-1.9v4c0,1.051,4.031,1.9,9,1.9s9-.852,9-1.9v-4c0,1.052-4.028,1.9-9,1.9" fill="#c7a02d"/>
    <path id="XMLID_118_" d="M39.034,39.687Z" fill="#d19d18"/>
    <path id="XMLID_117_" d="M57.034,39.687Z" fill="#d19d18"/>
    <path id="XMLID_116_" d="M57.034,35.688c0,1.052-4.029,1.9-9,1.9s-9-.852-9-1.9,4.029-3.1,9-3.1,9,2.045,9,3.1" fill="#fcd86e"/>
    <path id="XMLID_115_" d="M48.034,37.592c-4.971,0-9-.852-9-1.9v4c0,1.051,4.031,1.9,9,1.9s9-.852,9-1.9v-4c0,1.052-4.028,1.9-9,1.9" fill="#e2b73b"/>
    <path id="XMLID_114_" d="M39.034,35.687Z" fill="#e4af18"/>
    <path id="XMLID_113_" d="M57.034,35.687Z" fill="#e4af18"/>
    <path id="XMLID_112_" d="M30.034,17h-13a1,1,0,1,1,0-2h13a1,1,0,0,1,0,2" fill="#f1edf8"/>
    <path id="XMLID_111_" d="M30.034,14h-13a1,1,0,0,1,0-2h13a1,1,0,0,1,0,2" fill="#f1edf8"/>
    <path id="XMLID_110_" d="M30.034,11h-13a1,1,0,0,1,0-2h13a1,1,0,0,1,0,2" fill="#f1edf8"/>
    <path id="XMLID_109_" d="M48.034,53.592a35.387,35.387,0,0,1-5.364-.377,7,7,0,0,1-2.477,3.406,25.5,25.5,0,0,0,7.841.971c4.969,0,9-.852,9-1.9v-4c0,1.052-4.028,1.9-9,1.9" fill="#e2b73b"/>
    <path id="XMLID_108_" d="M48.034,45.592c-4.971,0-9-.852-9-1.9v.994A7.006,7.006,0,0,1,42.8,49.235a35.7,35.7,0,0,0,5.233.357c4.969,0,9-.852,9-1.9v-4c0,1.052-4.028,1.9-9,1.9" fill="#e2b73b"/>
    <path id="XMLID_107_" d="M48.034,49.592a35.7,35.7,0,0,1-5.233-.357,6.868,6.868,0,0,1-.131,3.98,35.387,35.387,0,0,0,5.364.377c4.969,0,9-.852,9-1.9v-4c0,1.052-4.028,1.9-9,1.9" fill="#c7a02d"/>
    <path id="XMLID_106_" d="M43.034,51a7,7,0,1,1-7-7,7,7,0,0,1,7,7" fill="#fcd86e"/>
    <path id="XMLID_105_" d="M8.034,41a1,1,0,0,1-1-1c0-6.869,7.589-15,14-15a1,1,0,0,1,0,2c-5.271,0-12,7.29-12,13a1,1,0,0,1-1,1" fill="#f1edf8"/>
  </g>
</svg>
