<svg id="_001-allergies" data-name="001-allergies" xmlns="http://www.w3.org/2000/svg" width="50.602" height="50.602" viewBox="0 0 50.602 50.602">
  <path id="Path_2095" data-name="Path 2095" d="M351.95,292.079a2.668,2.668,0,1,0-2.668,2.668A2.671,2.671,0,0,0,351.95,292.079Zm-3.854,0a1.186,1.186,0,1,1,1.186,1.186A1.187,1.187,0,0,1,348.1,292.079Zm0,0" transform="translate(-328.972 -274.663)" fill="#333564"/>
  <path id="Path_2096" data-name="Path 2096" d="M593.551,417.973a2.668,2.668,0,1,0,2.668-2.668A2.671,2.671,0,0,0,593.551,417.973Zm2.668-1.186a1.186,1.186,0,1,1-1.186,1.186A1.187,1.187,0,0,1,596.219,416.787Zm0,0" transform="translate(-563.414 -394.187)" fill="#333564"/>
  <path id="Path_2097" data-name="Path 2097" d="M324.629,541.863a3.781,3.781,0,1,0,3.781-3.781A3.785,3.785,0,0,0,324.629,541.863Zm3.781-2.3a2.3,2.3,0,1,1-2.3,2.3A2.3,2.3,0,0,1,328.41,539.565Zm0,0" transform="translate(-308.1 -510.752)" fill="#333564"/>
  <path id="Path_2098" data-name="Path 2098" d="M45.914,20.613A2.637,2.637,0,0,0,43.4,22.54H40.148c-.419-1.384-1.23-2.045-1.4-2.789-.223-.979.523-2.566-.105-3.868s-2.356-1.734-2.96-2.491a3.429,3.429,0,0,1-.463-1l5.712-5.712A3.047,3.047,0,0,0,42.5,7.17a3.112,3.112,0,1,0-2.2-5.313,3.073,3.073,0,0,0-.418,3.771l-5.257,5.257a2.7,2.7,0,0,0-2.347-1.551.741.741,0,1,0-.212,1.467c1.052.152,1.209.443,1.639,1.763a4.066,4.066,0,0,0,2.337,2.929c1.434.857,1.5,1.02,1.282,2.638a4.061,4.061,0,0,0,.823,3.646c.924,1.4.924,1.608,0,3.009a4.065,4.065,0,0,0-.823,3.647c.216,1.621.149,1.782-1.283,2.638A4.065,4.065,0,0,0,33.71,34c-.515,1.577-.654,1.681-2.292,1.833a4.067,4.067,0,0,0-3.371,1.621c-1.158,1.21-1.332,1.236-2.85.669a5.524,5.524,0,0,0-1.914-.463c-1.323,0-2.661.981-3.465.8a3.2,3.2,0,0,1-1.3-1,4.068,4.068,0,0,0-3.372-1.622c-1.639-.152-1.778-.257-2.293-1.834a4.067,4.067,0,0,0-2.337-2.929c-1.434-.857-1.5-1.019-1.282-2.637a4.064,4.064,0,0,0-.823-3.647c-.924-1.4-.924-1.608,0-3.009a4.063,4.063,0,0,0,.823-3.647c-.215-1.618-.152-1.78,1.283-2.637a5.391,5.391,0,0,0,1.522-1.176,5.422,5.422,0,0,0,.814-1.753,3.2,3.2,0,0,1,.724-1.452,3.188,3.188,0,0,1,1.569-.381,4.068,4.068,0,0,0,3.372-1.621c1.155-1.208,1.328-1.237,2.85-.669a4.181,4.181,0,0,0,3.828,0c1.869-.7,1.739-.389,3.284,1.11a.741.741,0,0,0,1.032-1.064c-.129-.125-.257-.26-.394-.4-1.608-1.68-2.4-1.8-4.44-1.033-.226.084-.444.162-.654.227V3.167A2.638,2.638,0,0,0,25.95.649a2.668,2.668,0,1,0-5.337,0A2.637,2.637,0,0,0,22.54,3.167v4.11c-.211-.065-.428-.143-.655-.227-2.044-.763-2.832-.648-4.44,1.033a4.3,4.3,0,0,1-1.048.9,4.372,4.372,0,0,1-1.389.266c-1.491.138-2.4.332-3.075,1.632L7.788,6.739a3.243,3.243,0,0,0-.418-4.015,3.288,3.288,0,0,0-4.645,0A3.251,3.251,0,0,0,6.739,7.788l4.6,4.6c-.35,1.036-.482,1.169-1.587,1.829-1.965,1.174-2.285,1.9-1.991,4.106a4.4,4.4,0,0,1,.05,1.425c-.169.745-.98,1.405-1.4,2.789H3.167A2.637,2.637,0,0,0,.649,20.613a2.668,2.668,0,0,0,0,5.337,2.638,2.638,0,0,0,2.518-1.927H6.415c.419,1.384,1.23,2.044,1.4,2.789.222.978-.523,2.567.1,3.868s2.357,1.734,2.961,2.491a3.44,3.44,0,0,1,.463,1L8.534,36.98a2.637,2.637,0,0,0-3.143.418,2.67,2.67,0,0,0,1.887,4.554,2.628,2.628,0,0,0,2.3-3.923l2.351-2.351c1.1,2.117,3.307,1.34,4.464,1.9.875.422,1.656,2,3.091,2.329,1.069.243,2.1-.323,3.052-.62V43.4a2.637,2.637,0,0,0-1.927,2.518,2.668,2.668,0,1,0,5.337,0A2.637,2.637,0,0,0,24.022,43.4v-4.11c.97.3,1.985.863,3.052.62,1.43-.325,2.223-1.911,3.09-2.329,1.171-.565,3.358.23,4.464-1.9l.778.779a.742.742,0,0,0,1.049-1.049L35.22,34.172c.35-1.037.483-1.169,1.587-1.829,1.964-1.174,2.285-1.9,1.991-4.106a2.716,2.716,0,0,1,.591-2.635,6.11,6.11,0,0,0,.758-1.58h3.247a2.638,2.638,0,0,0,2.519,1.927,2.668,2.668,0,0,0,0-5.337ZM42.5,2.428A1.63,1.63,0,1,1,41.352,5.21,1.633,1.633,0,0,1,42.5,2.428ZM22.1.649a1.186,1.186,0,1,1,1.186,1.186A1.187,1.187,0,0,1,22.1.649ZM3.773,6.321a1.8,1.8,0,1,1,2.549,0A1.8,1.8,0,0,1,3.773,6.321ZM.649,24.467a1.186,1.186,0,1,1,1.186-1.186A1.187,1.187,0,0,1,.649,24.467ZM8.117,40.123A1.186,1.186,0,1,1,7.278,38.1,1.187,1.187,0,0,1,8.117,40.123Zm16.351,5.79a1.186,1.186,0,1,1-1.186-1.186A1.187,1.187,0,0,1,24.467,45.914ZM45.914,24.467A1.186,1.186,0,1,1,47.1,23.281,1.187,1.187,0,0,1,45.914,24.467Zm0,0" transform="translate(2.02 2.02)" fill="#333564"/>
  <path id="Path_2099" data-name="Path 2099" d="M778.095,777.052l-1.265-1.266a.742.742,0,0,0-1.049,1.049l1.266,1.265a3.179,3.179,0,0,0,.418,3.925,3.221,3.221,0,1,0,4.556-4.556A3.179,3.179,0,0,0,778.095,777.052Zm2.877,3.926a1.739,1.739,0,1,1,0-2.459A1.738,1.738,0,0,1,780.972,780.977Zm0,0" transform="translate(-736.217 -736.222)" fill="#333564"/>
</svg>
