<svg xmlns="http://www.w3.org/2000/svg" width="51.193" height="82.386" viewBox="0 0 51.193 82.386">
  <g id="_004-father" data-name="004-father" transform="translate(-96.925)">
    <g id="Group_1895" data-name="Group 1895" transform="translate(96.925)">
      <path id="Path_2532" data-name="Path 2532" d="M147.793,338.318h-49.4a.846.846,0,0,1-.846-.846V324.713a19.7,19.7,0,0,1,19.7-19.7h11.691a19.7,19.7,0,0,1,19.7,19.7v12.759A.846.846,0,0,1,147.793,338.318Z" transform="translate(-97.445 -255.933)" fill="#f6e080"/>
      <path id="Path_2533" data-name="Path 2533" d="M148.641,330.84V341.4l-25.6,1.6-25.5-1.6V330.84a19.709,19.709,0,0,1,12.984-18.527h25.124a19.709,19.709,0,0,1,12.985,18.527Z" transform="translate(-97.448 -262.059)" fill="#f6e080"/>
      <path id="Path_2534" data-name="Path 2534" d="M98.391,496.121h7.979l1.269-1.448,1.269,1.448h28.37l1.269-1.448,1.269,1.448h7.979a.846.846,0,0,0,.846-.846v-2.2H97.545v2.2a.846.846,0,0,0,.846.846Z" transform="translate(-97.445 -413.735)" fill="#eccd61"/>
      <path id="Path_2535" data-name="Path 2535" d="M248.421,351.875v12.219a1.269,1.269,0,1,0,2.537,0V351.875Z" transform="translate(-224.044 -295.255)" fill="#ecb85e"/>
      <path id="Path_2536" data-name="Path 2536" d="M178.239,306.261l4.883,11.876a.846.846,0,0,0,1.236.392l6.443-4.095-1.832-4.674-4.719-4.66A19.631,19.631,0,0,0,178.239,306.261Z" transform="translate(-165.155 -256.006)" fill="#fcf5f5"/>
      <path id="Path_2537" data-name="Path 2537" d="M262.857,305.1l-4.719,4.66-1.832,4.674,6.443,4.095a.846.846,0,0,0,1.236-.392l4.883-11.876A19.641,19.641,0,0,0,262.857,305.1Z" transform="translate(-230.66 -256.006)" fill="#fcf5f5"/>
      <path id="Path_2538" data-name="Path 2538" d="M222.1,314.362l-6.56-9.349h13.121Z" transform="translate(-196.45 -255.933)" fill="#e2ae84"/>
      <path id="Path_2539" data-name="Path 2539" d="M144.261,29.071C151.292,6.636,133.2,5.835,133.2,5.835S131.061,0,121.437,0C112.148,0,106.291,2.874,98.2,1.564a.847.847,0,0,0-.984.753c-.355,3.728-1.3,17.978,4.1,25.638q.3.425.625.822Z" transform="translate(-96.925)" fill="#26457d"/>
      <path id="Path_2540" data-name="Path 2540" d="M128.975,156.175a5.33,5.33,0,0,0-4.7,2.823,13.361,13.361,0,0,0,1.231,1.511l4.025.128V156.2A5.433,5.433,0,0,0,128.975,156.175Z" transform="translate(-119.87 -131.045)" fill="#21386b"/>
      <path id="Path_2541" data-name="Path 2541" d="M360.811,161.821q.308-.873.568-1.7a5.335,5.335,0,0,0-5.7-3.912v5.453Z" transform="translate(-314.045 -131.046)" fill="#21386b"/>
      <path id="Path_2542" data-name="Path 2542" d="M348.682,175.1a5.385,5.385,0,0,0-.551.028l-1.448,6.409,1.407,1.148.592,1.631a4.875,4.875,0,0,0,5.111-5.406,5.334,5.334,0,0,0-5.111-3.809Z" transform="translate(-306.494 -146.924)" fill="#e2ae84"/>
      <path id="Path_2543" data-name="Path 2543" d="M347.53,202.58a5.358,5.358,0,0,1-.593-.034l-1.627,1.507,1.133,1.461a5.333,5.333,0,0,0,6.2-6.743A5.333,5.333,0,0,1,347.53,202.58Z" transform="translate(-305.342 -166.787)" fill="#d7a379"/>
      <path id="Path_2544" data-name="Path 2544" d="M126.686,175.1a5.385,5.385,0,0,1,.551.028l1.448,6.409-1.407,1.148-.592,1.631a4.875,4.875,0,0,1-5.111-5.406,5.334,5.334,0,0,1,5.111-3.809Z" transform="translate(-117.581 -146.924)" fill="#e2ae84"/>
      <path id="Path_2545" data-name="Path 2545" d="M125.707,202.58a5.358,5.358,0,0,0,.593-.034l1.627,1.507-1.133,1.461a5.333,5.333,0,0,1-6.2-6.743A5.333,5.333,0,0,0,125.707,202.58Z" transform="translate(-116.602 -166.787)" fill="#d7a379"/>
      <path id="Path_2546" data-name="Path 2546" d="M188.916,105.752v8.679a15.99,15.99,0,0,1-15.99,15.99h0a15.99,15.99,0,0,1-15.99-15.99V97.7a.845.845,0,0,1,1.26-.737c2.834,1.61,10.465,4.644,23.065.441a.844.844,0,0,1,1.056.492,13.845,13.845,0,0,0,6.157,7.115A.843.843,0,0,1,188.916,105.752Z" transform="translate(-147.28 -81.267)" fill="#f0c69e"/>
      <path id="Path_2547" data-name="Path 2547" d="M172.927,212.168a15.99,15.99,0,0,1-15.99-15.99v3.045a15.99,15.99,0,1,0,31.98,0v-3.045A15.99,15.99,0,0,1,172.927,212.168Z" transform="translate(-147.281 -164.611)" fill="#e6ba94"/>
      <g id="Group_1893" data-name="Group 1893" transform="translate(8.924 69.948)">
        <path id="Path_2548" data-name="Path 2548" d="M154.923,435.975V444.1l-1.269,1.448-1.269-1.448v-8.124a1.269,1.269,0,1,1,2.538,0Z" transform="translate(-152.385 -434.706)" fill="#ecb85e"/>
        <path id="Path_2549" data-name="Path 2549" d="M347,435.975V444.1l-1.269,1.448-1.269-1.448v-8.124a1.269,1.269,0,1,1,2.538,0Z" transform="translate(-313.557 -434.706)" fill="#ecb85e"/>
      </g>
      <g id="Group_1894" data-name="Group 1894" transform="translate(8.924 79.341)">
        <path id="Path_2550" data-name="Path 2550" d="M152.385,493.076h2.538v3.045h-2.538Z" transform="translate(-152.385 -493.076)" fill="#eaa949"/>
        <path id="Path_2551" data-name="Path 2551" d="M344.464,493.076H347v3.045h-2.538Z" transform="translate(-313.557 -493.076)" fill="#eaa949"/>
      </g>
    </g>
    <g id="Group_1896" data-name="Group 1896" transform="translate(113.651 29.382)">
      <path id="Path_2552" data-name="Path 2552" d="M202.12,182.6a1.248,1.248,0,0,0-1.248,1.248v3.527a1.248,1.248,0,1,0,2.5,0v-3.527A1.248,1.248,0,0,0,202.12,182.6Z" transform="translate(-200.872 -182.599)" fill="#5e6b75"/>
      <path id="Path_2553" data-name="Path 2553" d="M296.862,188.622a1.248,1.248,0,0,0,1.248-1.248v-3.527a1.248,1.248,0,0,0-2.5,0v3.527A1.248,1.248,0,0,0,296.862,188.622Z" transform="translate(-280.369 -182.599)" fill="#5e6b75"/>
      <path id="Path_2554" data-name="Path 2554" d="M236.113,245.04a1.251,1.251,0,0,0-2.313-.952c0,.01-.485,1.055-2.288,1.055s-2.284-1.045-2.288-1.055a1.251,1.251,0,0,0-2.313.952,5.367,5.367,0,0,0,9.2,0Z" transform="translate(-222.642 -233.543)" fill="#dc4955"/>
    </g>
  </g>
</svg>
