<svg xmlns="http://www.w3.org/2000/svg" width="50.872" height="50.709" viewBox="0 0 50.872 50.709">
  <g id="_006-bone" data-name="006-bone" transform="translate(0 0)">
    <path id="Path_2075" data-name="Path 2075" d="M22.051,32.238,18.2,36.087a4.35,4.35,0,0,0-1.09,4.4,5.328,5.328,0,1,1-10.285.438.741.741,0,0,0-.885-.885,5.328,5.328,0,1,1,.437-10.286,4.349,4.349,0,0,0,4.4-1.089L28.629,10.81a4.349,4.349,0,0,0,1.089-4.4A5.3,5.3,0,0,1,33.555-.362a.741.741,0,0,0,.553-.89.74.74,0,0,0-.889-.553,6.778,6.778,0,0,0-4.913,8.664,2.872,2.872,0,0,1-.725,2.9L9.73,27.615a2.872,2.872,0,0,1-2.9.725,6.81,6.81,0,1,0-1.6,13.3,6.81,6.81,0,1,0,13.295-1.6,2.873,2.873,0,0,1,.725-2.9L23.1,33.285a.74.74,0,0,0-1.047-1.047Zm0,0" transform="translate(2.021 1.824)" fill="#333564"/>
    <path id="Path_2076" data-name="Path 2076" d="M535.569,10.164a6.768,6.768,0,0,0-4.258-6.772.741.741,0,0,0-.542,1.378,5.3,5.3,0,0,1,3.2,6.106.741.741,0,0,0,.885.885,5.312,5.312,0,0,1,4.955,1.439,5.394,5.394,0,0,1-.1,7.627,5.334,5.334,0,0,1-5.289,1.22,4.349,4.349,0,0,0-4.4,1.089l-11.3,11.3a.741.741,0,0,0,.524,1.264c.585,0,.026.162,11.827-11.521a2.873,2.873,0,0,1,2.9-.725,6.81,6.81,0,1,0,1.6-13.3Zm0,0" transform="translate(-491.947 -3.077)" fill="#333564"/>
  </g>
</svg>
