<svg xmlns="http://www.w3.org/2000/svg" width="53.813" height="86.771" viewBox="0 0 53.813 86.771">
  <g id="_017-son" data-name="017-son" transform="translate(-97.235)">
    <g id="Group_1906" data-name="Group 1906" transform="translate(97.235)">
      <path id="Path_2582" data-name="Path 2582" d="M151.048,336.885V325.763a20.75,20.75,0,0,0-20.75-20.75H117.985a20.75,20.75,0,0,0-20.75,20.75v11.122l26.906,1.525Z" transform="translate(-97.235 -253.321)" fill="#9ec8fc"/>
      <path id="Path_2583" data-name="Path 2583" d="M229.036,305.013s.317,8.243-6.909,8.243-6.909-8.243-6.909-8.243Z" transform="translate(-195.22 -253.321)" fill="#e2ae84"/>
      <path id="Path_2584" data-name="Path 2584" d="M168.6,148.43a65.374,65.374,0,0,0-.036-8.74H124.153a65.349,65.349,0,0,0-.036,8.74Z" transform="translate(-119.455 -116.016)" fill="#26457d"/>
      <path id="Path_2585" data-name="Path 2585" d="M121.444,179.111c0,2.13,1.41,5.725,3.954,5.725l2.053-1.748,2.564-1.96-2.608-6a5.619,5.619,0,0,0-5.963,3.982Z" transform="translate(-117.341 -145.424)" fill="#e2ae84"/>
      <path id="Path_2586" data-name="Path 2586" d="M125.682,202.784a5.617,5.617,0,0,1-5.382-4.012,5.618,5.618,0,0,0,6.527,7.1l1.212-1.6-1.732-1.521a5.636,5.636,0,0,1-.625.036Z" transform="translate(-116.197 -165.085)" fill="#d7a379"/>
      <path id="Path_2587" data-name="Path 2587" d="M348.554,179.111c0,2.13-1.41,5.725-3.954,5.725l-2.053-1.748-2.564-1.96,2.608-6a5.619,5.619,0,0,1,5.963,3.982Z" transform="translate(-298.844 -145.424)" fill="#e2ae84"/>
      <path id="Path_2588" data-name="Path 2588" d="M347.251,202.784a5.617,5.617,0,0,0,5.382-4.012,5.618,5.618,0,0,1-6.527,7.1l-1.212-1.6,1.732-1.521a5.637,5.637,0,0,0,.625.036Z" transform="translate(-302.923 -165.085)" fill="#d7a379"/>
      <path id="Path_2589" data-name="Path 2589" d="M184.771,132.215l-11.3-1.525-11.3,1.525c-3.208,5.282-5.538,6.031-5.539,6.031v5.586a16.845,16.845,0,0,0,33.682,0v-5.586S187.978,137.5,184.771,132.215Z" transform="translate(-146.562 -108.541)" fill="#f0c69e"/>
      <path id="Path_2590" data-name="Path 2590" d="M173.468,213.019a16.841,16.841,0,0,1-16.841-16.841v3.207a16.841,16.841,0,0,0,33.682,0v-3.207a16.841,16.841,0,0,1-16.841,16.841Z" transform="translate(-146.562 -162.931)" fill="#e6ba94"/>
      <path id="Path_2591" data-name="Path 2591" d="M98.126,496.283h8.4l1.336-1.525,1.336,1.525h29.88l1.336-1.525,1.336,1.525h8.4a.891.891,0,0,0,.891-.891v-2.316H97.235v2.316a.891.891,0,0,0,.891.891Z" transform="translate(-97.235 -409.512)" fill="#80b6fc"/>
      <g id="Group_1904" data-name="Group 1904" transform="translate(9.294 73.671)">
        <path id="Path_2592" data-name="Path 2592" d="M154.749,436.042V444.6l-1.336,1.525-1.336-1.525v-8.556a1.336,1.336,0,0,1,2.673,0Z" transform="translate(-152.076 -434.706)" fill="#6eaaf3"/>
        <path id="Path_2593" data-name="Path 2593" d="M346.827,436.042V444.6l-1.336,1.525-1.336-1.525v-8.556a1.336,1.336,0,1,1,2.673,0Z" transform="translate(-311.602 -434.706)" fill="#6eaaf3"/>
      </g>
      <g id="Group_1905" data-name="Group 1905" transform="translate(9.294 83.564)">
        <path id="Path_2594" data-name="Path 2594" d="M152.076,493.076h2.673v3.207h-2.673Z" transform="translate(-152.076 -493.076)" fill="#5d9ee6"/>
        <path id="Path_2595" data-name="Path 2595" d="M344.154,493.076h2.673v3.207h-2.673Z" transform="translate(-311.602 -493.076)" fill="#5d9ee6"/>
      </g>
      <path id="Path_2596" data-name="Path 2596" d="M166.3,20.467C164.275,4.706,153.542,0,143.3,0s-20.976,4.706-23,20.467l23,1.525Z" transform="translate(-116.393 0)" fill="#dc4955"/>
      <path id="Path_2597" data-name="Path 2597" d="M119.191,120.766q-.14,1.092-.224,2.255a.891.891,0,0,0,.889.953h15.171l7.16-1.525,7.162,1.525h15.17a.891.891,0,0,0,.889-.953q-.083-1.163-.224-2.255Z" transform="translate(-115.282 -100.299)" fill="#d82f3c"/>
      <path id="Path_2598" data-name="Path 2598" d="M228.068,73.321l-7.162,1.525-7.16-1.525v-.449a7.161,7.161,0,1,1,14.322,0v.449Z" transform="translate(-194 -54.575)" fill="#26457d"/>
      <path id="Path_2599" data-name="Path 2599" d="M228.067,112.334l-7.161,1.525-7.161-1.525v-1.72h14.322Z" transform="translate(-194 -91.868)" fill="#f6e080"/>
      <path id="Path_2600" data-name="Path 2600" d="M213.745,120.766h14.322v3.207H213.745Z" transform="translate(-194 -100.299)" fill="#eccd61"/>
    </g>
    <g id="Group_1907" data-name="Group 1907" transform="translate(114.626 29.914)">
      <path id="Path_2601" data-name="Path 2601" d="M201.193,176.512a1.339,1.339,0,0,0-1.339,1.339v3.783a1.339,1.339,0,0,0,2.678,0v-3.783A1.339,1.339,0,0,0,201.193,176.512Z" transform="translate(-199.854 -176.512)" fill="#5e6b75"/>
      <path id="Path_2602" data-name="Path 2602" d="M297.685,182.973a1.339,1.339,0,0,0,1.339-1.339v-3.783a1.339,1.339,0,1,0-2.678,0v3.783A1.339,1.339,0,0,0,297.685,182.973Z" transform="translate(-279.993 -176.512)" fill="#5e6b75"/>
      <path id="Path_2603" data-name="Path 2603" d="M236.381,240.622a1.337,1.337,0,0,0-2.472-1.018c0,.011-.518,1.128-2.445,1.128s-2.44-1.117-2.445-1.128a1.337,1.337,0,0,0-2.472,1.018,5.735,5.735,0,0,0,9.834,0Z" transform="translate(-221.94 -228.224)" fill="#dc4955"/>
    </g>
  </g>
</svg>
