<svg xmlns="http://www.w3.org/2000/svg" width="66.799" height="50.745" viewBox="0 0 66.799 50.745">
  <g id="_039-skin" data-name="039-skin" transform="translate(0 0)">
    <path id="Path_2081" data-name="Path 2081" d="M63.8,719.676H-1.041a.979.979,0,0,0-.979.978.979.979,0,0,0,.979.978H63.8a.978.978,0,1,0,0-1.957Zm0,0" transform="translate(2.02 -670.888)" fill="#333564"/>
    <path id="Path_2082" data-name="Path 2082" d="M15.346,278.608c-2.514,0-2.816,2.609-4.1,2.609s-1.577-2.609-4.1-2.609-2.816,2.609-4.1,2.609-1.577-2.609-4.1-2.609a.979.979,0,0,0-.979.978.979.979,0,0,0,.979.978c.5,0,.748.255,1.278.931a3.461,3.461,0,0,0,2.818,1.679c2.515,0,2.817-2.61,4.1-2.61s1.578,2.61,4.1,2.61,2.817-2.61,4.1-2.61c1.156,0,1.4,1.973,3.331,2.484a12.895,12.895,0,0,0,25.427-.01c1.853-.533,2.131-2.474,3.271-2.474,1.28,0,1.577,2.61,4.1,2.61s2.817-2.61,4.1-2.61,1.577,2.61,4.1,2.61,2.818-2.61,4.1-2.61a.978.978,0,1,0,0-1.957c-2.515,0-2.817,2.609-4.1,2.609s-1.577-2.609-4.1-2.609-2.816,2.609-4.1,2.609-1.576-2.609-4.1-2.609c-1.59,0-2.279,1.034-3.087,1.975a12.958,12.958,0,0,0-.27-2.378A1.829,1.829,0,0,1,45.806,276H63.8a.978.978,0,1,0,0-1.957h-18a3.786,3.786,0,0,0-3.7,4.571c2.227,10.518-10.674,17.722-18.419,10.083A10.934,10.934,0,0,1,20.66,278.6a3.8,3.8,0,0,0-3.733-4.565H-1.041a.979.979,0,0,0-.979.978.979.979,0,0,0,.979.978H16.926a1.843,1.843,0,0,1,1.819,2.2,12.969,12.969,0,0,0-.256,2.449C17.671,279.725,17.008,278.608,15.346,278.608Zm0,0" transform="translate(2.02 -255.066)" fill="#333564"/>
    <path id="Path_2083" data-name="Path 2083" d="M255.677,545.845a1.7,1.7,0,1,1-1.7-1.7A1.7,1.7,0,0,1,255.677,545.845Zm0,0" transform="translate(-235.271 -507.104)" fill="#333564"/>
    <path id="Path_2084" data-name="Path 2084" d="M47.021,610.2a1.7,1.7,0,1,1-1.7-1.7A1.7,1.7,0,0,1,47.021,610.2Zm0,0" transform="translate(-40.575 -567.15)" fill="#333564"/>
    <path id="Path_2085" data-name="Path 2085" d="M111.373,485.368a1.7,1.7,0,1,1-1.7-1.7A1.7,1.7,0,0,1,111.373,485.368Zm0,0" transform="translate(-100.621 -450.673)" fill="#333564"/>
    <path id="Path_2086" data-name="Path 2086" d="M694.81,545.845a1.7,1.7,0,1,1-1.7-1.7A1.7,1.7,0,0,1,694.81,545.845Zm0,0" transform="translate(-645.025 -507.104)" fill="#333564"/>
    <path id="Path_2087" data-name="Path 2087" d="M903.466,610.2a1.7,1.7,0,1,1-1.7-1.7A1.7,1.7,0,0,1,903.466,610.2Zm0,0" transform="translate(-839.721 -567.15)" fill="#333564"/>
    <path id="Path_2088" data-name="Path 2088" d="M839.115,485.368a1.7,1.7,0,1,1-1.7-1.7A1.7,1.7,0,0,1,839.115,485.368Zm0,0" transform="translate(-779.675 -450.673)" fill="#333564"/>
    <path id="Path_2089" data-name="Path 2089" d="M381.894,24.615a8.274,8.274,0,0,0,6.433-13.459,14.187,14.187,0,0,1-2.561-4.874.978.978,0,1,0-1.875.561c1.641,5.48,4.313,5.608,4.313,9.5a6.311,6.311,0,1,1-11.281-3.89,17,17,0,0,0,3.459-7.733l1.51-9.359,1.024,6.346A.979.979,0,1,0,384.85,1.4l-1.58-9.788a1.4,1.4,0,0,0-2.753,0l-2.066,12.8a15.042,15.042,0,0,1-3.066,6.836,8.277,8.277,0,0,0,6.51,13.366Zm0,0" transform="translate(-348.494 9.555)" fill="#333564"/>
  </g>
</svg>
