<svg xmlns="http://www.w3.org/2000/svg" width="31.896" height="50.27" viewBox="0 0 31.896 50.27">
  <g id="_042-stomach" data-name="042-stomach" transform="translate(0 0)">
    <path id="Path_2077" data-name="Path 2077" d="M12.747,6.179a.736.736,0,0,0-.933,1.14c3.92,3.209,5.407,8.567,5.008,13.582-1.409.7-6.823,3.161-9.868,1.061a7.365,7.365,0,0,0-7.727-.451,3.153,3.153,0,0,0-.813-.978c-2-1.538-3.356-5.1-2.224-8.9A9.422,9.422,0,0,1,9.082,5.682a.736.736,0,1,0,.562-1.361A10.967,10.967,0,0,0-3.666,7.987l-.59-.136A3.451,3.451,0,0,1-6.965,4.466V-1.283A.737.737,0,0,0-7.7-2.02a.736.736,0,0,0-.736.737V4.466A4.915,4.915,0,0,0-4.579,9.289l.082.018c-.138.266-.2.562-.319.838-.14.336-.279.664-.384,1.01-.049.159-.136.3-.178.465a7.4,7.4,0,0,1-5.513-7.153V-1.283a.737.737,0,0,0-.736-.737.737.737,0,0,0-.736.737V4.466a8.846,8.846,0,0,0,6.756,8.6A9.51,9.51,0,0,0-2.485,21.7a1.875,1.875,0,0,1-.462,3.2,12.3,12.3,0,0,0-1.267.475A6.95,6.95,0,0,0-8.26,30.834,6.027,6.027,0,0,0-13.543,36.8V47.514a.737.737,0,0,0,.736.736.737.737,0,0,0,.736-.736V36.8a4.545,4.545,0,0,1,4.491-4.531.737.737,0,0,0,.729-.7A5.525,5.525,0,0,1-3.618,26.72,10.68,10.68,0,0,1-2.5,26.3,3.125,3.125,0,0,0-.509,24.368a3.446,3.446,0,0,0,.144-1.406,5.944,5.944,0,0,1,6.483.213c2.893,2,7.286.889,10.48-.54a19.581,19.581,0,0,1-3.151,7.8,16.629,16.629,0,0,1-12.314,7.5,7.563,7.563,0,0,1-7-2.911.741.741,0,0,0-.669-.31h-1A2.081,2.081,0,0,0-9.616,36.8V47.514a.737.737,0,0,0,.736.736.736.736,0,0,0,.736-.736V36.8a.607.607,0,0,1,.606-.606h.7A9.065,9.065,0,0,0,1.308,39.4C18.635,37.32,23.312,14.828,12.747,6.179Zm0,0" transform="translate(13.543 2.02)" fill="#333564"/>
    <path id="Path_2078" data-name="Path 2078" d="M277.142,552.237a.921.921,0,1,1-.92-.92A.92.92,0,0,1,277.142,552.237Zm0,0" transform="translate(-260.758 -523.457)" fill="#333564"/>
    <path id="Path_2079" data-name="Path 2079" d="M428.029,590.264a.921.921,0,1,1-.92-.92A.921.921,0,0,1,428.029,590.264Zm0,0" transform="translate(-404.048 -559.569)" fill="#333564"/>
    <path id="Path_2080" data-name="Path 2080" d="M263.247,682.889a.921.921,0,1,1-.92-.921A.921.921,0,0,1,263.247,682.889Zm0,0" transform="translate(-247.563 -647.531)" fill="#333564"/>
  </g>
</svg>
