<svg xmlns="http://www.w3.org/2000/svg" width="52.81" height="86.728" viewBox="0 0 52.81 86.728">
  <g id="_045-mother" data-name="045-mother" transform="translate(-100.116)">
    <g id="Group_1919" data-name="Group 1919" transform="translate(100.116)">
      <path id="Path_2650" data-name="Path 2650" d="M158.474,57.27C159.782,22.207,155.957,0,133.776,0s-26.006,22.207-24.7,57.27Z" transform="translate(-107.371)" fill="#cf8151"/>
      <path id="Path_2651" data-name="Path 2651" d="M141.581,290.188H128.2a23.392,23.392,0,0,0-18.009,8.115q.12,3.22.295,6.58H159.3q.173-3.362.295-6.58a23.391,23.391,0,0,0-18.009-8.115Z" transform="translate(-108.487 -241.033)" fill="#bd6e45"/>
      <path id="Path_2652" data-name="Path 2652" d="M152.052,343.194H100.99a.874.874,0,0,1-.874-.874V329.132a20.363,20.363,0,0,1,20.363-20.363h12.083a20.363,20.363,0,0,1,20.363,20.363V342.32a.874.874,0,0,1-.874.874Z" transform="translate(-100.116 -256.467)" fill="#dc4955"/>
      <path id="Path_2653" data-name="Path 2653" d="M152.928,332.359v10.914l-26.4,1.623-26.4-1.623V332.359a20.372,20.372,0,0,1,15.208-19.705H137.72A20.372,20.372,0,0,1,152.928,332.359Z" transform="translate(-100.118 -259.694)" fill="#dc4955"/>
      <path id="Path_2654" data-name="Path 2654" d="M100.99,496.567h8.247l1.311-1.525,1.311,1.525h29.323l1.311-1.525,1.311,1.525h8.247a.874.874,0,0,0,.874-.874V493.42h-52.81v2.273A.874.874,0,0,0,100.99,496.567Z" transform="translate(-100.116 -409.84)" fill="#d82f3c"/>
      <g id="Group_1916" data-name="Group 1916" transform="translate(9.121 73.872)">
        <path id="Path_2655" data-name="Path 2655" d="M156.584,437.419v8.4l-1.311,1.525-1.311-1.525v-8.4a1.311,1.311,0,0,1,2.623,0Z" transform="translate(-153.961 -436.108)" fill="#c42d41"/>
        <path id="Path_2656" data-name="Path 2656" d="M345.178,437.419v8.4l-1.311,1.525-1.311-1.525v-8.4a1.311,1.311,0,0,1,2.623,0Z" transform="translate(-310.609 -436.108)" fill="#c42d41"/>
      </g>
      <g id="Group_1918" data-name="Group 1918" transform="translate(9.121 83.58)">
        <g id="Group_1917" data-name="Group 1917">
          <path id="Path_2657" data-name="Path 2657" d="M153.961,493.419h2.623v3.147h-2.623Z" transform="translate(-153.961 -493.419)" fill="#b72d47"/>
          <path id="Path_2658" data-name="Path 2658" d="M342.555,493.419h2.623v3.147h-2.623Z" transform="translate(-310.609 -493.419)" fill="#b72d47"/>
        </g>
      </g>
      <path id="Path_2659" data-name="Path 2659" d="M201.094,321.618l7.982-1.525,3.215-10.667a20.4,20.4,0,0,0-5.154-.659H195.053a20.4,20.4,0,0,0-5.155.659l3.215,10.666Z" transform="translate(-174.69 -256.466)" fill="#e2ae84"/>
      <path id="Path_2660" data-name="Path 2660" d="M216.859,375.628h-7.982l.05.167a4.189,4.189,0,0,0,4.01,2.98h7.842a4.189,4.189,0,0,0,4.01-2.98l.05-.167Z" transform="translate(-190.454 -312)" fill="#d7a379"/>
      <path id="Path_2661" data-name="Path 2661" d="M166.415,118.989c-.955,2.094-3.259,6.13-7.464,8.011a.875.875,0,0,0-.521.8v5.808c0,9.128,7.4,17.152,16.527,17.152s16.527-8.024,16.527-17.152v-7.053a.875.875,0,0,0-.91-.874c-3.5.137-16.247.115-22.714-6.917A.876.876,0,0,0,166.415,118.989Z" transform="translate(-148.552 -98.407)" fill="#f0c69e"/>
      <path id="Path_2662" data-name="Path 2662" d="M174.957,218.435a16.527,16.527,0,0,1-16.527-16.527v3.147a16.527,16.527,0,1,0,33.055,0v-3.147A16.527,16.527,0,0,1,174.957,218.435Z" transform="translate(-148.552 -167.707)" fill="#e6ba94"/>
    </g>
    <g id="Group_1920" data-name="Group 1920" transform="translate(117.183 30.93)">
      <path id="Path_2663" data-name="Path 2663" d="M202.186,182.6a1.314,1.314,0,0,0-1.314,1.314v3.713a1.314,1.314,0,0,0,2.628,0v-3.713A1.314,1.314,0,0,0,202.186,182.6Z" transform="translate(-200.872 -182.599)" fill="#5e6b75"/>
      <path id="Path_2664" data-name="Path 2664" d="M296.928,188.939a1.314,1.314,0,0,0,1.314-1.314v-3.713a1.314,1.314,0,1,0-2.628,0v3.713A1.314,1.314,0,0,0,296.928,188.939Z" transform="translate(-279.566 -182.599)" fill="#5e6b75"/>
      <path id="Path_2665" data-name="Path 2665" d="M236.6,245.131a1.317,1.317,0,0,0-2.435-1c0,.011-.511,1.111-2.409,1.111s-2.4-1.1-2.409-1.111a1.317,1.317,0,0,0-2.435,1,5.65,5.65,0,0,0,9.688,0Z" transform="translate(-222.422 -233.028)" fill="#dc4955"/>
    </g>
  </g>
</svg>
