<svg xmlns="http://www.w3.org/2000/svg" width="53.213" height="52.63" viewBox="0 0 53.213 52.63">
  <g id="sign_in" data-name="sign in" transform="translate(-152.521 -155.157)">
    <path id="Path_1948" data-name="Path 1948" d="M29.5,6.157c16.292,0,26.234,11.084,26.234,27.376S50.662,58.787,34.369,58.787,2.521,57.439,2.521,41.146,13.208,6.157,29.5,6.157Z" transform="translate(150 149)" fill="#2aa2e0"/>
    <g id="hospital_1_" data-name="hospital (1)" transform="translate(134.849 168.051)">
      <g id="Group_1586" data-name="Group 1586" transform="translate(31.521 0)">
        <g id="Group_1585" data-name="Group 1585" transform="translate(0)">
          <path id="Path_1953" data-name="Path 1953" d="M216.558,107.448a.584.584,0,1,0-1.168,0v.454a.584.584,0,1,0,1.168,0Z" transform="translate(-204.653 -100.624)" fill="#fff"/>
          <path id="Path_1954" data-name="Path 1954" d="M277.194,108.486a.584.584,0,0,0,.584-.584v-.454a.584.584,0,1,0-1.168,0v.454A.584.584,0,0,0,277.194,108.486Z" transform="translate(-262.298 -100.624)" fill="#fff"/>
          <path id="Path_1955" data-name="Path 1955" d="M235.673,152.547a.584.584,0,1,0-.823-.829.48.48,0,0,1-.674,0,.584.584,0,0,0-.823.829,1.651,1.651,0,0,0,2.32,0Z" transform="translate(-221.404 -142.698)" fill="#fff"/>
          <path id="Path_1956" data-name="Path 1956" d="M199.144,351.089a1.206,1.206,0,0,0-1.2-1.207h-1.221a1.206,1.206,0,0,0-1.2,1.207v.634h-.624a1.206,1.206,0,0,0-1.2,1.207v1.232a1.206,1.206,0,0,0,1.2,1.207h.624V356a1.206,1.206,0,0,0,1.2,1.207h1.221a1.206,1.206,0,0,0,1.2-1.207v-.634h.624a1.206,1.206,0,0,0,1.2-1.207V352.93a1.206,1.206,0,0,0-1.2-1.207h-.624Zm.624,1.8a.037.037,0,0,1,.034.039v1.232a.037.037,0,0,1-.034.039H198.56a.584.584,0,0,0-.584.584V356a.037.037,0,0,1-.034.039h-1.221a.037.037,0,0,1-.034-.039v-1.218a.584.584,0,0,0-.584-.584h-1.208a.037.037,0,0,1-.034-.039V352.93a.037.037,0,0,1,.034-.039H196.1a.584.584,0,0,0,.584-.584v-1.218a.037.037,0,0,1,.034-.039h1.221a.037.037,0,0,1,.034.039v1.218a.584.584,0,0,0,.584.584Z" transform="translate(-184.223 -329.451)" fill="#fff"/>
          <path id="Path_1957" data-name="Path 1957" d="M57.154,15.7h-6.1a3.826,3.826,0,0,0-1.159-2.07,3.532,3.532,0,0,0,2.2-4.844A3.657,3.657,0,0,0,52.408,7.3V7.022A3.65,3.65,0,0,0,50.5,3.815,2.805,2.805,0,0,0,47.884,0H41.566a2.805,2.805,0,0,0-2.637,3.762,3.646,3.646,0,0,0-2.01,3.26V7.3A3.663,3.663,0,0,0,37.2,8.708a3.532,3.532,0,0,0,2.165,4.919,3.826,3.826,0,0,0-1.159,2.07H32.1a.584.584,0,0,0-.584.584v2.6a.584.584,0,0,0,.584.584h.989v9.854a.584.584,0,0,0,.584.584h21.9a.584.584,0,0,0,.584-.584V19.461h.989a.584.584,0,0,0,.584-.584v-2.6A.584.584,0,0,0,57.154,15.7ZM51.24,7.022V7.3A2.48,2.48,0,0,1,50.928,8.5a.584.584,0,0,0,0,.574,2.363,2.363,0,0,1-2.053,3.532H46.384v-.615c1.134-.2,3.593-.851,3.593-2.693V4.86A2.482,2.482,0,0,1,51.24,7.022Zm-7.716,3.886c-.981-.11-3.008-.649-3.008-1.609V5.406a2.79,2.79,0,0,0,1.05.2h6.318a2.792,2.792,0,0,0,.925-.157V9.3c0,.959-2.07,1.5-3.072,1.608a.584.584,0,0,0-.521.581v1.119H44.043V11.488a.584.584,0,0,0-.519-.58Zm-1.958-9.74h6.318a1.637,1.637,0,0,1,0,3.274H41.566a1.637,1.637,0,0,1,0-3.274ZM40.381,12.607a2.363,2.363,0,0,1-2.025-3.58.584.584,0,0,0,.016-.575A2.449,2.449,0,0,1,38.087,7.3V7.022a2.479,2.479,0,0,1,1.262-2.161V9.3c0,1.838,2.409,2.488,3.527,2.691v.616H40.381Zm1.594,1.168h5.308A2.671,2.671,0,0,1,49.849,15.7H39.41A2.671,2.671,0,0,1,41.975,13.775ZM56.57,18.293h-9.3a.584.584,0,0,0,0,1.168H55v9.27H34.262v-9.27H41.99a.584.584,0,0,0,0-1.168h-9.3V16.865H56.57Z" transform="translate(-31.521 0)" fill="#fff"/>
          <path id="Path_1958" data-name="Path 1958" d="M246.247,314.086a.584.584,0,1,0,.215-.709A.588.588,0,0,0,246.247,314.086Z" transform="translate(-233.667 -294.986)" fill="#fff"/>
        </g>
      </g>
    </g>
  </g>
</svg>
