<svg xmlns="http://www.w3.org/2000/svg" width="53.213" height="52.63" viewBox="0 0 53.213 52.63">
  <g id="user" transform="translate(-1359.521 -13.157)">
    <path id="Path_1521" data-name="Path 1521" d="M29.5,6.157c16.292,0,26.234,11.084,26.234,27.376S50.662,58.787,34.369,58.787,2.521,57.439,2.521,41.146,13.208,6.157,29.5,6.157Z" transform="translate(1357 7)" fill="#f4f4f4"/>
    <path id="Icon_awesome-user-alt" data-name="Icon awesome-user-alt" d="M14.439,16.244A8.122,8.122,0,1,0,6.317,8.122,8.124,8.124,0,0,0,14.439,16.244Zm7.22,1.8H18.551a9.818,9.818,0,0,1-8.224,0H7.22A7.219,7.219,0,0,0,0,25.269v.9a2.708,2.708,0,0,0,2.707,2.707H26.171a2.708,2.708,0,0,0,2.707-2.707v-.9A7.219,7.219,0,0,0,21.659,18.049Z" transform="translate(1371.216 24.032)" fill="#333564"/>
  </g>
</svg>
