<svg xmlns="http://www.w3.org/2000/svg" width="32.595" height="40.844" viewBox="0 0 32.595 40.844">
  <g id="doctor" transform="translate(-5.5)">
    <path id="Path_1726" data-name="Path 1726" d="M13.115,52.23a7.615,7.615,0,1,1,0-15.23H20.73v7.615A7.624,7.624,0,0,1,13.115,52.23Zm0-13.846a6.231,6.231,0,1,0,6.231,6.231V38.385Z" transform="translate(0 -11.386)" fill="#333564"/>
    <path id="Path_1727" data-name="Path 1727" d="M35.192,38.385h-9a.692.692,0,1,1,0-1.385h9a.692.692,0,1,1,0,1.385Z" transform="translate(-6.154 -11.386)" fill="#333564"/>
    <path id="Path_1728" data-name="Path 1728" d="M26.192,35.923a.692.692,0,0,1-.692-.692V29.692a.692.692,0,0,1,1.385,0v5.538A.692.692,0,0,1,26.192,35.923Z" transform="translate(-6.154 -8.924)" fill="#333564"/>
    <ellipse id="Ellipse_40" data-name="Ellipse 40" cx="4.5" cy="5.5" rx="4.5" ry="5.5" transform="translate(29.095 20.922)" fill="#e7eced"/>
    <path id="Path_1729" data-name="Path 1729" d="M45.269,39.538a2.769,2.769,0,1,1,2.769-2.769A2.772,2.772,0,0,1,45.269,39.538Zm0-4.154a1.385,1.385,0,1,0,1.385,1.385A1.386,1.386,0,0,0,45.269,35.385Z" transform="translate(-11.386 -10.462)" fill="#afb6bb"/>
    <path id="Path_1730" data-name="Path 1730" d="M21.155,21.768a2.8,2.8,0,0,1-2.426-1.382L9.534,5.265A2.821,2.821,0,0,1,11.956,1h2.276a.692.692,0,1,1,0,1.385H11.956a1.436,1.436,0,0,0-1.235,2.168l9.195,15.121a1.436,1.436,0,0,0,2.475.006L31.335,4.553A1.436,1.436,0,0,0,30.1,2.385H28.078a.692.692,0,0,1,0-1.385H30.1a2.821,2.821,0,0,1,2.426,4.259L23.582,20.386A2.8,2.8,0,0,1,21.155,21.768Z" transform="translate(-1.117 -0.308)" fill="#333564"/>
    <path id="Path_1731" data-name="Path 1731" d="M21.346,1.731c0,.956-2.159,1.731-3.115,1.731a1.731,1.731,0,1,1,0-3.461C19.187,0,21.346.775,21.346,1.731Z" transform="translate(-3.385)" fill="#afb6bb"/>
    <path id="Path_1732" data-name="Path 1732" d="M29.5,1.731c0,.956,2.159,1.731,3.115,1.731a1.731,1.731,0,0,0,0-3.461C31.659,0,29.5.775,29.5,1.731Z" transform="translate(-7.385)" fill="#afb6bb"/>
  </g>
</svg>
