<svg xmlns="http://www.w3.org/2000/svg" width="53.213" height="52.63" viewBox="0 0 53.213 52.63">
  <g id="icon" transform="translate(-391.521 -124.156)">
    <path id="Path_1725" data-name="Path 1725" d="M29.5,6.157c16.292,0,26.234,11.084,26.234,27.376S50.662,58.787,34.369,58.787,2.521,57.439,2.521,41.146,13.208,6.157,29.5,6.157Z" transform="translate(389 118)" fill="#2aa2e0"/>
    <g id="Solid" transform="translate(369.448 108.159)">
      <path id="Path_1675" data-name="Path 1675" d="M298.055,258.642v.791H299.6a.514.514,0,0,1,.514.514v5.3a.514.514,0,0,1-.514.514H296v2.055h5.138a1.029,1.029,0,0,0,1.028-1.028v-6.842a.514.514,0,0,1,.514-.514h1.541v-.791L301.138,256Z" transform="translate(-245.026 -213.787)" fill="#fff"/>
      <path id="Path_1676" data-name="Path 1676" d="M268.331,46.165a6.165,6.165,0,1,0-6.165,6.165A6.165,6.165,0,0,0,268.331,46.165Zm-3.6-.514h1.028v1.028h-1.028ZM259.6,46.679h-1.028V45.652H259.6Zm1.028.589v-.075h1.028v.075a.439.439,0,0,0,.439.439h.15a.439.439,0,0,0,.2-.831l-1-.5a1.466,1.466,0,0,1,.217-2.711v-.581h1.028v.581a1.469,1.469,0,0,1,1.028,1.4v.075h-1.028v-.075a.439.439,0,0,0-.439-.439h-.15a.439.439,0,0,0-.2.831l1,.5a1.466,1.466,0,0,1-.217,2.711v.581h-1.028v-.581A1.469,1.469,0,0,1,260.624,47.268Z" transform="translate(-207.595 -11.659)" fill="#fff"/>
      <path id="Path_1677" data-name="Path 1677" d="M112.9,160h-7.36A1.543,1.543,0,0,0,104,161.541v8.008l.407-.407a1.6,1.6,0,0,1,2.268,2.268l-1.976,1.976a3.426,3.426,0,0,1-.336,4.446L104,178.2v.815a1.543,1.543,0,0,0,1.541,1.541h8.221a1.543,1.543,0,0,0,1.541-1.541V163.964A7.2,7.2,0,0,1,112.9,160Zm-4.791,1.541h1.028v1.028H108.11Zm2.055,17.469h-1.028v-1.028h1.028Zm1.028-9.762h-1.028v-.075a.439.439,0,0,0-.439-.439h-.15a.439.439,0,0,0-.2.831l1,.5a1.466,1.466,0,0,1-.217,2.711v.581h-1.028v-.581a1.469,1.469,0,0,1-1.028-1.4V171.3h1.028v.075a.439.439,0,0,0,.439.439h.15a.439.439,0,0,0,.2-.831l-1-.5a1.466,1.466,0,0,1,.217-2.711v-.581h1.028v.581a1.469,1.469,0,0,1,1.028,1.4Zm0-6.679h-1.028v-1.028h1.028Zm2.055,8.221h-1.028v-1.028h1.028Z" transform="translate(-65.357 -123.952)" fill="#fff"/>
      <path id="Path_1678" data-name="Path 1678" d="M38.279,308.474a.514.514,0,0,1,0-.727l2.312-2.312a.576.576,0,0,0-.815-.815l-2.312,2.312-.727-.727.877-.877V304H36.074a1.029,1.029,0,0,0-1.028,1.028v4.624a.514.514,0,0,1-.15.363l-.739.739,2.01,3.216,2.112-2.112A2.4,2.4,0,0,0,38.279,308.474Z" transform="translate(0 -258.704)" fill="#fff"/>
      <path id="Path_1679" data-name="Path 1679" d="M414.64,227.33l.632.81a9.337,9.337,0,0,0,.846-.746l-.725-.728A8.326,8.326,0,0,1,414.64,227.33Z" transform="translate(-356.047 -186.336)" fill="#fff"/>
      <path id="Path_1680" data-name="Path 1680" d="M440.045,93.65l-.983.3a8.238,8.238,0,0,1-1.325,7.407l.816.624A9.266,9.266,0,0,0,440.045,93.65Z" transform="translate(-377.661 -61.863)" fill="#fff"/>
      <path id="Path_1681" data-name="Path 1681" d="M220.642,28.372l-.605-.831a9.216,9.216,0,0,0-3.792,6.936l1.026.059A8.192,8.192,0,0,1,220.642,28.372Z" transform="translate(-170.394 0)" fill="#fff"/>
    </g>
  </g>
</svg>
