<svg xmlns="http://www.w3.org/2000/svg" width="35.762" height="41.722" viewBox="0 0 35.762 41.722">
  <g id="medicine_1_" data-name="medicine (1)" transform="translate(-4 0.278)">
    <rect id="Rectangle_113" data-name="Rectangle 113" width="28" height="9" transform="translate(11.761 -0.278)" fill="#f77400"/>
    <path id="Path_1752" data-name="Path 1752" d="M16,12V33.042c2.131.562,3.622,1.815,3.64,3.295,0,.087.031.256.054.252a.147.147,0,0,1,.006.024s.037,4.163,0,4.2c0,1.229-1.046,2.327-2.632,3.014H39.682a1.467,1.467,0,0,0,1.48-1.345V12Z" transform="translate(-3.119 -3.119)" fill="#e7bb4e"/>
    <path id="Path_1753" data-name="Path 1753" d="M45.625,41.722H34V21H45.625a.216.216,0,0,1,.216.216v20.29A.216.216,0,0,1,45.625,41.722Z" transform="translate(-7.798 -5.458)" fill="#f2ecbf"/>
    <rect id="Rectangle_114" data-name="Rectangle 114" width="8" height="2" transform="translate(29.761 24.722)" fill="#c9be7d"/>
    <rect id="Rectangle_115" data-name="Rectangle 115" width="8" height="2" transform="translate(29.761 27.722)" fill="#c9be7d"/>
    <rect id="Rectangle_116" data-name="Rectangle 116" width="8" height="1" transform="translate(29.761 19.722)" fill="#c9be7d"/>
    <rect id="Rectangle_117" data-name="Rectangle 117" width="8" height="2" transform="translate(29.761 21.722)" fill="#c9be7d"/>
    <rect id="Rectangle_118" data-name="Rectangle 118" width="8" height="2" transform="translate(29.761 30.722)" fill="#c9be7d"/>
    <rect id="Rectangle_119" data-name="Rectangle 119" width="1" height="9" transform="translate(14.761 -0.278)" fill="#c15505"/>
    <rect id="Rectangle_120" data-name="Rectangle 120" width="1" height="9" transform="translate(17.761 -0.278)" fill="#c15505"/>
    <rect id="Rectangle_121" data-name="Rectangle 121" width="1" height="9" transform="translate(20.761 -0.278)" fill="#c15505"/>
    <rect id="Rectangle_122" data-name="Rectangle 122" width="2" height="9" transform="translate(22.761 -0.278)" fill="#c15505"/>
    <rect id="Rectangle_123" data-name="Rectangle 123" width="2" height="9" transform="translate(25.761 -0.278)" fill="#c15505"/>
    <rect id="Rectangle_124" data-name="Rectangle 124" width="2" height="9" transform="translate(28.761 -0.278)" fill="#c15505"/>
    <rect id="Rectangle_125" data-name="Rectangle 125" width="2" height="9" transform="translate(31.761 -0.278)" fill="#c15505"/>
    <rect id="Rectangle_126" data-name="Rectangle 126" width="2" height="9" transform="translate(34.761 -0.278)" fill="#c15505"/>
    <path id="Path_1754" data-name="Path 1754" d="M16.522,43.614c.026,2.043-2.755,3.738-6.213,3.785S4.027,45.829,4,43.786,6.755,40.048,10.213,40,16.5,41.571,16.522,43.614Z" transform="translate(0 -10.397)" fill="#c8c9cb"/>
    <path id="Path_1755" data-name="Path 1755" d="M16.575,45.224c-.025.005-.054,0-.08.008-.2,1.924-2.878,3.48-6.187,3.526-3.351.046-6.1-1.474-6.285-3.428L4,45.337v3.971c0,.016,0,.2,0,.276.026,2.043,2.851,3.661,6.308,3.613,3.439-.047,6.268-1.724,6.273-3.752.037-.035,0-4.2,0-4.2A.147.147,0,0,0,16.575,45.224Z" transform="translate(0 -11.755)" fill="#e0e4e7"/>
    <g id="Group_1486" data-name="Group 1486" transform="translate(12.881 15.48)">
      <path id="Path_1756" data-name="Path 1756" d="M18.96,37.018v-16.1H16V35.36A5.891,5.891,0,0,1,18.96,37.018Z" transform="translate(-16 -20.917)" fill="#f2ecbf"/>
    </g>
    <path id="Path_1757" data-name="Path 1757" d="M8.33,47.141l6.377-6.377a8.2,8.2,0,0,0-1.6-.491L6.817,46.561A7.528,7.528,0,0,0,8.33,47.141Z" transform="translate(-0.732 -10.468)" fill="#ebebeb"/>
    <rect id="Rectangle_127" data-name="Rectangle 127" width="3" height="32" transform="translate(18.761 8.722)" fill="#f9d991"/>
  </g>
</svg>
