<svg id="medical" xmlns="http://www.w3.org/2000/svg" width="45.536" height="45.536" viewBox="0 0 45.536 45.536">
  <path id="Path_1733" data-name="Path 1733" d="M42.4,32H0V52.413H45.536V32Z" transform="translate(0 -6.877)" fill="#e7eced"/>
  <rect id="Rectangle_110" data-name="Rectangle 110" width="14" height="4" transform="translate(1.768 7.768)" fill="#7fabda"/>
  <path id="Path_1734" data-name="Path 1734" d="M14.991,7.851H4V.391A.391.391,0,0,1,4.391,0H14.6a.391.391,0,0,1,.391.391Z" transform="translate(-0.86 0)" fill="#6b5b4b"/>
  <path id="Path_1735" data-name="Path 1735" d="M9.14,3.14A3.141,3.141,0,0,0,12.281,0H6A3.141,3.141,0,0,0,9.14,3.14Z" transform="translate(-1.289)" fill="#937a60"/>
  <path id="Path_1736" data-name="Path 1736" d="M9.456,9.14A2.817,2.817,0,0,0,9.5,8.748a2.748,2.748,0,0,0-5.5,0,2.817,2.817,0,0,0,.039.393Z" transform="translate(-0.86 -1.289)" fill="#937a60"/>
  <path id="Path_1737" data-name="Path 1737" d="M17.14,5.4a1.963,1.963,0,1,0,0,3.123Z" transform="translate(-3.009 -1.074)" fill="#937a60"/>
  <path id="Path_1738" data-name="Path 1738" d="M9.5,43.834h0a5.5,5.5,0,0,1-5.5-5.5V14H14.991V38.338A5.5,5.5,0,0,1,9.5,43.834Z" transform="translate(-0.86 -3.009)" fill="#a1c8ec"/>
  <path id="Path_1739" data-name="Path 1739" d="M9.5,45.338h0a5.5,5.5,0,0,1-5.5-5.5V21H14.991V39.843A5.5,5.5,0,0,1,9.5,45.338Z" transform="translate(-0.86 -4.513)" fill="#dd352e"/>
  <rect id="Rectangle_111" data-name="Rectangle 111" width="14" height="4" transform="translate(15.768 7.768)" fill="#7fabda"/>
  <path id="Path_1740" data-name="Path 1740" d="M32.991,7.851H22V.391A.391.391,0,0,1,22.391,0H32.6a.391.391,0,0,1,.391.391Z" transform="translate(-4.728 0)" fill="#6b5b4b"/>
  <path id="Path_1741" data-name="Path 1741" d="M27.14,3.14A3.141,3.141,0,0,0,30.281,0H24A3.141,3.141,0,0,0,27.14,3.14Z" transform="translate(-5.157)" fill="#937a60"/>
  <path id="Path_1742" data-name="Path 1742" d="M27.456,9.14a2.818,2.818,0,0,0,.039-.393,2.748,2.748,0,0,0-5.5,0,2.817,2.817,0,0,0,.039.393Z" transform="translate(-4.728 -1.289)" fill="#937a60"/>
  <path id="Path_1743" data-name="Path 1743" d="M35.14,5.4a1.963,1.963,0,1,0,0,3.123Z" transform="translate(-6.877 -1.074)" fill="#937a60"/>
  <path id="Path_1744" data-name="Path 1744" d="M27.5,43.834h0a5.5,5.5,0,0,1-5.5-5.5V14H32.991V38.338A5.5,5.5,0,0,1,27.5,43.834Z" transform="translate(-4.728 -3.009)" fill="#a1c8ec"/>
  <path id="Path_1745" data-name="Path 1745" d="M27.5,45.338h0a5.5,5.5,0,0,1-5.5-5.5V21H32.991V39.843A5.5,5.5,0,0,1,27.5,45.338Z" transform="translate(-4.728 -4.513)" fill="#dd352e"/>
  <rect id="Rectangle_112" data-name="Rectangle 112" width="14" height="4" transform="translate(29.768 7.768)" fill="#7fabda"/>
  <path id="Path_1746" data-name="Path 1746" d="M50.991,7.851H40V.391A.391.391,0,0,1,40.391,0H50.6a.391.391,0,0,1,.391.391Z" transform="translate(-8.596 0)" fill="#6b5b4b"/>
  <path id="Path_1747" data-name="Path 1747" d="M45.14,3.14A3.141,3.141,0,0,0,48.281,0H42A3.141,3.141,0,0,0,45.14,3.14Z" transform="translate(-9.026)" fill="#937a60"/>
  <path id="Path_1748" data-name="Path 1748" d="M45.456,9.14a2.818,2.818,0,0,0,.039-.393,2.748,2.748,0,0,0-5.5,0,2.817,2.817,0,0,0,.039.393Z" transform="translate(-8.596 -1.289)" fill="#937a60"/>
  <path id="Path_1749" data-name="Path 1749" d="M53.14,5.4a1.963,1.963,0,1,0,0,3.123Z" transform="translate(-10.745 -1.074)" fill="#937a60"/>
  <path id="Path_1750" data-name="Path 1750" d="M45.5,43.834h0a5.5,5.5,0,0,1-5.5-5.5V14H50.991V38.338A5.5,5.5,0,0,1,45.5,43.834Z" transform="translate(-8.596 -3.009)" fill="#a1c8ec"/>
  <path id="Path_1751" data-name="Path 1751" d="M45.5,45.338h0a5.5,5.5,0,0,1-5.5-5.5V21H50.991V39.843A5.5,5.5,0,0,1,45.5,45.338Z" transform="translate(-8.596 -4.513)" fill="#dd352e"/>
  <circle id="Ellipse_41" data-name="Ellipse 41" cx="0.5" cy="0.5" r="0.5" transform="translate(33.768 18.768)" fill="#b02721"/>
  <circle id="Ellipse_42" data-name="Ellipse 42" cx="1" cy="1" r="1" transform="translate(31.768 16.768)" fill="#b02721"/>
  <circle id="Ellipse_43" data-name="Ellipse 43" cx="1" cy="1" r="1" transform="translate(35.768 16.768)" fill="#b02721"/>
  <ellipse id="Ellipse_44" data-name="Ellipse 44" cx="1" cy="0.5" rx="1" ry="0.5" transform="translate(38.768 18.768)" fill="#b02721"/>
  <ellipse id="Ellipse_45" data-name="Ellipse 45" cx="0.5" cy="1" rx="0.5" ry="1" transform="translate(40.768 16.768)" fill="#b02721"/>
  <circle id="Ellipse_46" data-name="Ellipse 46" cx="1" cy="1" r="1" transform="translate(31.768 20.768)" fill="#b02721"/>
  <circle id="Ellipse_47" data-name="Ellipse 47" cx="1" cy="1" r="1" transform="translate(35.768 20.768)" fill="#b02721"/>
  <ellipse id="Ellipse_48" data-name="Ellipse 48" cx="0.5" cy="1" rx="0.5" ry="1" transform="translate(40.768 20.768)" fill="#b02721"/>
  <ellipse id="Ellipse_49" data-name="Ellipse 49" cx="0.5" cy="1" rx="0.5" ry="1" transform="translate(33.768 23.768)" fill="#b02721"/>
  <ellipse id="Ellipse_50" data-name="Ellipse 50" cx="0.5" cy="1" rx="0.5" ry="1" transform="translate(33.768 27.768)" fill="#b02721"/>
  <ellipse id="Ellipse_51" data-name="Ellipse 51" cx="1" rx="1" transform="translate(31.768 26.768)" fill="#b02721"/>
  <ellipse id="Ellipse_52" data-name="Ellipse 52" cx="1" rx="1" transform="translate(35.768 26.768)" fill="#b02721"/>
  <circle id="Ellipse_53" data-name="Ellipse 53" cx="1" cy="1" r="1" transform="translate(38.768 23.768)" fill="#b02721"/>
  <circle id="Ellipse_54" data-name="Ellipse 54" cx="1" cy="1" r="1" transform="translate(38.768 27.768)" fill="#b02721"/>
  <ellipse id="Ellipse_55" data-name="Ellipse 55" cx="0.5" rx="0.5" transform="translate(40.768 26.768)" fill="#b02721"/>
  <circle id="Ellipse_56" data-name="Ellipse 56" cx="1" cy="1" r="1" transform="translate(31.768 30.768)" fill="#b02721"/>
  <circle id="Ellipse_57" data-name="Ellipse 57" cx="1" cy="1" r="1" transform="translate(35.768 30.768)" fill="#b02721"/>
  <ellipse id="Ellipse_58" data-name="Ellipse 58" cx="0.5" cy="1" rx="0.5" ry="1" transform="translate(40.768 30.768)" fill="#b02721"/>
  <ellipse id="Ellipse_59" data-name="Ellipse 59" cx="0.5" rx="0.5" transform="translate(33.768 33.768)" fill="#b02721"/>
  <circle id="Ellipse_60" data-name="Ellipse 60" cx="1" cy="1" r="1" transform="translate(31.768 34.768)" fill="#b02721"/>
  <circle id="Ellipse_61" data-name="Ellipse 61" cx="1" cy="1" r="1" transform="translate(35.768 34.768)" fill="#b02721"/>
  <ellipse id="Ellipse_62" data-name="Ellipse 62" cx="1" rx="1" transform="translate(38.768 33.768)" fill="#b02721"/>
  <ellipse id="Ellipse_63" data-name="Ellipse 63" cx="0.5" cy="1" rx="0.5" ry="1" transform="translate(40.768 34.768)" fill="#b02721"/>
  <ellipse id="Ellipse_64" data-name="Ellipse 64" cx="1" cy="0.5" rx="1" ry="0.5" transform="translate(18.768 18.768)" fill="#b02721"/>
  <ellipse id="Ellipse_65" data-name="Ellipse 65" cx="0.5" cy="1" rx="0.5" ry="1" transform="translate(17.768 16.768)" fill="#b02721"/>
  <circle id="Ellipse_66" data-name="Ellipse 66" cx="1" cy="1" r="1" transform="translate(21.768 16.768)" fill="#b02721"/>
  <ellipse id="Ellipse_67" data-name="Ellipse 67" cx="1" cy="0.5" rx="1" ry="0.5" transform="translate(24.768 18.768)" fill="#b02721"/>
  <ellipse id="Ellipse_68" data-name="Ellipse 68" cx="0.5" cy="1" rx="0.5" ry="1" transform="translate(26.768 16.768)" fill="#b02721"/>
  <ellipse id="Ellipse_69" data-name="Ellipse 69" cx="0.5" cy="1" rx="0.5" ry="1" transform="translate(17.768 20.768)" fill="#b02721"/>
  <circle id="Ellipse_70" data-name="Ellipse 70" cx="1" cy="1" r="1" transform="translate(21.768 20.768)" fill="#b02721"/>
  <ellipse id="Ellipse_71" data-name="Ellipse 71" cx="0.5" cy="1" rx="0.5" ry="1" transform="translate(26.768 20.768)" fill="#b02721"/>
  <circle id="Ellipse_72" data-name="Ellipse 72" cx="1" cy="1" r="1" transform="translate(18.768 23.768)" fill="#b02721"/>
  <circle id="Ellipse_73" data-name="Ellipse 73" cx="1" cy="1" r="1" transform="translate(18.768 27.768)" fill="#b02721"/>
  <ellipse id="Ellipse_74" data-name="Ellipse 74" cx="0.5" rx="0.5" transform="translate(17.768 26.768)" fill="#b02721"/>
  <ellipse id="Ellipse_75" data-name="Ellipse 75" cx="1" rx="1" transform="translate(21.768 26.768)" fill="#b02721"/>
  <circle id="Ellipse_76" data-name="Ellipse 76" cx="1" cy="1" r="1" transform="translate(24.768 23.768)" fill="#b02721"/>
  <circle id="Ellipse_77" data-name="Ellipse 77" cx="1" cy="1" r="1" transform="translate(24.768 27.768)" fill="#b02721"/>
  <ellipse id="Ellipse_78" data-name="Ellipse 78" cx="0.5" rx="0.5" transform="translate(26.768 26.768)" fill="#b02721"/>
  <ellipse id="Ellipse_79" data-name="Ellipse 79" cx="0.5" cy="1" rx="0.5" ry="1" transform="translate(17.768 30.768)" fill="#b02721"/>
  <circle id="Ellipse_80" data-name="Ellipse 80" cx="1" cy="1" r="1" transform="translate(21.768 30.768)" fill="#b02721"/>
  <ellipse id="Ellipse_81" data-name="Ellipse 81" cx="0.5" cy="1" rx="0.5" ry="1" transform="translate(26.768 30.768)" fill="#b02721"/>
  <ellipse id="Ellipse_82" data-name="Ellipse 82" cx="1" rx="1" transform="translate(18.768 33.768)" fill="#b02721"/>
  <ellipse id="Ellipse_83" data-name="Ellipse 83" cx="0.5" cy="1" rx="0.5" ry="1" transform="translate(17.768 34.768)" fill="#b02721"/>
  <circle id="Ellipse_84" data-name="Ellipse 84" cx="1" cy="1" r="1" transform="translate(21.768 34.768)" fill="#b02721"/>
  <ellipse id="Ellipse_85" data-name="Ellipse 85" cx="1" rx="1" transform="translate(24.768 33.768)" fill="#b02721"/>
  <ellipse id="Ellipse_86" data-name="Ellipse 86" cx="0.5" cy="1" rx="0.5" ry="1" transform="translate(26.768 34.768)" fill="#b02721"/>
  <ellipse id="Ellipse_87" data-name="Ellipse 87" cx="1" cy="0.5" rx="1" ry="0.5" transform="translate(4.768 18.768)" fill="#b02721"/>
  <ellipse id="Ellipse_88" data-name="Ellipse 88" cx="0.5" cy="1" rx="0.5" ry="1" transform="translate(3.768 16.768)" fill="#b02721"/>
  <circle id="Ellipse_89" data-name="Ellipse 89" cx="1" cy="1" r="1" transform="translate(7.768 16.768)" fill="#b02721"/>
  <circle id="Ellipse_90" data-name="Ellipse 90" cx="0.5" cy="0.5" r="0.5" transform="translate(10.768 18.768)" fill="#b02721"/>
  <circle id="Ellipse_91" data-name="Ellipse 91" cx="1" cy="1" r="1" transform="translate(11.768 16.768)" fill="#b02721"/>
  <ellipse id="Ellipse_92" data-name="Ellipse 92" cx="0.5" cy="1" rx="0.5" ry="1" transform="translate(3.768 20.768)" fill="#b02721"/>
  <circle id="Ellipse_93" data-name="Ellipse 93" cx="1" cy="1" r="1" transform="translate(7.768 20.768)" fill="#b02721"/>
  <circle id="Ellipse_94" data-name="Ellipse 94" cx="1" cy="1" r="1" transform="translate(11.768 20.768)" fill="#b02721"/>
  <circle id="Ellipse_95" data-name="Ellipse 95" cx="1" cy="1" r="1" transform="translate(4.768 23.768)" fill="#b02721"/>
  <circle id="Ellipse_96" data-name="Ellipse 96" cx="1" cy="1" r="1" transform="translate(4.768 27.768)" fill="#b02721"/>
  <ellipse id="Ellipse_97" data-name="Ellipse 97" cx="0.5" rx="0.5" transform="translate(3.768 26.768)" fill="#b02721"/>
  <ellipse id="Ellipse_98" data-name="Ellipse 98" cx="1" rx="1" transform="translate(7.768 26.768)" fill="#b02721"/>
  <ellipse id="Ellipse_99" data-name="Ellipse 99" cx="0.5" cy="1" rx="0.5" ry="1" transform="translate(10.768 23.768)" fill="#b02721"/>
  <ellipse id="Ellipse_100" data-name="Ellipse 100" cx="0.5" cy="1" rx="0.5" ry="1" transform="translate(10.768 27.768)" fill="#b02721"/>
  <ellipse id="Ellipse_101" data-name="Ellipse 101" cx="1" rx="1" transform="translate(11.768 26.768)" fill="#b02721"/>
  <ellipse id="Ellipse_102" data-name="Ellipse 102" cx="0.5" cy="1" rx="0.5" ry="1" transform="translate(3.768 30.768)" fill="#b02721"/>
  <circle id="Ellipse_103" data-name="Ellipse 103" cx="1" cy="1" r="1" transform="translate(7.768 30.768)" fill="#b02721"/>
  <circle id="Ellipse_104" data-name="Ellipse 104" cx="1" cy="1" r="1" transform="translate(11.768 30.768)" fill="#b02721"/>
  <ellipse id="Ellipse_105" data-name="Ellipse 105" cx="1" rx="1" transform="translate(4.768 33.768)" fill="#b02721"/>
  <ellipse id="Ellipse_106" data-name="Ellipse 106" cx="0.5" cy="1" rx="0.5" ry="1" transform="translate(3.768 34.768)" fill="#b02721"/>
  <circle id="Ellipse_107" data-name="Ellipse 107" cx="1" cy="1" r="1" transform="translate(7.768 34.768)" fill="#b02721"/>
  <ellipse id="Ellipse_108" data-name="Ellipse 108" cx="0.5" rx="0.5" transform="translate(10.768 33.768)" fill="#b02721"/>
  <circle id="Ellipse_109" data-name="Ellipse 109" cx="1" cy="1" r="1" transform="translate(11.768 34.768)" fill="#b02721"/>
</svg>
