<svg xmlns="http://www.w3.org/2000/svg" width="88.986" height="87.452" viewBox="0 0 88.986 87.452">
  <g id="bill" transform="translate(0 -0.5)">
    <path id="Path_1884" data-name="Path 1884" d="M84.383.5H4.6a4.6,4.6,0,0,0,0,9.205V5.1H84.383v4.6a4.6,4.6,0,0,0,0-9.205Z" fill="#333564"/>
    <path id="Path_1885" data-name="Path 1885" d="M6.068,77.144l9.205,9.205,9.205-9.205,9.205,9.205,9.205-9.205L52.1,86.349,61.3,77.144l9.205,9.205,9.205-9.205,3.068,3.068V3.5H3V80.212Z" transform="translate(1.603 1.603)" fill="#e6e6e6"/>
    <path id="Path_1886" data-name="Path 1886" d="M51.548,42.568H28.534a1.534,1.534,0,1,1,0-3.068H51.548a1.534,1.534,0,1,1,0,3.068Z" transform="translate(14.425 20.835)" fill="#fb4f3d"/>
    <path id="Path_1887" data-name="Path 1887" d="M48.534,42.562A1.519,1.519,0,0,1,47,41.028a1.579,1.579,0,0,1,.445-1.089,1.606,1.606,0,0,1,2.179,0,1.579,1.579,0,0,1,.445,1.089,1.519,1.519,0,0,1-1.534,1.534Z" transform="translate(25.109 20.842)" fill="#fb4f3d"/>
    <path id="Path_1888" data-name="Path 1888" d="M56.548,28.568H33.534a1.534,1.534,0,1,1,0-3.068H56.548a1.534,1.534,0,1,1,0,3.068Z" transform="translate(17.096 13.356)" fill="#fb4f3d"/>
    <path id="Path_1889" data-name="Path 1889" d="M53.877,35.568H38.534a1.534,1.534,0,1,1,0-3.068H53.877a1.534,1.534,0,0,1,0,3.068Z" transform="translate(19.767 17.096)" fill="#fb4f3d"/>
    <path id="Path_1890" data-name="Path 1890" d="M31.6,35.568H28.534a1.534,1.534,0,0,1,0-3.068H31.6a1.534,1.534,0,0,1,0,3.068Z" transform="translate(14.425 17.096)" fill="#fb4f3d"/>
    <path id="Path_1891" data-name="Path 1891" d="M51.548,21.568H28.534a1.534,1.534,0,0,1,0-3.068H51.548a1.534,1.534,0,0,1,0,3.068Z" transform="translate(14.425 9.616)" fill="#fb4f3d"/>
    <path id="Path_1892" data-name="Path 1892" d="M48.534,21.562A1.519,1.519,0,0,1,47,20.028a1.579,1.579,0,0,1,.445-1.089,1.541,1.541,0,0,1,2.179,2.179A1.584,1.584,0,0,1,48.534,21.562Z" transform="translate(25.109 9.623)" fill="#fb4f3d"/>
    <path id="Path_1893" data-name="Path 1893" d="M29.534,28.562a1.613,1.613,0,0,1-1.089-.445,1.556,1.556,0,0,1,0-2.179,1.606,1.606,0,0,1,2.179,0,1.556,1.556,0,0,1,0,2.179A1.613,1.613,0,0,1,29.534,28.562Z" transform="translate(14.959 13.363)" fill="#fb4f3d"/>
    <path id="Path_1894" data-name="Path 1894" d="M34.534,35.562a1.538,1.538,0,1,1,1.089-2.624,1.554,1.554,0,0,1,.445,1.089,1.584,1.584,0,0,1-.445,1.089A1.613,1.613,0,0,1,34.534,35.562Z" transform="translate(17.63 17.102)" fill="#fb4f3d"/>
    <path id="Path_1895" data-name="Path 1895" d="M22.274,29.24a1.534,1.534,0,0,0,3.068,0,7.686,7.686,0,0,0-6.137-7.516V20.034a1.534,1.534,0,0,0-3.068,0v1.694a7.649,7.649,0,0,0-4.323,2.559A5.275,5.275,0,0,0,10.6,28.281,5.6,5.6,0,0,0,12.717,32.1l3.42,2.66v8.343a4.6,4.6,0,0,1-3.068-4.32,1.534,1.534,0,1,0-3.068,0A7.686,7.686,0,0,0,16.137,46.3v1.349a1.534,1.534,0,0,0,3.068,0V46.3a7.658,7.658,0,0,0,4.325-2.559,5.284,5.284,0,0,0,1.217-4,5.6,5.6,0,0,0-2.122-3.817l-3.42-2.66V24.921A4.593,4.593,0,0,1,22.274,29.24Zm-1.533,9.106a2.519,2.519,0,0,1,.954,1.715,2.235,2.235,0,0,1-.508,1.7A4.584,4.584,0,0,1,19.205,43.1v-5.95ZM14.6,29.682a2.52,2.52,0,0,1-.954-1.718,2.241,2.241,0,0,1,.508-1.694,4.584,4.584,0,0,1,1.982-1.342v5.948Z" transform="translate(5.342 9.616)" fill="#fb4f3d"/>
    <g id="Group_1574" data-name="Group 1574" transform="translate(7.671 14.308)">
      <path id="Path_1896" data-name="Path 1896" d="M6.534,12.562A1.541,1.541,0,0,1,5.445,9.938a1.606,1.606,0,0,1,2.179,0,1.534,1.534,0,0,1-1.089,2.624Z" transform="translate(-5 -9.493)" fill="#fb4f3d"/>
      <path id="Path_1897" data-name="Path 1897" d="M67.653,11.034A1.529,1.529,0,0,1,69.187,9.5h0a1.539,1.539,0,0,1,1.534,1.534h0a1.539,1.539,0,0,1-1.534,1.534h0A1.529,1.529,0,0,1,67.653,11.034Zm-5.891,0A1.539,1.539,0,0,1,63.3,9.5h0a1.529,1.529,0,0,1,1.534,1.534h0A1.529,1.529,0,0,1,63.3,12.568h0A1.539,1.539,0,0,1,61.761,11.034Zm-5.876,0A1.539,1.539,0,0,1,57.419,9.5h0a1.539,1.539,0,0,1,1.534,1.534h0a1.539,1.539,0,0,1-1.534,1.534h0A1.539,1.539,0,0,1,55.885,11.034Zm-5.876,0A1.529,1.529,0,0,1,51.543,9.5h0a1.539,1.539,0,0,1,1.534,1.534h0a1.539,1.539,0,0,1-1.534,1.534h0A1.529,1.529,0,0,1,50.009,11.034Zm-5.891,0A1.539,1.539,0,0,1,45.652,9.5h0a1.529,1.529,0,0,1,1.534,1.534h0a1.529,1.529,0,0,1-1.534,1.534h0A1.539,1.539,0,0,1,44.118,11.034Zm-5.876,0A1.539,1.539,0,0,1,39.776,9.5h0a1.539,1.539,0,0,1,1.534,1.534h0a1.539,1.539,0,0,1-1.534,1.534h0A1.539,1.539,0,0,1,38.241,11.034Zm-5.876,0A1.529,1.529,0,0,1,33.9,9.5h0a1.539,1.539,0,0,1,1.534,1.534h0A1.539,1.539,0,0,1,33.9,12.568h0A1.529,1.529,0,0,1,32.365,11.034Zm-5.891,0A1.539,1.539,0,0,1,28.008,9.5h0a1.529,1.529,0,0,1,1.534,1.534h0a1.529,1.529,0,0,1-1.534,1.534h0A1.539,1.539,0,0,1,26.474,11.034Zm-5.876,0A1.539,1.539,0,0,1,22.132,9.5h0a1.539,1.539,0,0,1,1.534,1.534h0a1.539,1.539,0,0,1-1.534,1.534h0A1.539,1.539,0,0,1,20.6,11.034Zm-5.876,0A1.529,1.529,0,0,1,16.256,9.5h0a1.539,1.539,0,0,1,1.534,1.534h0a1.539,1.539,0,0,1-1.534,1.534h0A1.529,1.529,0,0,1,14.721,11.034Zm-5.891,0A1.539,1.539,0,0,1,10.364,9.5h0A1.529,1.529,0,0,1,11.9,11.034h0a1.529,1.529,0,0,1-1.534,1.534h0A1.539,1.539,0,0,1,8.83,11.034Z" transform="translate(-2.954 -9.5)" fill="#fb4f3d"/>
      <path id="Path_1898" data-name="Path 1898" d="M52.534,12.562A1.545,1.545,0,0,1,51,11.028a1.541,1.541,0,1,1,1.534,1.534Z" transform="translate(19.575 -9.493)" fill="#fb4f3d"/>
    </g>
  </g>
</svg>
