<svg xmlns="http://www.w3.org/2000/svg" width="414.274" height="245.422" viewBox="0 0 414.274 245.422">
  <g id="graphic" transform="translate(-20.861 -29.137)">
    <g id="BACKGROUND" transform="translate(20.861 29.137)">
      <g id="Group_1502" data-name="Group 1502" transform="translate(0)" opacity="0.34">
        <g id="Group_1501" data-name="Group 1501">
          <g id="Group_1491" data-name="Group 1491" transform="translate(307.743 114.633)" opacity="0.6">
            <path id="Path_1758" data-name="Path 1758" d="M585.641,262.951a69.619,69.619,0,0,1-32.583,75.811,74.024,74.024,0,0,1-17.348,7.162c-.991,1.579-2.065,3.108-3.205,4.587h51.867c13.191-15.7,20.749-35.831,21.938-56.315a97.44,97.44,0,0,0-.447-16.618,106.552,106.552,0,0,0-26.1-57.855c-.211,1.134-.39,2.272-.52,3.416C577.692,236.74,582.684,249.9,585.641,262.951Z" transform="translate(-532.505 -219.723)" fill="#83c5e7"/>
          </g>
          <g id="Group_1492" data-name="Group 1492" transform="translate(55.637 201.293)" opacity="0.41">
            <path id="Path_1759" data-name="Path 1759" d="M258.021,404.766c-3.042-4.2-5.424-9.564-8.651-13.857-6.912,1.406-13.737,3.457-20.641,5.226-14.127,3.62-28.68,6.312-43.26,6.512-16.2.222-32.716-2.9-46.805-11.223-10.744-6.347-20.193-16.044-25.3-27.623a84.574,84.574,0,0,0,16.974,44.128H260.474Q259.2,406.39,258.021,404.766Z" transform="translate(-113.362 -363.801)" fill="#83c5e7"/>
          </g>
          <g id="Group_1493" data-name="Group 1493" transform="translate(193.79 8.17)" opacity="0.41">
            <path id="Path_1760" data-name="Path 1760" d="M370.076,57.731c3.936-.134,8.168-.37,12.786-.719,21.548-1.631,42.893,3.279,63.59,10.059q2.994.981,5.954,2.109a80.09,80.09,0,0,0-32.784-21.765c-24.753-8.577-54.769-5.167-76.572,8.339A196.627,196.627,0,0,1,370.076,57.731Z" transform="translate(-343.05 -42.721)" fill="#83c5e7"/>
          </g>
          <g id="Group_1494" data-name="Group 1494" transform="translate(44.434 15.2)" opacity="0.35">
            <path id="Path_1761" data-name="Path 1761" d="M130.717,268.287c14.049,8.134,30.551,11.243,46.751,11.108,14.58-.121,29.146-2.657,43.291-6.093,6.912-1.68,13.747-3.632,20.666-4.96-2.826-3.679-6.313-6.561-11.5-7.177-20.068-2.385-41.183,5.887-61.161,7.292-13.424.944-27.684-.876-38.533-8.9-7.039-5.207-12.173-12.711-15.675-20.775a72.505,72.505,0,0,1-1.323-53.036c4.153-11.575,14.241-20.372,17.77-32.164,2.948-9.85-.469-20.133.5-30.089a28.116,28.116,0,0,1,1.227-6.044c3.456-10.584,20.051-25.876,30.222-30.986A176.185,176.185,0,0,1,238.7,67.65c-14.747-2.467-28.7-6.9-53.425-12.154-29.363-6.239-62.351,15.311-79.677,40.38a59.549,59.549,0,0,0-4.66,8.022,63.8,63.8,0,0,0-4.906,40.276C99.3,160,109.4,172.189,105.789,189.032c-2.2,10.26-2.782,19.771-3.922,29.928a42.7,42.7,0,0,0,3.68,22.437C110.6,252.641,120,262.084,130.717,268.287Z" transform="translate(-94.736 -54.408)" fill="#83c5e7"/>
          </g>
          <g id="Group_1495" data-name="Group 1495" transform="translate(220.816 22.146)" opacity="0.47">
            <path id="Path_1762" data-name="Path 1762" d="M400.769,66.271c-4.618.349-8.85.585-12.786.719a233.455,233.455,0,0,1,40.262,9.516L478.5,93.034a54.9,54.9,0,0,1,37.8,55.221c-.01.163-.02.327-.03.49a82.614,82.614,0,0,1-13.663,40.313c-7.175,10.707-17.077,22.682-19.555,35.824-1.975,10.471,2.291,21.056,2.81,31.713a48.275,48.275,0,0,1-7.745,28.05,74.024,74.024,0,0,0,17.348-7.162,69.619,69.619,0,0,0,32.583-75.811c-2.957-13.053-7.948-26.211-6.4-39.812.13-1.143.31-2.281.52-3.416,1.533-8.273,4.8-16.356,4.1-24.715-.527-6.316-3.309-12.243-6.709-17.591-11.29-17.756-29.5-30.175-49.246-37.7q-2.958-1.127-5.954-2.109C443.662,69.55,422.317,64.64,400.769,66.271Z" transform="translate(-387.983 -65.957)" fill="#83c5e7"/>
          </g>
          <g id="Group_1496" data-name="Group 1496" transform="translate(58.787 21.202)" opacity="0.7">
            <path id="Path_1763" data-name="Path 1763" d="M142,116.412a29.826,29.826,0,0,0-1.2,6.245c-.914,10.281,2.553,20.874-.345,31.056C136.993,165.9,126.948,175.032,122.854,187c-6.05,17.683-5.76,37.5,1.588,54.731,3.541,8.3,8.714,16.022,15.777,21.36,10.89,8.228,25.159,10.033,38.578,8.989,19.971-1.553,41.044-10.2,61.124-7.841,5.19.609,8.692,3.565,11.536,7.348,3.228,4.293,5.609,9.652,8.651,13.857q1.175,1.625,2.453,3.163H367.555c1.14-1.479,2.214-3.008,3.205-4.588a48.275,48.275,0,0,0,7.745-28.05c-.519-10.657-4.785-21.242-2.81-31.713,2.479-13.141,12.38-25.117,19.555-35.824a82.614,82.614,0,0,0,13.663-40.313c.01-.163.02-.327.03-.49a54.9,54.9,0,0,0-37.8-55.221L320.89,75.881a233.455,233.455,0,0,0-40.262-9.516A196.627,196.627,0,0,0,253.6,64.387c-1.958,0-3.914.028-5.867.085a171.83,171.83,0,0,0-75.664,19.8C161.925,89.6,145.406,105.47,142,116.412Z" transform="translate(-118.599 -64.386)" fill="#83c5e7"/>
          </g>
          <g id="Group_1497" data-name="Group 1497" transform="translate(166.822)" opacity="0.35">
            <circle id="Ellipse_110" data-name="Ellipse 110" cx="8.17" cy="8.17" r="8.17" fill="#83c5e7"/>
          </g>
          <g id="Group_1498" data-name="Group 1498" transform="translate(377.371 86.897)" opacity="0.35">
            <circle id="Ellipse_111" data-name="Ellipse 111" cx="18.451" cy="18.451" r="18.451" fill="#83c5e7"/>
          </g>
          <g id="Group_1499" data-name="Group 1499" transform="translate(0 114.718)" opacity="0.35">
            <circle id="Ellipse_112" data-name="Ellipse 112" cx="18.451" cy="18.451" r="18.451" transform="translate(0 23.582) rotate(-39.719)" fill="#83c5e7"/>
          </g>
          <g id="Group_1500" data-name="Group 1500" transform="translate(313.528 19.792)" opacity="0.35">
            <circle id="Ellipse_113" data-name="Ellipse 113" cx="5.605" cy="5.605" r="5.605" fill="#83c5e7"/>
          </g>
        </g>
      </g>
    </g>
    <g id="OBJECTS" transform="translate(77.608 53.149)">
      <g id="Group_1516" data-name="Group 1516" transform="translate(0 0)">
        <g id="Group_1507" data-name="Group 1507" transform="translate(0 4.008)">
          <g id="Group_1504" data-name="Group 1504" transform="translate(53.393 58.77)" opacity="0.57">
            <g id="Group_1503" data-name="Group 1503">
              <path id="Path_1764" data-name="Path 1764" d="M250.858,303.852a.6.6,0,0,1-.6-.6A74.862,74.862,0,0,1,282.4,241.809a.6.6,0,1,1,.686.988A73.65,73.65,0,0,0,251.46,303.25.6.6,0,0,1,250.858,303.852Z" transform="translate(-222.419 -200.638)" fill="#83c5e7"/>
              <path id="Path_1765" data-name="Path 1765" d="M494.707,327.88a.6.6,0,0,1-.6-.6,73.378,73.378,0,0,0-4.172-24.483.6.6,0,0,1,1.135-.4,74.59,74.59,0,0,1,4.24,24.883A.6.6,0,0,1,494.707,327.88Z" transform="translate(-317.921 -224.666)" fill="#83c5e7"/>
              <path id="Path_1766" data-name="Path 1766" d="M469.13,274.071a.6.6,0,0,1-.553-.367,73.461,73.461,0,0,0-28-33.293.6.6,0,1,1,.652-1.011,74.65,74.65,0,0,1,28.46,33.837.6.6,0,0,1-.554.835Z" transform="translate(-298.154 -199.682)" fill="#83c5e7"/>
              <path id="Path_1767" data-name="Path 1767" d="M311.967,231.031a.6.6,0,0,1-.3-1.121,74.906,74.906,0,0,1,69.373-3.188.6.6,0,0,1-.509,1.089,73.705,73.705,0,0,0-68.256,3.137A.6.6,0,0,1,311.967,231.031Z" transform="translate(-246.772 -191.874)" fill="#83c5e7"/>
              <path id="Path_1768" data-name="Path 1768" d="M228.909,291.221a.6.6,0,0,1-.6-.6,88.053,88.053,0,0,1,52.565-80.56.6.6,0,1,1,.485,1.1,86.852,86.852,0,0,0-51.848,79.46A.6.6,0,0,1,228.909,291.221Z" transform="translate(-213.672 -188.007)" fill="#83c5e7"/>
              <path id="Path_1769" data-name="Path 1769" d="M496,297.7a.6.6,0,0,1-.6-.6,87.206,87.206,0,0,0-35.141-69.748.6.6,0,1,1,.716-.966,88.779,88.779,0,0,1,25.92,30.5A87.022,87.022,0,0,1,496.6,297.1.6.6,0,0,1,496,297.7Z" transform="translate(-306.012 -194.487)" fill="#83c5e7"/>
              <path id="Path_1770" data-name="Path 1770" d="M448.3,219.385a.6.6,0,0,1-.322-.094c-1.779-1.13-3.623-2.209-5.481-3.207a.6.6,0,1,1,.568-1.059c1.884,1.011,3.753,2.1,5.558,3.251a.6.6,0,0,1-.324,1.109Z" transform="translate(-298.906 -189.978)" fill="#83c5e7"/>
              <path id="Path_1771" data-name="Path 1771" d="M393.06,207.36a.6.6,0,0,1-.257-.058,87.09,87.09,0,0,0-64.938-3.8.6.6,0,1,1-.386-1.14,88.3,88.3,0,0,1,65.84,3.848.6.6,0,0,1-.259,1.145Z" transform="translate(-253.031 -183.127)" fill="#83c5e7"/>
              <path id="Path_1772" data-name="Path 1772" d="M540.2,322.494a.6.6,0,0,1-.6-.6,101.25,101.25,0,0,0-5.36-32.617.6.6,0,1,1,1.139-.387,102.455,102.455,0,0,1,5.423,33A.6.6,0,0,1,540.2,322.494Z" transform="translate(-335.581 -219.28)" fill="#83c5e7"/>
              <path id="Path_1773" data-name="Path 1773" d="M508.274,250.948a.6.6,0,0,1-.557-.374,101.539,101.539,0,0,0-34.511-43.9.6.6,0,0,1,.706-.975,102.754,102.754,0,0,1,34.919,44.421.6.6,0,0,1-.557.829Z" transform="translate(-311.17 -186.244)" fill="#83c5e7"/>
              <path id="Path_1774" data-name="Path 1774" d="M411.234,190.036a.6.6,0,0,1-.318-.091A101.715,101.715,0,0,0,332,177.817a.6.6,0,1,1-.3-1.165,102.919,102.919,0,0,1,79.855,12.273.6.6,0,0,1-.319,1.112Z" transform="translate(-254.695 -173.43)" fill="#83c5e7"/>
              <path id="Path_1775" data-name="Path 1775" d="M299.6,189.143a.6.6,0,0,1-.266-1.142,102.5,102.5,0,0,1,9.654-4.132.6.6,0,1,1,.416,1.129,101.092,101.092,0,0,0-9.541,4.083A.6.6,0,0,1,299.6,189.143Z" transform="translate(-241.845 -177.576)" fill="#83c5e7"/>
              <path id="Path_1776" data-name="Path 1776" d="M204.576,285.9a.6.6,0,0,1-.6-.6,102.562,102.562,0,0,1,50.751-88.561.6.6,0,1,1,.608,1.038A101.883,101.883,0,0,0,205.178,285.3.6.6,0,0,1,204.576,285.9Z" transform="translate(-203.975 -182.685)" fill="#83c5e7"/>
            </g>
          </g>
          <g id="Group_1506" data-name="Group 1506" opacity="0.22">
            <g id="Group_1505" data-name="Group 1505">
              <path id="Path_1777" data-name="Path 1777" d="M186.478,274a.9.9,0,0,1-.9-.9,113.369,113.369,0,0,1,35.934-82.939,114.669,114.669,0,0,1,12.936-10.469.9.9,0,0,1,1.03,1.481,112.011,112.011,0,0,0-48.1,91.927A.9.9,0,0,1,186.478,274Z" transform="translate(-143.25 -117.089)" fill="#83c5e7"/>
              <path id="Path_1778" data-name="Path 1778" d="M557.238,310.529a.9.9,0,0,1-.9-.9,111.6,111.6,0,0,0-6.344-37.23.9.9,0,1,1,1.7-.6,113.409,113.409,0,0,1,6.446,37.83A.9.9,0,0,1,557.238,310.529Z" transform="translate(-288.457 -153.621)" fill="#83c5e7"/>
              <path id="Path_1779" data-name="Path 1779" d="M518.35,228.717a.9.9,0,0,1-.832-.552,111.7,111.7,0,0,0-42.584-50.627.9.9,0,1,1,.977-1.516,113.5,113.5,0,0,1,43.269,51.442.9.9,0,0,1-.831,1.253Z" transform="translate(-258.4 -115.636)" fill="#83c5e7"/>
              <path id="Path_1780" data-name="Path 1780" d="M279.39,163.276a.9.9,0,0,1-.456-1.681A113.88,113.88,0,0,1,384.4,156.749a.9.9,0,1,1-.765,1.634,112.076,112.076,0,0,0-103.792,4.77A.9.9,0,0,1,279.39,163.276Z" transform="translate(-180.277 -103.765)" fill="#83c5e7"/>
              <path id="Path_1781" data-name="Path 1781" d="M153.1,254.792a.9.9,0,0,1-.9-.9,133.869,133.869,0,0,1,79.917-122.477.9.9,0,1,1,.727,1.652,132.064,132.064,0,0,0-78.84,120.825A.9.9,0,0,1,153.1,254.792Z" transform="translate(-129.949 -97.885)" fill="#83c5e7"/>
              <path id="Path_1782" data-name="Path 1782" d="M559.2,264.644a.9.9,0,0,1-.9-.9,132.6,132.6,0,0,0-53.434-106.057.9.9,0,0,1,1.075-1.45,134.969,134.969,0,0,1,39.4,46.37,132.3,132.3,0,0,1,14.759,61.137A.9.9,0,0,1,559.2,264.644Z" transform="translate(-270.349 -107.737)" fill="#83c5e7"/>
              <path id="Path_1783" data-name="Path 1783" d="M486.686,145.568a.9.9,0,0,1-.484-.141c-2.71-1.721-5.514-3.362-8.334-4.876a.9.9,0,1,1,.853-1.59c2.859,1.534,5.7,3.2,8.449,4.942a.9.9,0,0,1-.484,1.664Z" transform="translate(-259.545 -100.881)" fill="#83c5e7"/>
              <path id="Path_1784" data-name="Path 1784" d="M402.69,127.285a.9.9,0,0,1-.386-.088,132.424,132.424,0,0,0-98.746-5.771.9.9,0,0,1-.577-1.71,134.23,134.23,0,0,1,100.1,5.851.9.9,0,0,1-.388,1.718Z" transform="translate(-189.793 -90.464)" fill="#83c5e7"/>
              <path id="Path_1785" data-name="Path 1785" d="M626.414,302.341a.9.9,0,0,1-.9-.9,153.966,153.966,0,0,0-8.148-49.6.9.9,0,1,1,1.708-.58,155.755,155.755,0,0,1,8.245,50.177A.9.9,0,0,1,626.414,302.341Z" transform="translate(-315.307 -145.433)" fill="#83c5e7"/>
              <path id="Path_1786" data-name="Path 1786" d="M577.868,193.559a.9.9,0,0,1-.836-.562,154.42,154.42,0,0,0-52.476-66.755.9.9,0,0,1,1.059-1.462A156.221,156.221,0,0,1,578.7,192.316a.9.9,0,0,1-.834,1.243Z" transform="translate(-278.191 -95.204)" fill="#83c5e7"/>
              <path id="Path_1787" data-name="Path 1787" d="M430.322,100.945a.9.9,0,0,1-.477-.137,154.668,154.668,0,0,0-120-18.442.9.9,0,1,1-.449-1.747A156.467,156.467,0,0,1,430.8,99.277a.9.9,0,0,1-.478,1.668Z" transform="translate(-192.324 -75.721)" fill="#83c5e7"/>
              <path id="Path_1788" data-name="Path 1788" d="M260.592,99.588a.9.9,0,0,1-.4-1.712,155.678,155.678,0,0,1,14.677-6.282.9.9,0,0,1,.624,1.693A154.056,154.056,0,0,0,260.989,99.5.893.893,0,0,1,260.592,99.588Z" transform="translate(-172.786 -82.024)" fill="#83c5e7"/>
              <path id="Path_1789" data-name="Path 1789" d="M116.108,246.7a.9.9,0,0,1-.9-.9,155.934,155.934,0,0,1,77.158-134.642.9.9,0,1,1,.913,1.556A154.918,154.918,0,0,0,117.01,245.8.9.9,0,0,1,116.108,246.7Z" transform="translate(-115.206 -89.793)" fill="#83c5e7"/>
            </g>
          </g>
        </g>
        <g id="Group_1508" data-name="Group 1508" transform="translate(104.312 109.003)">
          <path id="Path_1790" data-name="Path 1790" d="M397.015,314.437a4.906,4.906,0,0,1-4.595-3.213l-1.472-3.985a24.561,24.561,0,0,1-9.643-.281l-1.768,3.9a4.978,4.978,0,0,1-2.769,2.611,4.88,4.88,0,0,1-3.783-.11,4.967,4.967,0,0,1-2.434-6.577l1.77-3.9a24.509,24.509,0,0,1-6.563-7.07l-3.968,1.516a4.9,4.9,0,0,1-6.358-2.884,5.026,5.026,0,0,1,2.91-6.414l3.978-1.521a25.1,25.1,0,0,1,.361-9.73l-3.847-1.744a4.995,4.995,0,0,1,.335-9.189,4.88,4.88,0,0,1,3.783.111L366.8,267.7a25.1,25.1,0,0,1,7.084-6.68l-1.476-3.994a5.027,5.027,0,0,1,2.91-6.414,4.9,4.9,0,0,1,6.359,2.884l1.471,3.985a24.517,24.517,0,0,1,9.643.282l1.768-3.9a4.965,4.965,0,0,1,6.552-2.5,4.876,4.876,0,0,1,2.576,2.773,4.98,4.98,0,0,1-.141,3.8l-1.769,3.9a24.541,24.541,0,0,1,6.563,7.071l3.967-1.517a4.9,4.9,0,0,1,6.359,2.884,5.027,5.027,0,0,1-2.91,6.414l-3.978,1.521a25.113,25.113,0,0,1-.361,9.73l3.846,1.745a4.983,4.983,0,0,1-4.117,9.076l-3.848-1.745a25.112,25.112,0,0,1-7.083,6.68l1.475,3.994a5.029,5.029,0,0,1-2.91,6.415A4.925,4.925,0,0,1,397.015,314.437Zm-5.288-8.564,1.822,4.934a3.7,3.7,0,0,0,4.8,2.179,3.82,3.82,0,0,0,2.211-4.874l-1.818-4.924.426-.256a23.958,23.958,0,0,0,7.426-7.005l.285-.416,4.761,2.159a3.781,3.781,0,0,0,3.124-6.886L410,288.622l.125-.488a23.937,23.937,0,0,0,.38-10.2l-.088-.49,4.9-1.874a3.819,3.819,0,0,0,2.211-4.873,3.7,3.7,0,0,0-4.8-2.178l-4.913,1.879-.258-.439a23.355,23.355,0,0,0-6.885-7.419l-.413-.285,2.182-4.809a3.777,3.777,0,0,0,.108-2.89,3.679,3.679,0,0,0-1.943-2.095,3.759,3.759,0,0,0-4.96,1.9l-2.181,4.809-.487-.123a23.363,23.363,0,0,0-10.116-.295l-.5.1-1.822-4.935a3.7,3.7,0,0,0-4.8-2.178,3.819,3.819,0,0,0-2.211,4.874l1.818,4.923-.426.257a23.936,23.936,0,0,0-7.427,7.006l-.284.416-4.762-2.16a3.682,3.682,0,0,0-2.857-.083,3.792,3.792,0,0,0-.267,6.969l4.761,2.159-.125.489a23.957,23.957,0,0,0-.38,10.2l.088.49-4.9,1.874a3.819,3.819,0,0,0-2.211,4.874,3.695,3.695,0,0,0,4.8,2.178l4.913-1.879.259.438a23.337,23.337,0,0,0,6.885,7.418l.413.286-2.182,4.809a3.76,3.76,0,0,0,1.835,4.984,3.679,3.679,0,0,0,2.857.082,3.784,3.784,0,0,0,2.1-1.984l2.182-4.809.487.123a23.372,23.372,0,0,0,10.116.294Zm-4.859-5.093A18.089,18.089,0,0,1,369.9,288.909a18.6,18.6,0,0,1,10.781-23.764,18.038,18.038,0,0,1,13.989.408,18.376,18.376,0,0,1,9,24.347h0A18.492,18.492,0,0,1,386.868,300.779Zm.339-35.647a17.057,17.057,0,0,0-6.095,1.135,17.4,17.4,0,0,0-10.082,22.224,16.838,16.838,0,0,0,8.89,9.579,17.253,17.253,0,0,0,14.255-31.422A16.832,16.832,0,0,0,387.207,265.133Z" transform="translate(-315.129 -250.282)" fill="#fff"/>
          <path id="Path_1791" data-name="Path 1791" d="M311.121,312.549a3.424,3.424,0,0,1-3.43-3.415l-.011-2.62a16.3,16.3,0,0,1-5.655-2.248l-1.85,1.889a3.473,3.473,0,0,1-2.44,1.051,3.3,3.3,0,0,1-2.458-.978,3.4,3.4,0,0,1-1.028-2.437,3.476,3.476,0,0,1,1-2.461l1.85-1.889a16.314,16.314,0,0,1-2.364-5.605l-2.619.042a3.515,3.515,0,0,1-2.459-.978,3.407,3.407,0,0,1-1.027-2.437,3.51,3.51,0,0,1,3.44-3.513l2.631-.043a16.69,16.69,0,0,1,2.314-5.691l-1.862-1.824a3.406,3.406,0,0,1-1.028-2.438,3.5,3.5,0,0,1,3.44-3.512,3.416,3.416,0,0,1,2.458.978l1.862,1.824a16.684,16.684,0,0,1,5.642-2.432l-.012-2.63a3.51,3.51,0,0,1,3.441-3.513,3.455,3.455,0,0,1,2.458.978,3.405,3.405,0,0,1,1.028,2.437l.012,2.619a16.309,16.309,0,0,1,5.654,2.248l1.85-1.889h0a3.469,3.469,0,0,1,2.44-1.052,3.343,3.343,0,0,1,2.458.977,3.468,3.468,0,0,1,.027,4.9l-1.85,1.889a16.313,16.313,0,0,1,2.364,5.606l2.62-.042a3.475,3.475,0,0,1,2.458.978,3.4,3.4,0,0,1,1.028,2.437,3.507,3.507,0,0,1-3.44,3.512l-2.63.043A16.721,16.721,0,0,1,325.119,299l1.862,1.823a3.488,3.488,0,0,1-2.413,5.95,3.381,3.381,0,0,1-2.458-.978l-1.862-1.824a16.682,16.682,0,0,1-5.643,2.432l.013,2.63a3.509,3.509,0,0,1-3.441,3.513Zm-9.257-9.837.416.281a15.124,15.124,0,0,0,6.1,2.423l.5.082.016,3.631a2.223,2.223,0,0,0,2.227,2.218h.038a2.3,2.3,0,0,0,2.257-2.3l-.017-3.618.488-.1a15.528,15.528,0,0,0,6.079-2.62l.41-.293,2.577,2.523a2.161,2.161,0,0,0,1.6.635,2.285,2.285,0,0,0,1.59-3.888l-2.577-2.524.285-.416a15.528,15.528,0,0,0,2.494-6.131l.086-.49,3.617-.058a2.3,2.3,0,0,0,2.257-2.3,2.221,2.221,0,0,0-2.226-2.218h-.037l-3.629.059-.093-.5a15.133,15.133,0,0,0-2.548-6.045l-.291-.41,2.548-2.6a2.263,2.263,0,0,0-.01-3.2,2.084,2.084,0,0,0-1.6-.634,2.276,2.276,0,0,0-1.6.69h0l-2.548,2.6-.416-.281a15.133,15.133,0,0,0-6.1-2.423l-.5-.082-.017-3.63a2.221,2.221,0,0,0-2.226-2.218h-.038a2.3,2.3,0,0,0-2.257,2.3l.017,3.618-.488.1a15.515,15.515,0,0,0-6.078,2.621l-.41.294-2.577-2.525a2.2,2.2,0,0,0-1.6-.633,2.3,2.3,0,0,0-2.257,2.3,2.21,2.21,0,0,0,.666,1.582l2.577,2.525-.285.416a15.518,15.518,0,0,0-2.494,6.131l-.086.49-3.618.058a2.3,2.3,0,0,0-2.257,2.3,2.214,2.214,0,0,0,.666,1.583,2.252,2.252,0,0,0,1.6.634l3.628-.058.093.5a15.148,15.148,0,0,0,2.548,6.044l.291.41-2.548,2.6a2.275,2.275,0,0,0-.657,1.614,2.212,2.212,0,0,0,.666,1.583,2.151,2.151,0,0,0,1.6.634,2.279,2.279,0,0,0,1.6-.69Zm9.064-.339a12.045,12.045,0,0,1-8.489-3.456A12.357,12.357,0,0,1,311,277.847a12.1,12.1,0,0,1,12.324,12.072,12.425,12.425,0,0,1-12.2,12.452Zm.277-23.325-.182,0a11.155,11.155,0,0,0-7.742,19.007,10.916,10.916,0,0,0,7.83,3.112,11.119,11.119,0,0,0,7.808-3.368h0a11.12,11.12,0,0,0,3.205-7.876,10.9,10.9,0,0,0-10.92-10.877Z" transform="translate(-288.631 -257.212)" fill="#fff"/>
          <path id="Path_1792" data-name="Path 1792" d="M331,388.415a4.245,4.245,0,0,1-1.462-.259,4.2,4.2,0,0,1-2.488-5.442l1.231-3.249a20.6,20.6,0,0,1-5.845-5.394l-3.187,1.457a4.252,4.252,0,0,1-5.641-2.07,4.176,4.176,0,0,1-.1-3.242,4.267,4.267,0,0,1,2.229-2.378l3.186-1.457a20.624,20.624,0,0,1-.256-7.95l-3.262-1.194a4.2,4.2,0,0,1-2.488-5.442,4.307,4.307,0,0,1,5.487-2.509l3.273,1.2a21.1,21.1,0,0,1,5.492-5.858l-1.437-3.142a4.181,4.181,0,0,1-.1-3.243,4.279,4.279,0,0,1,7.87-.309l1.437,3.143a21.113,21.113,0,0,1,8.023-.321l1.236-3.259a4.307,4.307,0,0,1,5.486-2.509,4.2,4.2,0,0,1,2.489,5.442l-1.232,3.249a20.644,20.644,0,0,1,5.846,5.395l3.185-1.457a4.259,4.259,0,0,1,3.258-.131,4.2,4.2,0,0,1,2.488,5.442,4.261,4.261,0,0,1-2.23,2.378l-3.186,1.457a20.627,20.627,0,0,1,.256,7.951l3.262,1.193a4.2,4.2,0,0,1,2.488,5.443,4.307,4.307,0,0,1-5.487,2.509l-3.273-1.2a21.113,21.113,0,0,1-5.492,5.858l1.437,3.143a4.177,4.177,0,0,1,.1,3.242,4.3,4.3,0,0,1-5.487,2.509,4.179,4.179,0,0,1-2.383-2.2l-1.438-3.143a21.1,21.1,0,0,1-8.024.322l-1.235,3.259A4.311,4.311,0,0,1,331,388.415Zm-8.156-15.854.286.413a19.455,19.455,0,0,0,6.2,5.715l.438.257-1.589,4.195a3,3,0,0,0,1.776,3.886,3.1,3.1,0,0,0,3.949-1.805l1.586-4.184.49.085a19.945,19.945,0,0,0,8.5-.341l.488-.127,1.854,4.055a2.982,2.982,0,0,0,1.7,1.57,3.1,3.1,0,0,0,3.949-1.805,2.985,2.985,0,0,0-.074-2.315l-1.854-4.055.415-.287a19.949,19.949,0,0,0,5.818-6.2l.256-.427,4.2,1.537a3.1,3.1,0,0,0,3.948-1.805,2.995,2.995,0,0,0-1.776-3.886l-4.212-1.541.093-.5a19.461,19.461,0,0,0-.27-8.425l-.124-.487,4.094-1.871a3.067,3.067,0,0,0,1.605-1.711,3,3,0,0,0-1.777-3.886,3.065,3.065,0,0,0-2.344.094l-4.094,1.872-.287-.413a19.466,19.466,0,0,0-6.2-5.715l-.439-.257,1.59-4.195a3,3,0,0,0-1.777-3.886,3.1,3.1,0,0,0-3.948,1.806l-1.587,4.183-.49-.085a19.929,19.929,0,0,0-8.5.341l-.488.126-1.854-4.054a3.076,3.076,0,0,0-5.651.235,2.983,2.983,0,0,0,.074,2.316l1.854,4.054-.415.287a19.927,19.927,0,0,0-5.817,6.2l-.256.427-4.2-1.537a3.1,3.1,0,0,0-3.948,1.805,3,3,0,0,0,1.776,3.886l4.212,1.542-.093.5a19.449,19.449,0,0,0,.269,8.424l.124.487-4.094,1.872a3.068,3.068,0,0,0-1.6,1.711,2.986,2.986,0,0,0,.073,2.314,3.051,3.051,0,0,0,4.047,1.476Zm16.657,4.413a15.419,15.419,0,1,1,14.244-21.868,15.194,15.194,0,0,1,.378,11.784A15.676,15.676,0,0,1,339.5,376.974Zm.213-29.6a14.216,14.216,0,1,0,5.786,27.089h0a14.336,14.336,0,0,0,7.5-7.995,14,14,0,0,0-.348-10.857A14.184,14.184,0,0,0,339.71,347.369Z" transform="translate(-298.196 -283.935)" fill="#fff"/>
        </g>
        <g id="Group_1515" data-name="Group 1515" transform="translate(22.153)">
          <g id="Group_1511" data-name="Group 1511" transform="translate(49.848 36.264)">
            <g id="Group_1510" data-name="Group 1510">
              <g id="Group_1509" data-name="Group 1509">
                <path id="Rectangle_129" data-name="Rectangle 129" d="M2.582,0H18.6a2.583,2.583,0,0,1,2.583,2.583v12.3A2.583,2.583,0,0,1,18.6,17.466H2.583A2.583,2.583,0,0,1,0,14.883V2.582A2.582,2.582,0,0,1,2.582,0Z" transform="translate(4.62 0.586) rotate(13.354)" fill="#fcd86e"/>
                <path id="Path_1793" data-name="Path 1793" d="M254.952,152.406a2.445,2.445,0,0,1-.566-.067h0L236.8,148.165a2.459,2.459,0,0,1-1.822-2.956l3.317-13.971a2.46,2.46,0,0,1,2.956-1.822l17.585,4.174a2.46,2.46,0,0,1,1.822,2.956l-3.318,13.971A2.459,2.459,0,0,1,254.952,152.406Zm-.15-1.822a.649.649,0,0,0,.784-.483L258.9,136.13a.653.653,0,0,0-.484-.784l-17.584-4.174a.651.651,0,0,0-.784.484l-3.317,13.971a.652.652,0,0,0,.483.784l17.585,4.174Z" transform="translate(-234.913 -129.349)" fill="#333564"/>
              </g>
              <path id="Path_1794" data-name="Path 1794" d="M251.638,149.428a1.471,1.471,0,0,1-.306-.033,1.414,1.414,0,0,1-.9-.625l-2.21-3.473a.9.9,0,0,1,1.523-.969l2,3.148,7.464-4.812a.9.9,0,0,1,.977,1.517l-7.786,5.019A1.414,1.414,0,0,1,251.638,149.428Z" transform="translate(-240.162 -134.598)" fill="#fff"/>
            </g>
          </g>
          <g id="Group_1514" data-name="Group 1514" transform="translate(198.901 41.422)">
            <g id="Group_1513" data-name="Group 1513">
              <g id="Group_1512" data-name="Group 1512">
                <path id="Rectangle_130" data-name="Rectangle 130" d="M2.583,0H18.6a2.582,2.582,0,0,1,2.582,2.582v12.3A2.582,2.582,0,0,1,18.6,17.466H2.582A2.582,2.582,0,0,1,0,14.883V2.583A2.583,2.583,0,0,1,2.583,0Z" transform="matrix(0.994, -0.11, 0.11, 0.994, 0.741, 3.08)" fill="#83c5e7"/>
                <path id="Path_1795" data-name="Path 1795" d="M486.76,159.105a2.457,2.457,0,0,1-2.436-2.185l-1.586-14.271a2.458,2.458,0,0,1,2.17-2.711l17.962-2a2.458,2.458,0,0,1,2.713,2.169l1.586,14.272a2.458,2.458,0,0,1-2.17,2.711l-17.961,2A2.538,2.538,0,0,1,486.76,159.105Zm16.381-19.375a.579.579,0,0,0-.072,0l-17.963,2a.651.651,0,0,0-.575.719l1.586,14.271a.651.651,0,0,0,.719.575l17.962-2h0a.651.651,0,0,0,.574-.719l-1.586-14.271A.652.652,0,0,0,503.141,139.73Z" transform="translate(-482.723 -137.926)" fill="#333564"/>
              </g>
              <path id="Path_1796" data-name="Path 1796" d="M498.9,155.44a1.409,1.409,0,0,1-.869-.3l-3.25-2.523a.9.9,0,0,1,1.107-1.426l2.947,2.288,5.4-7.045a.9.9,0,0,1,1.432,1.1l-5.639,7.349a1.413,1.413,0,0,1-.947.545A1.468,1.468,0,0,1,498.9,155.44Z" transform="translate(-487.388 -141.176)" fill="#fff"/>
            </g>
          </g>
          <circle id="Ellipse_114" data-name="Ellipse 114" cx="4.91" cy="4.91" r="4.91" transform="translate(0 67.841)" fill="#fef3d3"/>
          <circle id="Ellipse_115" data-name="Ellipse 115" cx="4.91" cy="4.91" r="4.91" transform="translate(128.662)" fill="#83c5e7"/>
          <path id="Path_1797" data-name="Path 1797" d="M209.932,186.941a1.865,1.865,0,1,1-1.865-1.865A1.865,1.865,0,0,1,209.932,186.941Z" transform="translate(-173.623 -115.294)" fill="#83c5e7"/>
          <path id="Path_1798" data-name="Path 1798" d="M566.915,159.766a1.865,1.865,0,1,1-1.865-1.865A1.865,1.865,0,0,1,566.915,159.766Z" transform="translate(-315.888 -104.464)" fill="#fcd86e"/>
          <circle id="Ellipse_116" data-name="Ellipse 116" cx="1.865" cy="1.865" r="1.865" transform="translate(70.061 16.415)" fill="#83c5e7"/>
          <circle id="Ellipse_117" data-name="Ellipse 117" cx="1.865" cy="1.865" r="1.865" transform="translate(8.662 104.559)" fill="#fcd86e"/>
          <circle id="Ellipse_118" data-name="Ellipse 118" cx="1.865" cy="1.865" r="1.865" transform="translate(259.228 120.618)" fill="#fcd86e"/>
          <path id="Path_1799" data-name="Path 1799" d="M633.213,308.924a3.435,3.435,0,1,1-3.435-3.435A3.435,3.435,0,0,1,633.213,308.924Z" transform="translate(-341.057 -163.281)" fill="#fcd86e"/>
          <path id="Path_1800" data-name="Path 1800" d="M451.679,124.235a4.062,4.062,0,1,1-4.062-4.062A4.063,4.063,0,0,1,451.679,124.235Z" transform="translate(-268.212 -89.428)" fill="#fcd86e"/>
        </g>
      </g>
      <g id="Group_1534" data-name="Group 1534" transform="translate(23.995 71.186)">
        <g id="Group_1518" data-name="Group 1518" transform="translate(4.001 74.04)">
          <g id="Group_1517" data-name="Group 1517">
            <path id="Path_1883" data-name="Path 1883" d="M11.678,0H70.709A11.678,11.678,0,0,1,82.387,11.678V48.24A11.678,11.678,0,0,1,70.709,59.918H11.678A11.678,11.678,0,0,1,0,48.24V11.678A11.678,11.678,0,0,1,11.678,0Z" transform="translate(0.883 1.056) rotate(-0.12)" fill="#83c5e7"/>
            <path id="Path_1801" data-name="Path 1801" d="M171.728,372.363a9.9,9.9,0,0,1-9.89-9.869l-.087-41.942a9.9,9.9,0,0,1,9.869-9.911l64.411-.135h.02a9.9,9.9,0,0,1,9.891,9.869l.088,41.943a9.916,9.916,0,0,1-9.869,9.91h0l-64.411.135Zm64.431-1.038h0Zm-.108-59.015h-.016l-64.411.135a8.1,8.1,0,0,0-8.068,8.1l.087,41.942a8.1,8.1,0,0,0,8.086,8.068h.017l64.411-.135a8.112,8.112,0,0,0,8.068-8.1l-.088-41.942A8.1,8.1,0,0,0,236.051,312.31Z" transform="translate(-161.751 -310.506)" fill="#333564"/>
          </g>
          <path id="Path_1882" data-name="Path 1882" d="M11.678,0H70.709A11.678,11.678,0,0,1,82.387,11.678V48.24A11.678,11.678,0,0,1,70.709,59.918H11.678A11.678,11.678,0,0,1,0,48.24V11.678A11.678,11.678,0,0,1,11.678,0Z" transform="translate(1.665 1.056) rotate(-0.12)" fill="#233863" opacity="0.24"/>
        </g>
        <g id="Group_1528" data-name="Group 1528">
          <g id="Group_1520" data-name="Group 1520" transform="translate(45.286 57.684)">
            <g id="Group_1519" data-name="Group 1519">
              <rect id="Rectangle_133" data-name="Rectangle 133" width="40.829" height="54.735" rx="1.277" transform="translate(38.463 0.584) rotate(43.793)" fill="#fff"/>
              <path id="Path_1802" data-name="Path 1802" d="M260.422,352.247a1.659,1.659,0,0,1-1.155-.465h0L230.9,324.59a1.672,1.672,0,0,1-.049-2.363l36.815-38.4a1.672,1.672,0,0,1,2.363-.049l28.363,27.192a1.672,1.672,0,0,1,.049,2.363l-36.815,38.4a1.659,1.659,0,0,1-1.171.514Zm.094-1.768h0Zm-28.267-27.1,28.17,27.007,36.631-38.207-28.17-27.008Z" transform="translate(-230.389 -283.313)" fill="#233863"/>
            </g>
            <path id="Path_1803" data-name="Path 1803" d="M321.019,324.251a.6.6,0,0,1-.416-.167l-10.678-10.238a.6.6,0,0,1,.833-.868l10.678,10.237a.6.6,0,0,1-.417,1.036Z" transform="translate(-262.012 -295.069)" fill="#fcd86e"/>
            <path id="Path_1804" data-name="Path 1804" d="M305.02,329.184a.6.6,0,0,1-.416-.167l-21.357-20.476a.6.6,0,0,1,.833-.869l21.357,20.476a.6.6,0,0,1-.417,1.036Z" transform="translate(-251.381 -292.954)" fill="#233863"/>
            <path id="Path_1805" data-name="Path 1805" d="M293.446,341.256a.6.6,0,0,1-.416-.167l-21.357-20.476a.6.6,0,0,1,.833-.869l21.357,20.476a.6.6,0,0,1-.417,1.036Z" transform="translate(-246.768 -297.765)" fill="#233863"/>
            <path id="Path_1806" data-name="Path 1806" d="M282.554,352.618a.6.6,0,0,1-.417-.167l-21.357-20.476a.6.6,0,1,1,.833-.868l21.357,20.476a.6.6,0,0,1-.416,1.035Z" transform="translate(-242.427 -302.293)" fill="#233863"/>
            <path id="Path_1807" data-name="Path 1807" d="M270.979,364.691a.6.6,0,0,1-.416-.168l-21.357-20.476a.6.6,0,1,1,.833-.868L271.4,363.655a.6.6,0,0,1-.417,1.036Z" transform="translate(-237.814 -307.104)" fill="#233863"/>
          </g>
          <g id="Group_1523" data-name="Group 1523" transform="translate(0 39.207)">
            <g id="Group_1521" data-name="Group 1521">
              <rect id="Rectangle_134" data-name="Rectangle 134" width="40.829" height="54.735" rx="1.277" transform="translate(0.67 16.109) rotate(-22.221)" fill="#fff"/>
              <path id="Path_1808" data-name="Path 1808" d="M176.889,320.041A1.675,1.675,0,0,1,175.343,319l-20.118-49.247a1.669,1.669,0,0,1,.915-2.179l36.374-14.86a1.673,1.673,0,0,1,2.178.914l20.119,49.247a1.673,1.673,0,0,1-.914,2.178h0l-36.374,14.86A1.66,1.66,0,0,1,176.889,320.041ZM156.946,269.2l20.017,49,36.127-14.759-20.018-49Zm56.608,35.026h0Zm-.342-.835h0Z" transform="translate(-155.099 -252.593)" fill="#333564"/>
            </g>
            <path id="Path_1809" data-name="Path 1809" d="M208.9,282.764a.6.6,0,0,1-.227-1.158l6.255-2.556a.6.6,0,0,1,.455,1.114l-6.255,2.556A.6.6,0,0,1,208.9,282.764Z" transform="translate(-176.302 -263.119)" fill="#333564"/>
            <path id="Path_1810" data-name="Path 1810" d="M180.092,306.88a.6.6,0,0,1-.227-1.158l27.388-11.189a.6.6,0,1,1,.455,1.113L180.32,306.836A.6.6,0,0,1,180.092,306.88Z" transform="translate(-164.82 -269.289)" fill="#333564"/>
            <path id="Path_1811" data-name="Path 1811" d="M211.832,310.672a.6.6,0,0,1-.227-1.158l10.887-4.447a.6.6,0,1,1,.455,1.113l-10.887,4.447A.6.6,0,0,1,211.832,310.672Z" transform="translate(-177.469 -273.487)" fill="#fcd86e"/>
            <path id="Path_1812" data-name="Path 1812" d="M184.4,323.024a.6.6,0,0,1-.227-1.158l6.664-2.722a.6.6,0,1,1,.455,1.113l-6.664,2.723A.594.594,0,0,1,184.4,323.024Z" transform="translate(-166.534 -279.096)" fill="#fcd86e"/>
            <path id="Path_1813" data-name="Path 1813" d="M187.969,332.543a.6.6,0,0,1-.227-1.158l16.87-6.892a.6.6,0,1,1,.455,1.114L188.2,332.5A.593.593,0,0,1,187.969,332.543Z" transform="translate(-167.959 -281.229)" fill="#233863"/>
            <g id="Group_1522" data-name="Group 1522" transform="translate(5.939 5.694)">
              <rect id="Rectangle_135" data-name="Rectangle 135" width="18.262" height="19.415" rx="2.004" transform="matrix(0.918, -0.398, 0.398, 0.918, 0.222, 7.481)" fill="#fcd86e"/>
              <path id="Path_1814" data-name="Path 1814" d="M173.542,287.578a1.812,1.812,0,0,1-1.659-1.089l-6.76-15.6a1.807,1.807,0,0,1,.94-2.376l14.544-6.3a1.809,1.809,0,0,1,2.376.939l6.76,15.6a1.807,1.807,0,0,1-.94,2.376h0l-14.544,6.3A1.8,1.8,0,0,1,173.542,287.578Zm7.783-24.315a.6.6,0,0,0-.239.049l-14.544,6.3a.6.6,0,0,0-.314.795l6.761,15.6a.6.6,0,0,0,.794.314l14.544-6.3a.6.6,0,0,0,.314-.795l-6.76-15.6A.6.6,0,0,0,181.324,263.263Zm7.24,17.312h0Z" transform="translate(-164.973 -262.059)" fill="#333564"/>
            </g>
            <path id="Path_1815" data-name="Path 1815" d="M176.2,274.339a1.426,1.426,0,0,1-1.306-.858l-.793-1.829a.3.3,0,0,1,.552-.24l.793,1.83a.82.82,0,0,0,1.079.427l.134-.057a.636.636,0,0,0,.33-.834l-2.007-4.631a.657.657,0,0,0-.862-.341l-.228.1a.7.7,0,0,0-.362.916l.049.113a.3.3,0,0,1-.551.241l-.05-.115a1.3,1.3,0,0,1,.675-1.708l.228-.1a1.262,1.262,0,0,1,1.653.653l2.007,4.631a1.239,1.239,0,0,1-.643,1.626l-.134.057A1.413,1.413,0,0,1,176.2,274.339Z" transform="translate(-162.182 -258.394)" fill="#333564"/>
            <path id="Path_1816" data-name="Path 1816" d="M191.14,267.485a1.277,1.277,0,1,1-1.807-.017A1.278,1.278,0,0,1,191.14,267.485Z" transform="translate(-168.59 -258.375)" fill="#fff"/>
          </g>
          <g id="Group_1525" data-name="Group 1525" transform="translate(33.906)">
            <g id="Group_1524" data-name="Group 1524">
              <rect id="Rectangle_136" data-name="Rectangle 136" width="40.829" height="54.735" rx="1.277" transform="translate(0.663 16.619) rotate(-23.003)" fill="#fff"/>
              <path id="Path_1817" data-name="Path 1817" d="M233.93,255.074a1.674,1.674,0,0,1-1.537-1.018L211.6,205.088a1.673,1.673,0,0,1,.885-2.19l36.169-15.355a1.67,1.67,0,0,1,2.19.886L271.636,237.4a1.669,1.669,0,0,1-.885,2.19l-36.168,15.355A1.67,1.67,0,0,1,233.93,255.074Zm-20.613-50.568L234,253.228l35.921-15.251-20.684-48.721Z" transform="translate(-211.471 -187.409)" fill="#333564"/>
            </g>
            <path id="Path_1818" data-name="Path 1818" d="M265.326,217.648a.6.6,0,0,1-.235-1.155l6.219-2.641a.6.6,0,0,1,.47,1.107l-6.219,2.64A.6.6,0,0,1,265.326,217.648Z" transform="translate(-232.693 -197.928)" fill="#333564"/>
            <path id="Path_1819" data-name="Path 1819" d="M236.923,241.964a.6.6,0,0,1-.235-1.155l27.234-11.562a.6.6,0,1,1,.47,1.107l-27.234,11.562A.6.6,0,0,1,236.923,241.964Z" transform="translate(-221.374 -204.063)" fill="#333564"/>
            <path id="Path_1820" data-name="Path 1820" d="M268.651,245.472a.6.6,0,0,1-.235-1.155l10.825-4.6a.6.6,0,1,1,.47,1.107l-10.825,4.6A.6.6,0,0,1,268.651,245.472Z" transform="translate(-234.018 -208.237)" fill="#fcd86e"/>
            <path id="Path_1821" data-name="Path 1821" d="M241.37,258.234a.6.6,0,0,1-.235-1.155l6.626-2.813a.6.6,0,0,1,.47,1.108l-6.626,2.813A.6.6,0,0,1,241.37,258.234Z" transform="translate(-223.146 -214.034)" fill="#fcd86e"/>
            <path id="Path_1822" data-name="Path 1822" d="M245.111,267.613a.6.6,0,0,1-.235-1.155l16.775-7.122a.6.6,0,0,1,.47,1.108l-16.775,7.122A.6.6,0,0,1,245.111,267.613Z" transform="translate(-224.637 -216.054)" fill="#333564"/>
          </g>
          <g id="Group_1527" data-name="Group 1527" transform="translate(33.942 42.651)">
            <g id="Group_1526" data-name="Group 1526">
              <rect id="Rectangle_137" data-name="Rectangle 137" width="40.829" height="54.735" rx="1.277" transform="matrix(0.989, 0.15, -0.15, 0.989, 9.006, 0.796)" fill="#fcd86e"/>
              <path id="Path_1823" data-name="Path 1823" d="M252.052,320.151a1.728,1.728,0,0,1-.254-.019h0l-38.847-5.895a1.67,1.67,0,0,1-1.4-1.9l7.979-52.6a1.671,1.671,0,0,1,1.9-1.4l38.848,5.894a1.672,1.672,0,0,1,1.4,1.9l-7.98,52.6a1.672,1.672,0,0,1-1.649,1.42Zm-38.7-7.677,38.583,5.854L259.876,266l-38.583-5.854Z" transform="translate(-211.53 -258.319)" fill="#233863"/>
            </g>
            <path id="Path_1824" data-name="Path 1824" d="M243.161,273.876a.577.577,0,0,1-.091-.007l-7.458-1.131a.6.6,0,1,1,.181-1.189l7.457,1.131a.6.6,0,0,1-.09,1.2Z" transform="translate(-220.924 -263.589)" fill="#fff"/>
            <path id="Path_1825" data-name="Path 1825" d="M274.615,292.081a.669.669,0,0,1-.091-.007l-8.563-1.3a.6.6,0,1,1,.181-1.189l8.563,1.3a.6.6,0,0,1-.09,1.2Z" transform="translate(-233.018 -270.777)" fill="#333564"/>
            <path id="Path_1826" data-name="Path 1826" d="M246.281,287.783a.582.582,0,0,1-.091-.007l-14.626-2.219a.6.6,0,1,1,.181-1.189l14.626,2.219a.6.6,0,0,1-.09,1.2Z" transform="translate(-219.31 -268.697)" fill="#fff"/>
            <path id="Path_1827" data-name="Path 1827" d="M245.811,304.628a.577.577,0,0,1-.091-.007l-16.665-2.528a.6.6,0,0,1,.181-1.189l16.664,2.528a.6.6,0,0,1-.09,1.2Z" transform="translate(-218.311 -275.287)" fill="#333564"/>
            <path id="Path_1828" data-name="Path 1828" d="M256.038,322.1a.588.588,0,0,1-.091-.007L226.7,317.655a.6.6,0,1,1,.181-1.188l29.252,4.438a.6.6,0,0,1-.09,1.2Z" transform="translate(-217.37 -281.489)" fill="#fff"/>
            <path id="Path_1829" data-name="Path 1829" d="M240.727,336.693a.6.6,0,0,1-.091-.007l-16.449-2.5a.6.6,0,1,1,.181-1.189l16.449,2.495a.6.6,0,0,1-.09,1.2Z" transform="translate(-216.37 -288.079)" fill="#fff"/>
          </g>
        </g>
        <g id="Group_1533" data-name="Group 1533" transform="translate(3.994 70.29)">
          <g id="Group_1529" data-name="Group 1529" transform="translate(0.302 11.536)">
            <path id="Path_1830" data-name="Path 1830" d="M239.132,384.368l-69.17.145a6.628,6.628,0,0,1-6.622-6.595l-.1-46.7a6.628,6.628,0,0,1,6.595-6.623l69.17-.145a6.628,6.628,0,0,1,6.623,6.595l.1,46.7A6.629,6.629,0,0,1,239.132,384.368Z" transform="translate(-162.641 -323.849)" fill="#fff"/>
            <path id="Path_1831" data-name="Path 1831" d="M169.55,384.716a7.23,7.23,0,0,1-7.21-7.2l-.1-46.7a7.23,7.23,0,0,1,7.195-7.225l69.17-.145h.015a7.218,7.218,0,0,1,7.211,7.195l.1,46.7a7.218,7.218,0,0,1-7.2,7.224v0l-69.17.146Zm69.072-60.063h-.013l-69.17.145a6.027,6.027,0,0,0-5.994,6.02l.1,46.7a6.026,6.026,0,0,0,6.007,5.995h.013l69.17-.146h0a6.014,6.014,0,0,0,5.995-6.019l-.1-46.7A6.015,6.015,0,0,0,238.622,324.653Z" transform="translate(-162.242 -323.45)" fill="#333564"/>
          </g>
          <g id="Group_1530" data-name="Group 1530">
            <path id="Path_1832" data-name="Path 1832" d="M239.7,305.769l-17.447.037a5.9,5.9,0,0,0-5.869,5.894l.017,8.349-44.19.093a9.014,9.014,0,0,0-8.969,9.007l.088,41.942a9.014,9.014,0,0,0,9.007,8.969l64.411-.135a9.014,9.014,0,0,0,8.969-9.007l-.086-41.083,0-.859-.036-17.336A5.9,5.9,0,0,0,239.7,305.769Z" transform="translate(-162.338 -304.867)" fill="#83c5e7"/>
            <path id="Path_1833" data-name="Path 1833" d="M171.719,380.364a9.9,9.9,0,0,1-9.89-9.869l-.088-41.942a9.9,9.9,0,0,1,9.869-9.911l43.287-.091-.016-7.447a6.8,6.8,0,0,1,6.77-6.8l17.447-.036h.014a6.791,6.791,0,0,1,6.784,6.769l.124,59.279a9.9,9.9,0,0,1-9.869,9.911l-64.412.135ZM239.1,306.074l-17.446.036a5,5,0,0,0-4.969,4.99l.017,8.349a.9.9,0,0,1-.9.9l-44.19.093a8.1,8.1,0,0,0-8.068,8.1l.088,41.942a8.1,8.1,0,0,0,8.086,8.068h.016l64.412-.135a8.1,8.1,0,0,0,8.068-8.1l-.124-59.279a4.984,4.984,0,0,0-4.979-4.968Zm0-.9h0Z" transform="translate(-161.74 -304.27)" fill="#333564"/>
          </g>
          <path id="Path_1834" data-name="Path 1834" d="M244.02,316.891l-15.61.033a5.278,5.278,0,0,0-5.251,5.274l.016,7.472-39.538.083a8.066,8.066,0,0,0-8.025,8.06l.079,37.535a8.066,8.066,0,0,0,8.059,8.027l57.632-.121a8.067,8.067,0,0,0,8.025-8.06l-.078-36.767v-.769l-.032-15.515A5.279,5.279,0,0,0,244.02,316.891Z" transform="translate(-167.268 -309.3)" fill="#fff" opacity="0.12"/>
          <path id="Path_1835" data-name="Path 1835" d="M286.963,412.731a2.937,2.937,0,1,1-2.937-2.937A2.937,2.937,0,0,1,286.963,412.731Z" transform="translate(-209.303 -346.323)" fill="#fff"/>
          <path id="Path_1836" data-name="Path 1836" d="M287.853,324.03a.6.6,0,0,1-.6-.6v-7.995A2.553,2.553,0,0,0,284.6,313h-5.825a.6.6,0,0,1,0-1.2H284.6a3.755,3.755,0,0,1,3.857,3.636v7.995A.6.6,0,0,1,287.853,324.03Z" transform="translate(-208.141 -307.27)" fill="#fff"/>
          <g id="Group_1532" data-name="Group 1532" transform="translate(28.163 30.955)">
            <g id="Group_1531" data-name="Group 1531" transform="translate(7.022)">
              <path id="Path_1837" data-name="Path 1837" d="M221.742,365.259a1.5,1.5,0,0,1-1.054-2.576l7.067-6.948,6.957,6.957a1.5,1.5,0,0,1-2.126,2.126l-4.849-4.849-4.941,4.858A1.5,1.5,0,0,1,221.742,365.259Z" transform="translate(-220.238 -355.735)" fill="#fff"/>
              <path id="Path_1838" data-name="Path 1838" d="M231.641,374.981a1.5,1.5,0,0,1-1.5-1.5V358.26a1.5,1.5,0,0,1,3.007,0v15.218A1.5,1.5,0,0,1,231.641,374.981Z" transform="translate(-224.183 -356.142)" fill="#fff"/>
            </g>
            <path id="Path_1839" data-name="Path 1839" d="M234.113,390.561H211.8a3.238,3.238,0,0,1-3.234-3.234V379.22a1.5,1.5,0,1,1,3.007,0v8.107a.227.227,0,0,0,.226.226h22.317a.4.4,0,0,0,.4-.4V379.22a1.5,1.5,0,1,1,3.007,0v7.932A3.412,3.412,0,0,1,234.113,390.561Z" transform="translate(-208.563 -364.495)" fill="#fff"/>
          </g>
        </g>
      </g>
      <g id="Group_1545" data-name="Group 1545" transform="translate(194.579 141.475)">
        <g id="Group_1537" data-name="Group 1537" transform="translate(0.006 3.751)">
          <g id="Group_1535" data-name="Group 1535">
            <rect id="Rectangle_138" data-name="Rectangle 138" width="82.387" height="59.918" rx="14.943" transform="translate(0.883 1.056) rotate(-0.12)" fill="#3d85fd"/>
            <path id="Path_1840" data-name="Path 1840" d="M448.694,372.363a9.917,9.917,0,0,1-9.89-9.869l-.088-41.942a9.9,9.9,0,0,1,9.869-9.911L513,310.506h.02a9.9,9.9,0,0,1,9.89,9.869L523,362.318a9.9,9.9,0,0,1-9.869,9.91h0l-64.412.135Zm64.431-1.038h0Zm-.108-59.015H513l-64.412.135a8.1,8.1,0,0,0-8.068,8.1l.088,41.942a8.112,8.112,0,0,0,8.085,8.068h.017l64.412-.135a8.112,8.112,0,0,0,8.068-8.1l-.088-41.942A8.1,8.1,0,0,0,513.018,312.31Z" transform="translate(-438.717 -310.506)" fill="#233863"/>
          </g>
          <g id="Group_1536" data-name="Group 1536">
            <rect id="Rectangle_139" data-name="Rectangle 139" width="82.387" height="59.918" rx="14.943" transform="translate(0.883 1.056) rotate(-0.12)" fill="#ffb44f"/>
            <path id="Path_1841" data-name="Path 1841" d="M448.694,372.363a9.917,9.917,0,0,1-9.89-9.869l-.088-41.942a9.9,9.9,0,0,1,9.869-9.911L513,310.506h.02a9.9,9.9,0,0,1,9.89,9.869L523,362.318a9.9,9.9,0,0,1-9.869,9.91h0l-64.412.135Zm64.431-1.038h0Zm-.108-59.015H513l-64.412.135a8.1,8.1,0,0,0-8.068,8.1l.088,41.942a8.112,8.112,0,0,0,8.085,8.068h.017l64.412-.135a8.112,8.112,0,0,0,8.068-8.1l-.088-41.942A8.1,8.1,0,0,0,513.018,312.31Z" transform="translate(-438.717 -310.506)" fill="#233863"/>
          </g>
          <path id="Path_1879" data-name="Path 1879" d="M11.678,0H70.709A11.678,11.678,0,0,1,82.387,11.678V48.24A11.678,11.678,0,0,1,70.709,59.918H11.678A11.678,11.678,0,0,1,0,48.24V11.678A11.678,11.678,0,0,1,11.678,0Z" transform="translate(0.883 1.056) rotate(-0.12)" fill="#333564" opacity="0.24"/>
        </g>
        <g id="Group_1540" data-name="Group 1540" transform="translate(0.302 7.792)">
          <g id="Group_1538" data-name="Group 1538">
            <rect id="Rectangle_141" data-name="Rectangle 141" width="82.387" height="59.918" rx="10.987" transform="translate(0.587 0.76) rotate(-0.12)" fill="#fff"/>
            <path id="Path_1842" data-name="Path 1842" d="M446.516,378.49a7.218,7.218,0,0,1-7.209-7.195l-.1-46.7a7.218,7.218,0,0,1,7.195-7.226l69.17-.145h.015a7.218,7.218,0,0,1,7.21,7.194l.1,46.7a7.219,7.219,0,0,1-7.195,7.226l-69.17.145Zm69.183-1.348v0a6.014,6.014,0,0,0,5.994-6.02l-.1-46.7a6.015,6.015,0,0,0-6.007-5.994h-.013l-69.17.145a6.014,6.014,0,0,0-5.994,6.02l.1,46.7a6.014,6.014,0,0,0,6.006,5.994h.013Z" transform="translate(-439.209 -317.224)" fill="#333564"/>
          </g>
          <g id="Group_1539" data-name="Group 1539" transform="translate(0 3.745)">
            <path id="Path_1843" data-name="Path 1843" d="M516.1,384.368l-69.17.145a6.627,6.627,0,0,1-6.622-6.595l-.1-46.7a6.628,6.628,0,0,1,6.595-6.623l69.17-.145a6.628,6.628,0,0,1,6.622,6.595l.1,46.7A6.628,6.628,0,0,1,516.1,384.368Z" transform="translate(-439.607 -323.849)" fill="#fff"/>
            <path id="Path_1844" data-name="Path 1844" d="M446.516,384.716a7.219,7.219,0,0,1-7.209-7.2l-.1-46.7a7.23,7.23,0,0,1,7.195-7.225l69.17-.145h.015a7.218,7.218,0,0,1,7.21,7.195l.1,46.7a7.218,7.218,0,0,1-7.195,7.224v0l-69.17.146Zm69.072-60.063h-.013l-69.17.145a6.027,6.027,0,0,0-5.994,6.02l.1,46.7a6.014,6.014,0,0,0,6.006,5.995h.013l69.17-.146h0a6.014,6.014,0,0,0,5.994-6.019l-.1-46.7A6.015,6.015,0,0,0,515.589,324.653Z" transform="translate(-439.209 -323.45)" fill="#333564"/>
          </g>
        </g>
        <g id="Group_1544" data-name="Group 1544">
          <g id="Group_1541" data-name="Group 1541">
            <path id="Path_1845" data-name="Path 1845" d="M516.663,305.769l-17.447.037a5.9,5.9,0,0,0-5.869,5.894l.017,8.349-44.189.093a9.013,9.013,0,0,0-8.969,9.007l.088,41.942a9.014,9.014,0,0,0,9.007,8.969l64.411-.135a9.013,9.013,0,0,0,8.969-9.007l-.086-41.083,0-.859-.036-17.336A5.9,5.9,0,0,0,516.663,305.769Z" transform="translate(-439.305 -304.867)" fill="#fcd86e"/>
            <path id="Path_1846" data-name="Path 1846" d="M448.686,380.364a9.9,9.9,0,0,1-9.89-9.869l-.088-41.942a9.9,9.9,0,0,1,9.869-9.911l43.287-.091-.015-7.447a6.8,6.8,0,0,1,6.769-6.8l17.447-.036h.015a6.8,6.8,0,0,1,6.783,6.769l.125,59.279a9.916,9.916,0,0,1-9.869,9.911l-64.411.135Zm67.381-74.289-17.447.036a5,5,0,0,0-4.968,4.99l.017,8.349a.9.9,0,0,1-.9.9l-44.189.093a8.1,8.1,0,0,0-8.068,8.1l.088,41.942a8.094,8.094,0,0,0,8.086,8.068h.016l64.411-.135a8.111,8.111,0,0,0,8.068-8.1l-.124-59.279a5,5,0,0,0-4.979-4.968Zm0-.9h0Z" transform="translate(-438.707 -304.27)" fill="#333564"/>
          </g>
          <path id="Path_1847" data-name="Path 1847" d="M520.705,316.891l-15.61.033a5.278,5.278,0,0,0-5.252,5.274l.016,7.472-39.538.083a8.067,8.067,0,0,0-8.025,8.06l.079,37.535a8.067,8.067,0,0,0,8.059,8.027l57.632-.121a8.067,8.067,0,0,0,8.025-8.06l-.077-36.767,0-.769-.032-15.515A5.279,5.279,0,0,0,520.705,316.891Z" transform="translate(-444.122 -309.3)" fill="#fff" opacity="0.202"/>
          <path id="Path_1848" data-name="Path 1848" d="M563.648,412.731a2.937,2.937,0,1,1-2.937-2.937A2.937,2.937,0,0,1,563.648,412.731Z" transform="translate(-486.158 -346.323)" fill="#fff"/>
          <path id="Path_1849" data-name="Path 1849" d="M564.537,324.03a.6.6,0,0,1-.6-.6v-7.995A2.552,2.552,0,0,0,561.283,313h-5.826a.6.6,0,0,1,0-1.2h5.826a3.755,3.755,0,0,1,3.856,3.636v7.995A.6.6,0,0,1,564.537,324.03Z" transform="translate(-484.995 -307.27)" fill="#fff"/>
        </g>
      </g>
      <g id="Group_1572" data-name="Group 1572" transform="translate(122.026 33.1)">
        <g id="Group_1548" data-name="Group 1548" transform="translate(78.848 39.556)">
          <g id="Group_1546" data-name="Group 1546">
            <rect id="Rectangle_142" data-name="Rectangle 142" width="38.166" height="51.164" rx="1.277" transform="matrix(0.811, 0.585, -0.585, 0.811, 30.513, 0.598)" fill="#fff"/>
            <path id="Path_1853" data-name="Path 1853" d="M480.553,254.873a1.66,1.66,0,0,1-.973-.315h0L449.864,233.14a1.674,1.674,0,0,1-.378-2.332l29.018-40.26a1.671,1.671,0,0,1,2.331-.379l29.715,21.418a1.674,1.674,0,0,1,.379,2.331L481.912,254.18a1.661,1.661,0,0,1-1.088.672A1.717,1.717,0,0,1,480.553,254.873Zm.081-1.779Zm-29.606-21.339,29.5,21.261,28.861-40.042-29.5-21.261Z" transform="translate(-449.172 -189.855)" fill="#233863"/>
          </g>
          <g id="Group_1547" data-name="Group 1547">
            <path id="Path_1880" data-name="Path 1880" d="M1,0H37.167a1,1,0,0,1,1,1V50.166a1,1,0,0,1-1,1H1a1,1,0,0,1-1-1V1A1,1,0,0,1,1,0Z" transform="matrix(0.811, 0.585, -0.585, 0.811, 30.513, 0.598)" fill="#83c5e7"/>
            <path id="Path_1854" data-name="Path 1854" d="M480.553,254.873a1.66,1.66,0,0,1-.973-.315h0L449.864,233.14a1.674,1.674,0,0,1-.378-2.332l29.018-40.26a1.671,1.671,0,0,1,2.331-.379l29.715,21.418a1.674,1.674,0,0,1,.379,2.331L481.912,254.18a1.661,1.661,0,0,1-1.088.672A1.717,1.717,0,0,1,480.553,254.873Zm.081-1.779Zm-29.606-21.339,29.5,21.261,28.861-40.042-29.5-21.261Z" transform="translate(-449.172 -189.855)" fill="#333564"/>
          </g>
          <path id="Path_1855" data-name="Path 1855" d="M527.054,239.249a.6.6,0,0,1-.351-.114l-5.124-3.693a.6.6,0,0,1,.7-.976l5.124,3.693a.6.6,0,0,1-.352,1.089Z" transform="translate(-477.928 -207.588)" fill="#333564"/>
          <path id="Path_1856" data-name="Path 1856" d="M506.442,243.664a.6.6,0,0,1-.351-.114L483.655,227.38a.6.6,0,0,1,.7-.976l22.436,16.17a.6.6,0,0,1-.352,1.09Z" transform="translate(-462.815 -204.375)" fill="#333564"/>
          <path id="Path_1857" data-name="Path 1857" d="M509.179,258.749a.6.6,0,0,1-.351-.114l-8.917-6.427a.6.6,0,0,1,.7-.976l8.918,6.427a.6.6,0,0,1-.352,1.09Z" transform="translate(-469.293 -214.269)" fill="#ffb44f"/>
          <path id="Path_1858" data-name="Path 1858" d="M483.246,240.056a.6.6,0,0,1-.351-.114l-5.458-3.934a.6.6,0,1,1,.7-.976l5.458,3.934a.6.6,0,0,1-.352,1.089Z" transform="translate(-460.336 -207.814)" fill="#ffb44f"/>
          <path id="Path_1859" data-name="Path 1859" d="M483.639,255a.6.6,0,0,1-.351-.114l-13.819-9.961a.6.6,0,1,1,.7-.976l13.819,9.96a.6.6,0,0,1-.352,1.09Z" transform="translate(-457.161 -211.367)" fill="#233863"/>
        </g>
        <g id="Group_1551" data-name="Group 1551" transform="translate(74.653 32.534)">
          <g id="Group_1549" data-name="Group 1549">
            <rect id="Rectangle_144" data-name="Rectangle 144" width="40.829" height="54.735" rx="1.277" transform="translate(20.329 0.677) rotate(21.04)" fill="#fff"/>
            <path id="Path_1860" data-name="Path 1860" d="M480.539,245.278a1.665,1.665,0,0,1-.6-.111h0L443.269,231.06a1.673,1.673,0,0,1-.959-2.16l19.1-49.651a1.674,1.674,0,0,1,2.159-.959L500.24,192.4a1.673,1.673,0,0,1,.96,2.159l-19.1,49.652A1.675,1.675,0,0,1,480.539,245.278Zm-36.5-15.854,36.423,14.011,19-49.4-36.423-14.011Z" transform="translate(-442.198 -178.179)" fill="#233863"/>
          </g>
          <g id="Group_1550" data-name="Group 1550">
            <rect id="Rectangle_145" data-name="Rectangle 145" width="40.829" height="54.735" rx="1.277" transform="translate(20.329 0.677) rotate(21.04)" fill="#fff"/>
            <path id="Path_1861" data-name="Path 1861" d="M480.539,245.278a1.665,1.665,0,0,1-.6-.111h0L443.269,231.06a1.673,1.673,0,0,1-.959-2.16l19.1-49.651a1.674,1.674,0,0,1,2.159-.959L500.24,192.4a1.673,1.673,0,0,1,.96,2.159l-19.1,49.652A1.675,1.675,0,0,1,480.539,245.278Zm-36.5-15.854,36.423,14.011,19-49.4-36.423-14.011Z" transform="translate(-442.198 -178.179)" fill="#333564"/>
          </g>
          <path id="Path_1862" data-name="Path 1862" d="M483.39,207.979a.613.613,0,0,1-.217-.04l-6.307-2.426a.6.6,0,1,1,.432-1.122l6.307,2.426a.6.6,0,0,1-.216,1.163Z" transform="translate(-455.861 -188.608)" fill="#333564"/>
          <path id="Path_1863" data-name="Path 1863" d="M497.1,232.049a.6.6,0,0,1-.216-.041l-27.615-10.622a.6.6,0,1,1,.432-1.122l27.614,10.622a.6.6,0,0,1-.216,1.163Z" transform="translate(-452.833 -194.934)" fill="#333564"/>
          <path id="Path_1864" data-name="Path 1864" d="M504.037,246.91a.607.607,0,0,1-.216-.04l-10.976-4.222a.6.6,0,1,1,.432-1.122l10.976,4.222a.6.6,0,0,1-.216,1.163Z" transform="translate(-462.228 -203.407)" fill="#fcd86e"/>
          <path id="Path_1865" data-name="Path 1865" d="M472.119,234.632a.613.613,0,0,1-.217-.04l-6.718-2.585a.6.6,0,1,1,.432-1.122l6.719,2.584a.6.6,0,0,1-.216,1.163Z" transform="translate(-451.205 -199.167)" fill="#fcd86e"/>
          <path id="Path_1866" data-name="Path 1866" d="M476.594,249.984a.612.612,0,0,1-.217-.04L459.369,243.4a.6.6,0,1,1,.432-1.122l17.009,6.543a.6.6,0,0,1-.216,1.163Z" transform="translate(-448.887 -203.708)" fill="#333564"/>
        </g>
        <g id="Group_1571" data-name="Group 1571">
          <g id="Group_1554" data-name="Group 1554">
            <g id="Group_1553" data-name="Group 1553">
              <g id="Group_1552" data-name="Group 1552">
                <rect id="Rectangle_146" data-name="Rectangle 146" width="47.796" height="64.589" rx="1.58" transform="translate(21.517 0.647) rotate(18.852)" fill="#fcd86e"/>
                <path id="Path_1867" data-name="Path 1867" d="M363.368,201.951a1.845,1.845,0,0,1-.6-.1l-43.433-14.829a1.852,1.852,0,0,1-1.155-2.352l20.256-59.325a1.852,1.852,0,0,1,2.353-1.154l43.432,14.829a1.853,1.853,0,0,1,1.155,2.352L365.123,200.7A1.857,1.857,0,0,1,363.368,201.951ZM340.2,125.9a.055.055,0,0,0-.05.032l-20.256,59.325a.053.053,0,0,0,.03.061l43.433,14.83h0a.054.054,0,0,0,.06-.03l20.256-59.326a.053.053,0,0,0-.031-.061L340.208,125.9Z" transform="translate(-318.082 -124.089)" fill="#333564"/>
              </g>
            </g>
          </g>
          <g id="Group_1570" data-name="Group 1570" transform="translate(6.469 4.003)">
            <g id="Group_1567" data-name="Group 1567">
              <g id="Group_1555" data-name="Group 1555">
                <path id="Rectangle_147" data-name="Rectangle 147" d="M1.58,0H46.216A1.58,1.58,0,0,1,47.8,1.58V63.009a1.581,1.581,0,0,1-1.581,1.581H1.581A1.581,1.581,0,0,1,0,63.009V1.58A1.58,1.58,0,0,1,1.58,0Z" transform="translate(5.986 0.829) rotate(4.579)" fill="#fff"/>
                <path id="Path_1868" data-name="Path 1868" d="M376.441,200.6c-.051,0-.1,0-.152-.006l-45.747-3.664a1.852,1.852,0,0,1-1.7-2l5-62.487a1.856,1.856,0,0,1,2-1.7l45.749,3.664a1.855,1.855,0,0,1,1.7,1.995l-5,62.488a1.852,1.852,0,0,1-1.844,1.705ZM335.7,132.548a.049.049,0,0,0-.049.045l-5,62.487a.054.054,0,0,0,.045.052l45.748,3.664h0c.028-.006.051-.022.052-.044l5-62.488a.049.049,0,0,0-.045-.052L335.7,132.548Z" transform="translate(-328.838 -130.744)" fill="#333564"/>
              </g>
              <g id="Group_1566" data-name="Group 1566" transform="translate(6.36 12.968)">
                <g id="Group_1556" data-name="Group 1556" transform="translate(27.43)">
                  <line id="Line_40" data-name="Line 40" x2="11.589" y2="0.928" transform="translate(0.601 0.602)" fill="#fff" stroke="#fcd86e" stroke-width="1"/>
                  <path id="Path_1869" data-name="Path 1869" d="M397.206,154.435l-.049,0-11.589-.929a.6.6,0,0,1-.551-.647.6.6,0,0,1,.648-.552l11.588.929a.6.6,0,0,1-.048,1.2Z" transform="translate(-385.016 -152.304)" fill="#fcd86e"/>
                </g>
                <g id="Group_1557" data-name="Group 1557" transform="translate(27.133 3.702)">
                  <line id="Line_41" data-name="Line 41" x2="11.589" y2="0.928" transform="translate(0.602 0.602)" fill="#fff" stroke="#fcd86e" stroke-width="1"/>
                  <path id="Path_1870" data-name="Path 1870" d="M396.713,160.59a.445.445,0,0,1-.049,0l-11.589-.928a.6.6,0,1,1,.1-1.2l11.589.928a.6.6,0,0,1-.047,1.2Z" transform="translate(-384.522 -158.458)" fill="#fcd86e"/>
                </g>
                <g id="Group_1558" data-name="Group 1558" transform="translate(0 43.509)">
                  <line id="Line_42" data-name="Line 42" x2="11.589" y2="0.928" transform="translate(0.602 0.602)" fill="#fff" stroke="#fcd86e" stroke-width="1"/>
                  <path id="Path_1871" data-name="Path 1871" d="M351.6,226.772l-.049,0-11.589-.928a.6.6,0,1,1,.1-1.2l11.589.928a.6.6,0,0,1-.048,1.2Z" transform="translate(-339.412 -224.64)" fill="#fcd86e"/>
                </g>
                <g id="Group_1565" data-name="Group 1565" transform="translate(0.693 17.156)">
                  <g id="Group_1559" data-name="Group 1559" transform="translate(1.101 6.318)">
                    <line id="Line_43" data-name="Line 43" x2="10.304" y2="0.825" transform="translate(0.601 0.602)" fill="#fff" stroke="#333564" stroke-width="1"/>
                    <path id="Path_1872" data-name="Path 1872" d="M353.3,193.36l-.049,0-10.3-.825a.6.6,0,1,1,.1-1.2l10.3.825a.6.6,0,0,1-.047,1.2Z" transform="translate(-342.394 -191.331)" fill="#333564"/>
                  </g>
                  <g id="Group_1560" data-name="Group 1560" transform="translate(0 20.053)">
                    <line id="Line_44" data-name="Line 44" x2="17.72" y2="1.419" transform="translate(0.602 0.602)" fill="#fff" stroke="#333564" stroke-width="1"/>
                    <path id="Path_1873" data-name="Path 1873" d="M358.886,216.788l-.049,0-17.72-1.419a.6.6,0,1,1,.1-1.2l17.72,1.419a.6.6,0,0,1-.047,1.2Z" transform="translate(-340.564 -214.166)" fill="#333564"/>
                  </g>
                  <g id="Group_1561" data-name="Group 1561" transform="translate(0.55 13.186)">
                    <line id="Line_45" data-name="Line 45" x2="13.415" y2="1.074" transform="translate(0.602 0.602)" fill="#fff" stroke="#333564" stroke-width="1"/>
                    <path id="Path_1874" data-name="Path 1874" d="M355.5,205.027a.445.445,0,0,1-.049,0l-13.415-1.074a.6.6,0,0,1-.552-.648.6.6,0,0,1,.648-.552l13.415,1.075a.6.6,0,0,1-.048,1.2Z" transform="translate(-341.478 -202.749)" fill="#333564"/>
                  </g>
                  <g id="Group_1562" data-name="Group 1562" transform="translate(1.552)">
                    <line id="Line_46" data-name="Line 46" x2="34.694" y2="2.779" transform="translate(0.602 0.602)" fill="#fff" stroke="#333564" stroke-width="1"/>
                    <path id="Path_1875" data-name="Path 1875" d="M378.441,184.809l-.049,0L343.7,182.028a.6.6,0,0,1-.552-.647.593.593,0,0,1,.648-.552l34.693,2.779a.6.6,0,0,1-.048,1.2Z" transform="translate(-343.145 -180.826)" fill="#333564"/>
                  </g>
                  <g id="Group_1563" data-name="Group 1563" transform="translate(18.244 14.549)">
                    <line id="Line_47" data-name="Line 47" x2="16.578" y2="1.328" transform="translate(0.602 0.602)" fill="#fff" stroke="#333564" stroke-width="1"/>
                    <path id="Path_1876" data-name="Path 1876" d="M388.076,207.546l-.049,0-16.578-1.328a.6.6,0,0,1-.552-.648.6.6,0,0,1,.648-.551l16.577,1.328a.6.6,0,0,1-.047,1.2Z" transform="translate(-370.896 -205.015)" fill="#333564"/>
                  </g>
                  <g id="Group_1564" data-name="Group 1564" transform="translate(15.251 7.361)">
                    <line id="Line_48" data-name="Line 48" x2="21.26" y2="1.794" transform="translate(0.601 0.601)" fill="#fff" stroke="#333564" stroke-width="1"/>
                    <path id="Path_1877" data-name="Path 1877" d="M387.782,196.061a.479.479,0,0,1-.051,0l-21.26-1.794a.6.6,0,0,1,.1-1.2l21.26,1.794a.6.6,0,0,1-.05,1.2Z" transform="translate(-365.92 -193.064)" fill="#333564"/>
                  </g>
                </g>
              </g>
            </g>
            <g id="Group_1569" data-name="Group 1569" transform="translate(20.721 5.539)">
              <g id="Group_1568" data-name="Group 1568">
                <path id="Path_1878" data-name="Path 1878" d="M363.288,139.953" transform="translate(-363.288 -139.953)" fill="none" stroke="#233863" stroke-linecap="round" stroke-linejoin="round" stroke-width="3"/>
              </g>
            </g>
          </g>
        </g>
      </g>
    </g>
  </g>
</svg>
