<svg xmlns="http://www.w3.org/2000/svg" width="119.77" height="92.888" viewBox="0 0 119.77 92.888">
  <g id="Pathology_Reports" data-name="Pathology Reports" transform="translate(-1008.228 -260.818)">
    <g id="hospital" transform="translate(969.82 260.818)">
      <path id="Path_1931" data-name="Path 1931" d="M109.055,38.266a4.125,4.125,0,0,1,4.125,4.125v73.366a4.125,4.125,0,0,1-4.125,4.125H42.533a4.125,4.125,0,0,1-4.125-4.125V42.391a4.125,4.125,0,0,1,4.125-4.125h66.523Z" transform="translate(0 -31.473)" fill="#333564"/>
      <path id="Path_1932" data-name="Path 1932" d="M57.427,119.881a4.125,4.125,0,0,1-4.125-4.125V42.391a4.125,4.125,0,0,1,4.124-4.125H42.533a4.125,4.125,0,0,0-4.125,4.125v73.366a4.125,4.125,0,0,0,4.125,4.125H57.427Z" transform="translate(0 -31.473)" fill="#333564"/>
      <path id="Path_1933" data-name="Path 1933" d="M145.116,38.266v4.259a6.136,6.136,0,0,0,6.129,6.129h24.63A6.136,6.136,0,0,0,182,42.525V38.266Z" transform="translate(-87.766 -31.473)" fill="#efefef"/>
      <path id="Path_1934" data-name="Path 1934" d="M132.529,70.068v67.36a1.8,1.8,0,0,1-1.8,1.8H70.21a1.8,1.8,0,0,1-1.8-1.8V70.068a1.8,1.8,0,0,1,1.8-1.8h60.517A1.8,1.8,0,0,1,132.529,70.068Z" transform="translate(-24.675 -56.148)" fill="#f4f4f4"/>
      <path id="Path_1935" data-name="Path 1935" d="M70.21,139.23h7.767V68.266H70.21a1.8,1.8,0,0,0-1.8,1.8v67.36A1.8,1.8,0,0,0,70.21,139.23Z" transform="translate(-24.675 -56.148)" fill="#efefef"/>
      <path id="Path_1936" data-name="Path 1936" d="M145.649,68.266a6.138,6.138,0,0,0,6.034,5.063h24.63a6.138,6.138,0,0,0,6.034-5.063Z" transform="translate(-88.205 -56.148)" fill="#efefef"/>
      <path id="Path_1937" data-name="Path 1937" d="M192.324,4.189h-3.51a1.019,1.019,0,0,1-1-.834l-.248-1.347A2.452,2.452,0,0,0,185.153,0H174.866a2.452,2.452,0,0,0-2.411,2.008l-.248,1.347a1.019,1.019,0,0,1-1,.834h-3.51a2.579,2.579,0,0,0-2.579,2.579v4.284a2.579,2.579,0,0,0,2.579,2.579h24.63a2.579,2.579,0,0,0,2.579-2.579V6.768A2.579,2.579,0,0,0,192.324,4.189Z" transform="translate(-104.215 0)" fill="#fef3d3"/>
      <g id="Group_1577" data-name="Group 1577" transform="translate(60.9)">
        <path id="Path_1938" data-name="Path 1938" d="M169.637,12.9V8.612a2.579,2.579,0,0,1,2.579-2.579h3.51a1.019,1.019,0,0,0,1-.834l.248-1.347a2.452,2.452,0,0,1,2.411-2.008h8.14A2.453,2.453,0,0,0,185.153,0H174.866a2.452,2.452,0,0,0-2.411,2.008l-.248,1.347a1.019,1.019,0,0,1-1,.834h-3.51a2.579,2.579,0,0,0-2.579,2.579v4.284a2.579,2.579,0,0,0,2.579,2.579h2.051A2.585,2.585,0,0,1,169.637,12.9Z" transform="translate(-165.115)" fill="#fcd86e"/>
      </g>
      <g id="Group_1578" data-name="Group 1578" transform="translate(71.932 5.997)">
        <path id="Path_1939" data-name="Path 1939" d="M233.821,36.447H228.6a1.331,1.331,0,1,1,0-2.663h5.225a1.331,1.331,0,1,1,0,2.663Z" transform="translate(-227.265 -33.784)" fill="#fcd86e"/>
      </g>
      <path id="Path_1940" data-name="Path 1940" d="M302.271,120.552h-4.23v-4.23a.675.675,0,0,0-.675-.675h-5.344a.675.675,0,0,0-.675.675v4.23h-4.23a.675.675,0,0,0-.675.675v5.344a.675.675,0,0,0,.675.675h4.23v4.23a.675.675,0,0,0,.675.675h5.344a.675.675,0,0,0,.675-.675v-4.23h4.23a.675.675,0,0,0,.675-.675v-5.344A.675.675,0,0,0,302.271,120.552Z" transform="translate(-204.006 -95.118)" fill="#f79595"/>
      <path id="Path_1941" data-name="Path 1941" d="M111.942,145.611h22.111a1.268,1.268,0,0,0,1.268-1.268v-6.558a1.268,1.268,0,0,0-1.268-1.268H111.942a1.268,1.268,0,0,0-1.268,1.268v6.558A1.268,1.268,0,0,0,111.942,145.611Z" transform="translate(-59.438 -112.285)" fill="#898991"/>
      <g id="Group_1579" data-name="Group 1579" transform="translate(52.009 42.961)">
        <path id="Path_1942" data-name="Path 1942" d="M161.248,244.684H116.358a1.331,1.331,0,1,1,0-2.663h44.889a1.331,1.331,0,1,1,0,2.663Z" transform="translate(-115.027 -242.021)" fill="#898991"/>
      </g>
      <g id="Group_1580" data-name="Group 1580" transform="translate(59.763 52.038)">
        <path id="Path_1943" data-name="Path 1943" d="M189.422,295.818H160.04a1.331,1.331,0,1,1,0-2.663h29.382a1.331,1.331,0,1,1,0,2.663Z" transform="translate(-158.709 -293.155)" fill="#898991"/>
      </g>
      <g id="Group_1581" data-name="Group 1581" transform="translate(52.009 61.115)">
        <path id="Path_1944" data-name="Path 1944" d="M161.248,346.952H116.358a1.331,1.331,0,0,1,0-2.663h44.889a1.331,1.331,0,1,1,0,2.663Z" transform="translate(-115.027 -344.289)" fill="#898991"/>
      </g>
      <g id="Group_1582" data-name="Group 1582" transform="translate(52.009 70.192)">
        <path id="Path_1945" data-name="Path 1945" d="M161.248,398.086H116.358a1.331,1.331,0,0,1,0-2.663h44.889a1.331,1.331,0,1,1,0,2.663Z" transform="translate(-115.027 -395.423)" fill="#898991"/>
      </g>
      <g id="Group_1583" data-name="Group 1583" transform="translate(52.009 52.038)">
        <path id="Path_1946" data-name="Path 1946" d="M119.436,295.818h-3.077a1.331,1.331,0,1,1,0-2.663h3.077a1.331,1.331,0,1,1,0,2.663Z" transform="translate(-115.027 -293.155)" fill="#898991"/>
      </g>
      <g id="Group_1584" data-name="Group 1584" transform="translate(94.017 52.038)">
        <path id="Path_1947" data-name="Path 1947" d="M356.089,295.818h-3.077a1.331,1.331,0,1,1,0-2.663h3.077a1.331,1.331,0,1,1,0,2.663Z" transform="translate(-351.681 -293.155)" fill="#898991"/>
      </g>
    </g>
    <g id="blood-sample" transform="matrix(0.809, 0.588, -0.588, 0.809, 968.953, 171.958)">
      <path id="Path_1918" data-name="Path 1918" d="M209.665,91.047V21.832H186.978V91.047a11.344,11.344,0,1,0,22.687,0Z" transform="translate(-16.277 -18.244)" fill="#c8eaef"/>
      <path id="Path_1919" data-name="Path 1919" d="M249.352,21.832V91.047a11.346,11.346,0,0,1-8.8,11.055,11.34,11.34,0,0,0,13.883-11.055V21.832Z" transform="translate(-61.043 -18.244)" fill="#8fdbe6"/>
      <path id="Path_1920" data-name="Path 1920" d="M186.978,226.205v35.626a11.344,11.344,0,0,0,22.687,0V226.205Z" transform="translate(-16.277 -189.028)" fill="#f79595"/>
      <path id="Path_1921" data-name="Path 1921" d="M249.352,226.205v35.626a11.346,11.346,0,0,1-8.8,11.055,11.34,11.34,0,0,0,13.883-11.055V226.205Z" transform="translate(-61.043 -189.028)" opacity="0.202"/>
      <path id="Path_1922" data-name="Path 1922" d="M193.882,5.418H170.208A2.708,2.708,0,0,1,167.5,2.71v0A2.708,2.708,0,0,1,170.208,0h23.675a2.708,2.708,0,0,1,2.707,2.707v0A2.708,2.708,0,0,1,193.882,5.418Z" fill="#c8eaef"/>
      <path id="Path_1923" data-name="Path 1923" d="M302.237,0h-5.074a2.709,2.709,0,0,1,0,5.418h5.074a2.709,2.709,0,0,0,0-5.418Z" transform="translate(-108.353 0)" fill="#8fdbe6"/>
      <g id="Group_1576" data-name="Group 1576" transform="translate(175.056 11.042)">
        <path id="Path_1924" data-name="Path 1924" d="M214.707,69.653h4.064a1.233,1.233,0,0,0,0-2.465h-4.064a1.233,1.233,0,0,0,0,2.465Z" transform="translate(-213.474 -67.188)" fill="#f3f3f3"/>
        <path id="Path_1925" data-name="Path 1925" d="M218.769,127.4h-4.064a1.233,1.233,0,1,0,0,2.465h4.064a1.233,1.233,0,1,0,0-2.465Z" transform="translate(-213.473 -117.507)" fill="#f3f3f3"/>
        <path id="Path_1926" data-name="Path 1926" d="M218.769,187.619h-4.064a1.233,1.233,0,1,0,0,2.465h4.064a1.233,1.233,0,1,0,0-2.465Z" transform="translate(-213.473 -167.826)" fill="#f3f3f3"/>
        <path id="Path_1927" data-name="Path 1927" d="M218.769,247.835h-4.064a1.233,1.233,0,1,0,0,2.465h4.064a1.233,1.233,0,0,0,0-2.465Z" transform="translate(-213.473 -218.146)" fill="#f3f3f3"/>
        <path id="Path_1928" data-name="Path 1928" d="M218.769,308.051h-4.064a1.233,1.233,0,1,0,0,2.465h4.064a1.233,1.233,0,1,0,0-2.465Z" transform="translate(-213.473 -268.465)" fill="#f3f3f3"/>
        <path id="Path_1929" data-name="Path 1929" d="M218.769,368.266h-4.064a1.233,1.233,0,1,0,0,2.465h4.064a1.233,1.233,0,1,0,0-2.465Z" transform="translate(-213.473 -318.784)" fill="#f3f3f3"/>
        <path id="Path_1930" data-name="Path 1930" d="M218.769,428.481h-4.064a1.233,1.233,0,1,0,0,2.465h4.064a1.233,1.233,0,1,0,0-2.465Z" transform="translate(-213.473 -369.103)" fill="#f3f3f3"/>
      </g>
    </g>
  </g>
</svg>
