<svg id="laboratory" xmlns="http://www.w3.org/2000/svg" width="78" height="78" viewBox="0 0 78 78">
  <path id="Path_2702" data-name="Path 2702" d="M156.174,30a10.02,10.02,0,0,0-7.132,2.955,5.482,5.482,0,0,1-3.9,1.616H136v4.57h9.141a5.481,5.481,0,0,1,3.9,1.616,10.02,10.02,0,0,0,7.132,2.955h20.959V30Z" transform="translate(-115.281 -25.43)" fill="#83c5e7"/>
  <path id="Path_2703" data-name="Path 2703" d="M145.141,77.285a5.481,5.481,0,0,1,3.9,1.616,10.02,10.02,0,0,0,7.132,2.955h20.959V75H136v2.285Z" transform="translate(-115.281 -63.574)" fill="#62aad0"/>
  <path id="Path_2704" data-name="Path 2704" d="M31,286h4.57v32.145H31Z" transform="translate(-26.277 -242.43)" fill="#47568c"/>
  <path id="Path_2705" data-name="Path 2705" d="M452,286h4.57v32.145H452Z" transform="translate(-383.141 -242.43)" fill="#3a4673"/>
  <path id="Path_2706" data-name="Path 2706" d="M0,271H16.148v4.57H0Z" transform="translate(0 -229.715)" fill="#5e79bc"/>
  <path id="Path_2707" data-name="Path 2707" d="M166,271h9.141v4.57H166Z" transform="translate(-140.711 -229.715)" fill="#5e79bc"/>
  <path id="Path_2708" data-name="Path 2708" d="M286,271h9.141v4.57H286Z" transform="translate(-242.43 -229.715)" fill="#47568c"/>
  <path id="Path_2709" data-name="Path 2709" d="M97.855,210H91v30.012a6.855,6.855,0,1,0,13.711,0V210Z" transform="translate(-77.137 -178.008)" fill="#47568c"/>
  <path id="Path_2710" data-name="Path 2710" d="M142.855,240.012V210H136v36.867A6.863,6.863,0,0,0,142.855,240.012Z" transform="translate(-115.281 -178.008)" fill="#5e79bc"/>
  <path id="Path_2711" data-name="Path 2711" d="M406,271h16.148v4.57H406Z" transform="translate(-344.148 -229.715)" fill="#47568c"/>
  <path id="Path_2712" data-name="Path 2712" d="M123.285,331H121v11.578a2.285,2.285,0,1,0,4.57,0V331Z" transform="translate(-102.566 -280.574)" fill="#b3e4ff"/>
  <path id="Path_2713" data-name="Path 2713" d="M138.285,342.578V331H136v13.863A2.285,2.285,0,0,0,138.285,342.578Z" transform="translate(-115.281 -280.574)" fill="#83c5e7"/>
  <path id="Path_2714" data-name="Path 2714" d="M99.737,62.723,97.855,60l-1.881,2.723C94.479,64.889,91,68.5,91,71.426a6.855,6.855,0,0,0,13.711,0C104.711,68.5,101.232,64.889,99.737,62.723Z" transform="translate(-77.137 -50.859)" fill="#83c5e7"/>
  <path id="Path_2715" data-name="Path 2715" d="M142.855,71.426c0-2.921-3.479-6.536-4.974-8.7L136,60V78.281A6.863,6.863,0,0,0,142.855,71.426Z" transform="translate(-115.281 -50.859)" fill="#62aad0"/>
  <path id="Path_2716" data-name="Path 2716" d="M217.855,210H211v30.012a6.855,6.855,0,1,0,13.711,0V210Z" transform="translate(-178.855 -178.008)" fill="#47568c"/>
  <path id="Path_2717" data-name="Path 2717" d="M262.855,240.012V210H256v36.867A6.863,6.863,0,0,0,262.855,240.012Z" transform="translate(-217 -178.008)" fill="#5e79bc"/>
  <path id="Path_2718" data-name="Path 2718" d="M243.285,331H241v11.578a2.285,2.285,0,1,0,4.57,0V331Z" transform="translate(-204.285 -280.574)" fill="#a1e6ca"/>
  <path id="Path_2719" data-name="Path 2719" d="M258.285,342.578V331H256v13.863A2.285,2.285,0,0,0,258.285,342.578Z" transform="translate(-217 -280.574)" fill="#79c9a6"/>
  <path id="Path_2720" data-name="Path 2720" d="M337.855,210H331v30.012a6.855,6.855,0,1,0,13.711,0V210Z" transform="translate(-280.574 -178.008)" fill="#47568c"/>
  <path id="Path_2721" data-name="Path 2721" d="M382.855,240.012V210H376v36.867A6.863,6.863,0,0,0,382.855,240.012Z" transform="translate(-318.719 -178.008)" fill="#5e79bc"/>
  <path id="Path_2722" data-name="Path 2722" d="M363.285,331H361v11.578a2.285,2.285,0,1,0,4.57,0V331Z" transform="translate(-306.004 -280.574)" fill="#ff6e83"/>
  <path id="Path_2723" data-name="Path 2723" d="M378.285,342.578V331H376v13.863A2.285,2.285,0,0,0,378.285,342.578Z" transform="translate(-318.719 -280.574)" fill="#fb4f3d"/>
  <path id="Path_2724" data-name="Path 2724" d="M0,482H78v4.57H0Z" transform="translate(0 -408.57)" fill="#5e79bc"/>
  <path id="Path_2725" data-name="Path 2725" d="M256,482h39v4.57H256Z" transform="translate(-217 -408.57)" fill="#47568c"/>
  <path id="Path_2726" data-name="Path 2726" d="M415.293,30H406V43.711h9.293a6.855,6.855,0,0,0,0-13.711Z" transform="translate(-344.148 -25.43)" fill="#5e79bc"/>
  <path id="Path_2727" data-name="Path 2727" d="M415.293,81.855A6.863,6.863,0,0,0,422.148,75H406v6.855Z" transform="translate(-344.148 -63.574)" fill="#47568c"/>
  <path id="Path_2728" data-name="Path 2728" d="M391,0V22.852h4.57V0Z" transform="translate(-331.434)" fill="#47568c"/>
  <path id="Path_2729" data-name="Path 2729" d="M391,75h4.57V86.426H391Z" transform="translate(-331.434 -63.574)" fill="#3a4673"/>
</svg>
