<svg id="opd" xmlns="http://www.w3.org/2000/svg" width="85.005" height="74.03" viewBox="0 0 85.005 74.03">
  <g id="Group_1928" data-name="Group 1928" transform="translate(61.366 39.556)">
    <path id="Path_2686" data-name="Path 2686" d="M369.623,271.3h23.638v34.474H369.623Z" transform="translate(-369.623 -271.304)" fill="#484b89"/>
  </g>
  <g id="Group_1929" data-name="Group 1929" transform="translate(0 39.556)">
    <path id="Path_2687" data-name="Path 2687" d="M0,271.3H23.638v34.474H0Z" transform="translate(0 -271.304)" fill="#484b89"/>
  </g>
  <g id="Group_1946" data-name="Group 1946" transform="translate(8.135 0)">
    <g id="Group_1930" data-name="Group 1930" transform="translate(13.116 9.853)">
      <path id="Path_2688" data-name="Path 2688" d="M128,92.4h22.5v64.177H128Z" transform="translate(-128 -92.396)" fill="#333564"/>
    </g>
    <g id="Group_1931" data-name="Group 1931" transform="translate(34.367 9.853)">
      <path id="Path_2689" data-name="Path 2689" d="M256,92.4h21.251v64.177H256Z" transform="translate(-256 -92.396)" fill="#242548"/>
    </g>
    <g id="Group_1932" data-name="Group 1932" transform="translate(24.514 0)">
      <path id="Path_2690" data-name="Path 2690" d="M201.414,33.05v4.76h-4.76V48h4.76v4.76h5.092L209,33.05Z" transform="translate(-196.654 -33.05)" fill="#fb4f3d"/>
    </g>
    <g id="Group_1933" data-name="Group 1933" transform="translate(24.514 52.611)">
      <path id="Path_2691" data-name="Path 2691" d="M196.654,349.939H209v21.419H196.654Z" transform="translate(-196.654 -349.939)" fill="#d7e7f6"/>
    </g>
    <g id="Group_1934" data-name="Group 1934" transform="translate(34.367 52.611)">
      <path id="Path_2692" data-name="Path 2692" d="M256,349.939h9.853v21.419H256Z" transform="translate(-256 -349.939)" fill="#b8d3f0"/>
    </g>
    <g id="Group_1935" data-name="Group 1935" transform="translate(37.961 29.359)">
      <path id="Path_2693" data-name="Path 2693" d="M277.646,209.887h4.981v4.981h-4.981Z" transform="translate(-277.646 -209.887)" fill="#8cb7e8"/>
    </g>
    <g id="Group_1938" data-name="Group 1938" transform="translate(25.793 29.359)">
      <g id="Group_1936" data-name="Group 1936" transform="translate(0 0)">
        <path id="Path_2694" data-name="Path 2694" d="M204.354,209.887h4.981v4.981h-4.981Z" transform="translate(-204.354 -209.887)" fill="#b8d3f0"/>
      </g>
      <g id="Group_1937" data-name="Group 1937" transform="translate(0 9.924)">
        <path id="Path_2695" data-name="Path 2695" d="M204.354,269.66h4.981v4.981h-4.981Z" transform="translate(-204.354 -269.66)" fill="#b8d3f0"/>
      </g>
    </g>
    <g id="Group_1941" data-name="Group 1941" transform="translate(0 48.182)">
      <g id="Group_1939" data-name="Group 1939">
        <path id="Path_2696" data-name="Path 2696" d="M49,323.26h4.981v4.981H49Z" transform="translate(-49 -323.26)" fill="#ebf3fb"/>
      </g>
      <g id="Group_1940" data-name="Group 1940" transform="translate(0 9.924)">
        <path id="Path_2697" data-name="Path 2697" d="M49,383.034h4.981v4.981H49Z" transform="translate(-49 -383.034)" fill="#ebf3fb"/>
      </g>
    </g>
    <g id="Group_1944" data-name="Group 1944" transform="translate(63.753 48.182)">
      <g id="Group_1942" data-name="Group 1942">
        <path id="Path_2698" data-name="Path 2698" d="M433,323.26h4.981v4.981H433Z" transform="translate(-433 -323.26)" fill="#d7e7f6"/>
      </g>
      <g id="Group_1943" data-name="Group 1943" transform="translate(0 9.924)">
        <path id="Path_2699" data-name="Path 2699" d="M433,383.034h4.981v4.981H433Z" transform="translate(-433 -383.034)" fill="#d7e7f6"/>
      </g>
    </g>
    <g id="Group_1945" data-name="Group 1945" transform="translate(37.961 39.283)">
      <path id="Path_2700" data-name="Path 2700" d="M277.646,269.66h4.981v4.981h-4.981Z" transform="translate(-277.646 -269.66)" fill="#8cb7e8"/>
    </g>
  </g>
  <g id="Group_1947" data-name="Group 1947" transform="translate(42.502 0)">
    <path id="Path_2701" data-name="Path 2701" d="M261.093,37.81V33.05H256V52.756h5.093V48h4.76V37.81Z" transform="translate(-256 -33.05)" fill="#dc4b4b"/>
  </g>
</svg>
