<svg xmlns="http://www.w3.org/2000/svg" width="87.168" height="79.119" viewBox="0 0 87.168 79.119">
  <g id="money" transform="translate(-629.416 -481.803)">
    <path id="Path_2104" data-name="Path 2104" d="M263.961,116.592a1.324,1.324,0,0,1-.206-.016,10.567,10.567,0,0,1-4.516-2.243,13.88,13.88,0,0,0-2.358-1.479c-2.59-1.153-5.368-.2-8.259,2.83a1.316,1.316,0,0,1-1.9-1.816c4.659-4.884,8.68-4.554,11.233-3.417a16.047,16.047,0,0,1,2.826,1.748,8.509,8.509,0,0,0,3.386,1.778,1.315,1.315,0,0,1-.2,2.615Z" transform="translate(425.003 386.719)" fill="#655e67"/>
    <path id="Path_2105" data-name="Path 2105" d="M264.934,160.772a1.312,1.312,0,0,1-.976-.433c-1.76-1.944-2.438-4.4-3.094-6.779-.17-.616-.331-1.2-.51-1.774a9.145,9.145,0,0,0-4.454-5.509,5.578,5.578,0,0,0-4.642-.1,1.315,1.315,0,0,1-.984-2.44,8.217,8.217,0,0,1,6.753.167,11.68,11.68,0,0,1,5.839,7.1c.192.617.366,1.247.534,1.857.6,2.177,1.168,4.233,2.508,5.713a1.316,1.316,0,0,1-.975,2.2Z" transform="translate(422.434 359.05)" fill="#655e67"/>
    <path id="Path_2106" data-name="Path 2106" d="M128.319,25.044c-1.634-1.438-3.526-1.929-5.487-.727a3.634,3.634,0,0,1-3.823.13,5.458,5.458,0,0,0-5.718,0,3.634,3.634,0,0,1-3.823-.13c-1.961-1.2-3.852-.711-5.487.727-2.563,2.255-3.523,5.985-.419,11.266,2.218,3.774,5.2,6.1,7.652,6.3,1.321,1.653,8.55,1.653,9.872,0,2.455-.2,5.434-2.526,7.652-6.3C131.841,31.03,130.882,27.3,128.319,25.044Z" transform="translate(545.1 458.164)" fill="#2aa2e0"/>
    <path id="Path_2107" data-name="Path 2107" d="M41.594,166.137H22.074S0,192.541,0,203.252C0,215.233,10.639,221,16.325,221H47.343c5.687,0,16.325-5.762,16.325-17.744,0-10.71-22.074-37.115-22.074-37.115Z" transform="translate(629.416 339.926)" fill="#2aa2e0"/>
    <g id="Group_1609" data-name="Group 1609" transform="translate(648.227 481.803)">
      <path id="Path_2108" data-name="Path 2108" d="M189.234,25.046c-1.634-1.438-3.526-1.929-5.487-.727-.126.077-.254.146-.384.209a6.5,6.5,0,0,1,.582.518c2.255,2.255,3.1,5.985.369,11.266-1.952,3.774-4.573,6.1-6.733,6.3a3.965,3.965,0,0,1-2.552,1.107c2.626.356,6.1-.012,6.971-1.107,2.455-.2,5.434-2.526,7.652-6.3,3.1-5.28,2.144-9.01-.419-11.266Z" transform="translate(-164.041 -23.641)" fill="rgba(0,0,0,0.2)"/>
      <path id="Path_2109" data-name="Path 2109" d="M219.951,166.137h-5s19.422,26.4,19.422,37.115c0,11.981-9.36,17.744-14.363,17.744H225.7c5.687,0,16.325-5.762,16.325-17.744C242.026,192.542,219.951,166.137,219.951,166.137Z" transform="translate(-197.168 -141.877)" fill="rgba(0,0,0,0.2)"/>
      <path id="Path_2110" data-name="Path 2110" d="M136.534,170.194c-1.965-2.5-3.264-4.057-3.264-4.057H113.75s-1.3,1.554-3.264,4.057Z" transform="translate(-110.486 -141.877)" fill="rgba(0,0,0,0.2)"/>
    </g>
    <path id="Path_2111" data-name="Path 2111" d="M158.063,89.017a2.959,2.959,0,0,1-2.6-1.442c-.745-.522-1.828-1.974-2.752-6.3a30.066,30.066,0,0,1-.581-3.86,1.316,1.316,0,0,1,2.623-.209,27.384,27.384,0,0,0,.531,3.519c.659,3.087,1.387,4.366,1.646,4.646a1.315,1.315,0,0,1,.8.866c.044.151.318.152.33.152s.286,0,.33-.152a1.316,1.316,0,0,1,.8-.866c.259-.28.987-1.559,1.646-4.646a27.9,27.9,0,0,0,.533-3.522,1.315,1.315,0,1,1,2.622.214,30.439,30.439,0,0,1-.582,3.857c-.924,4.33-2.007,5.782-2.752,6.3A2.958,2.958,0,0,1,158.063,89.017Z" transform="translate(503.188 414.724)" fill="#e6f4fa"/>
    <path id="Path_2112" data-name="Path 2112" d="M154.816,259.123h-2.274a6.438,6.438,0,0,0-1.179-2.727h3.453a1.315,1.315,0,0,0,0-2.631h-13.3a1.315,1.315,0,0,0,0,2.631h4.618a3.885,3.885,0,0,1,3.7,2.728h-8.322a1.315,1.315,0,0,0,0,2.631h8.27a4.051,4.051,0,0,1-3.816,2.727h-2.731a2.147,2.147,0,0,0-1.682,3.483l8.031,10.109a1.315,1.315,0,1,0,2.06-1.636l-7.408-9.325h1.73a6.692,6.692,0,0,0,6.539-5.358h2.305a1.315,1.315,0,0,0,0-2.631Z" transform="translate(513.083 267.216)" fill="#f0e9e6"/>
    <path id="Path_2113" data-name="Path 2113" d="M101.565,129.149a3.442,3.442,0,0,0,3.442,3.442h22.2a3.442,3.442,0,0,0,0-6.883h-22.2A3.441,3.441,0,0,0,101.565,129.149Z" transform="translate(545.143 373.472)" fill="#655e67"/>
    <path id="Path_2114" data-name="Path 2114" d="M228.569,125.707h-4.847a3.442,3.442,0,1,1,0,6.883h4.847a3.442,3.442,0,1,0,0-6.883Z" transform="translate(443.783 373.472)" fill="#544f56"/>
    <g id="Group_1610" data-name="Group 1610" transform="translate(670.89 552.417)">
      <path id="Path_2115" data-name="Path 2115" d="M270.823,438.407H247.855a4.252,4.252,0,0,0,0,8.5h22.968a4.252,4.252,0,0,0,0-8.5Z" transform="translate(-243.603 -438.407)" fill="#fcd86e"/>
      <path id="Path_2116" data-name="Path 2116" d="M379.714,438.407h-4.878a4.252,4.252,0,1,1,0,8.5h4.878a4.252,4.252,0,0,0,0-8.5Z" transform="translate(-352.494 -438.407)" fill="#ecc52e"/>
    </g>
    <g id="Group_1612" data-name="Group 1612" transform="translate(670.89 543.912)">
      <path id="Path_2117" data-name="Path 2117" d="M270.823,388.452H247.855a4.252,4.252,0,1,0,0,8.5h22.968a4.252,4.252,0,1,0,0-8.5Z" transform="translate(-243.603 -388.452)" fill="#fcd86e"/>
      <g id="Group_1611" data-name="Group 1611">
        <path id="Path_2118" data-name="Path 2118" d="M270.823,406.493H247.855a4.253,4.253,0,0,1-3.929-2.625,4.253,4.253,0,0,0,3.929,5.88h22.968a4.253,4.253,0,0,0,3.929-5.88A4.253,4.253,0,0,1,270.823,406.493Z" transform="translate(-243.603 -401.243)" fill="#ecc52e"/>
        <path id="Path_2119" data-name="Path 2119" d="M379.714,388.452h-4.878a4.252,4.252,0,1,1,0,8.5h4.878a4.252,4.252,0,1,0,0-8.5Z" transform="translate(-352.494 -388.452)" fill="#ecc52e"/>
      </g>
    </g>
    <g id="Group_1613" data-name="Group 1613" transform="translate(696.594 532.524)">
      <path id="Path_2120" data-name="Path 2120" d="M414,343.585l-11.484-19.89a4.252,4.252,0,1,0-7.365,4.253l11.484,19.891A4.252,4.252,0,0,0,414,343.585Z" transform="translate(-394.585 -321.567)" fill="#fcd86e"/>
      <path id="Path_2121" data-name="Path 2121" d="M460.867,430.3l-2.439-4.224a4.252,4.252,0,0,1-7.365,4.253l2.439,4.224a4.252,4.252,0,0,0,7.365-4.253Z" transform="translate(-441.448 -408.287)" fill="#ecc52e"/>
    </g>
  </g>
</svg>
