<svg xmlns="http://www.w3.org/2000/svg" width="50" height="50" viewBox="0 0 50 50">
  <g id="outgoing" transform="translate(-391 -496)">
    <path id="Path_2744" data-name="Path 2744" d="M8,0H42a8,8,0,0,1,8,8V42a8,8,0,0,1-8,8H8a8,8,0,0,1-8-8V8A8,8,0,0,1,8,0Z" transform="translate(391 496)" fill="#e6f4fa"/>
    <path id="Icon_ionic-ios-arrow-round-up" data-name="Icon ionic-ios-arrow-round-up" d="M28.314,17.333a1.184,1.184,0,0,1-1.667.009l-5.519-5.5V32.8a1.178,1.178,0,0,1-2.356,0V11.842l-5.519,5.51a1.193,1.193,0,0,1-1.667-.009,1.173,1.173,0,0,1,.009-1.658l7.521-7.467h0a1.323,1.323,0,0,1,.372-.245,1.124,1.124,0,0,1,.453-.091,1.181,1.181,0,0,1,.825.335l7.521,7.467A1.154,1.154,0,0,1,28.314,17.333Z" transform="translate(396.353 500.073)" fill="#2aa2e0"/>
  </g>
</svg>
